<svg width="74" height="24" viewBox="0 0 74 24" fill="none" xmlns="http://www.w3.org/2000/svg">
<path d="M20 6L9 17L4 12" stroke="#39B54A" stroke-width="2" stroke-linecap="round" stroke-linejoin="round"/>
<path d="M34.014 16.091C33.8407 16.091 33.702 16.052 33.598 15.974C33.494 15.896 33.4333 15.792 33.416 15.662C33.3987 15.532 33.4247 15.3847 33.494 15.22L37.017 7.316C37.1037 7.108 37.212 6.96067 37.342 6.874C37.4807 6.78733 37.6323 6.744 37.797 6.744C37.953 6.744 38.096 6.78733 38.226 6.874C38.3647 6.96067 38.4773 7.108 38.564 7.316L42.087 15.22C42.165 15.3847 42.1953 15.5363 42.178 15.675C42.1607 15.805 42.1043 15.909 42.009 15.987C41.9137 16.0563 41.7793 16.091 41.606 16.091C41.4153 16.091 41.2637 16.0433 41.151 15.948C41.0383 15.8527 40.9387 15.7053 40.852 15.506L39.942 13.4L40.553 13.764H35.015L35.613 13.4L34.716 15.506C34.6293 15.714 34.534 15.8657 34.43 15.961C34.326 16.0477 34.1873 16.091 34.014 16.091ZM37.771 8.33L35.808 12.984L35.483 12.672H40.072L39.773 12.984L37.797 8.33H37.771ZM46.2268 16.117C45.5768 16.117 45.0135 15.9827 44.5368 15.714C44.0688 15.4367 43.7048 15.051 43.4448 14.557C43.1848 14.0543 43.0548 13.465 43.0548 12.789C43.0548 12.2863 43.1285 11.8357 43.2758 11.437C43.4231 11.0297 43.6311 10.6873 43.8998 10.41C44.1771 10.1327 44.5108 9.92033 44.9008 9.773C45.2995 9.617 45.7415 9.539 46.2268 9.539C46.5301 9.539 46.8465 9.58667 47.1758 9.682C47.5138 9.76867 47.8258 9.916 48.1118 10.124C48.2245 10.1933 48.2938 10.28 48.3198 10.384C48.3545 10.4793 48.3588 10.579 48.3328 10.683C48.3155 10.787 48.2678 10.878 48.1898 10.956C48.1205 11.0253 48.0338 11.0687 47.9298 11.086C47.8258 11.0947 47.7131 11.0643 47.5918 10.995C47.3838 10.8477 47.1715 10.7437 46.9548 10.683C46.7381 10.6137 46.5301 10.579 46.3308 10.579C46.0188 10.579 45.7415 10.631 45.4988 10.735C45.2648 10.8303 45.0655 10.9733 44.9008 11.164C44.7361 11.346 44.6105 11.5757 44.5238 11.853C44.4458 12.1303 44.4068 12.4467 44.4068 12.802C44.4068 13.5127 44.5715 14.0717 44.9008 14.479C45.2388 14.8777 45.7155 15.077 46.3308 15.077C46.5301 15.077 46.7381 15.0467 46.9548 14.986C47.1715 14.9253 47.3838 14.8213 47.5918 14.674C47.7131 14.6047 47.8258 14.5787 47.9298 14.596C48.0338 14.6133 48.1161 14.661 48.1768 14.739C48.2461 14.8083 48.2895 14.895 48.3068 14.999C48.3328 15.0943 48.3285 15.194 48.2938 15.298C48.2591 15.402 48.1855 15.4887 48.0728 15.558C47.7955 15.7573 47.4921 15.9003 47.1628 15.987C46.8421 16.0737 46.5301 16.117 46.2268 16.117ZM52.1682 16.117C51.5182 16.117 50.9549 15.9827 50.4782 15.714C50.0102 15.4367 49.6462 15.051 49.3862 14.557C49.1262 14.0543 48.9962 13.465 48.9962 12.789C48.9962 12.2863 49.0699 11.8357 49.2172 11.437C49.3645 11.0297 49.5725 10.6873 49.8412 10.41C50.1185 10.1327 50.4522 9.92033 50.8422 9.773C51.2409 9.617 51.6829 9.539 52.1682 9.539C52.4715 9.539 52.7879 9.58667 53.1172 9.682C53.4552 9.76867 53.7672 9.916 54.0532 10.124C54.1659 10.1933 54.2352 10.28 54.2612 10.384C54.2959 10.4793 54.3002 10.579 54.2742 10.683C54.2569 10.787 54.2092 10.878 54.1312 10.956C54.0619 11.0253 53.9752 11.0687 53.8712 11.086C53.7672 11.0947 53.6545 11.0643 53.5332 10.995C53.3252 10.8477 53.1129 10.7437 52.8962 10.683C52.6795 10.6137 52.4715 10.579 52.2722 10.579C51.9602 10.579 51.6829 10.631 51.4402 10.735C51.2062 10.8303 51.0069 10.9733 50.8422 11.164C50.6775 11.346 50.5519 11.5757 50.4652 11.853C50.3872 12.1303 50.3482 12.4467 50.3482 12.802C50.3482 13.5127 50.5129 14.0717 50.8422 14.479C51.1802 14.8777 51.6569 15.077 52.2722 15.077C52.4715 15.077 52.6795 15.0467 52.8962 14.986C53.1129 14.9253 53.3252 14.8213 53.5332 14.674C53.6545 14.6047 53.7672 14.5787 53.8712 14.596C53.9752 14.6133 54.0575 14.661 54.1182 14.739C54.1875 14.8083 54.2309 14.895 54.2482 14.999C54.2742 15.0943 54.2699 15.194 54.2352 15.298C54.2005 15.402 54.1269 15.4887 54.0142 15.558C53.7369 15.7573 53.4335 15.9003 53.1042 15.987C52.7835 16.0737 52.4715 16.117 52.1682 16.117ZM58.2916 16.117C57.5983 16.117 57.0003 15.987 56.4976 15.727C56.0036 15.4583 55.6179 15.0813 55.3406 14.596C55.0719 14.102 54.9376 13.517 54.9376 12.841C54.9376 12.1823 55.0719 11.606 55.3406 11.112C55.6093 10.618 55.9776 10.2323 56.4456 9.955C56.9136 9.67767 57.4466 9.539 58.0446 9.539C58.4866 9.539 58.8809 9.61267 59.2276 9.76C59.5743 9.89867 59.8689 10.1067 60.1116 10.384C60.3629 10.6527 60.5493 10.982 60.6706 11.372C60.8006 11.762 60.8656 12.1997 60.8656 12.685C60.8656 12.8323 60.8223 12.945 60.7356 13.023C60.6489 13.0923 60.5189 13.127 60.3456 13.127H55.9776V12.321H59.9816L59.7606 12.503C59.7606 12.0697 59.6956 11.7013 59.5656 11.398C59.4443 11.0947 59.2579 10.865 59.0066 10.709C58.7639 10.5443 58.4606 10.462 58.0966 10.462C57.6893 10.462 57.3426 10.5573 57.0566 10.748C56.7793 10.9387 56.5669 11.203 56.4196 11.541C56.2723 11.879 56.1986 12.2733 56.1986 12.724V12.802C56.1986 13.5647 56.3763 14.141 56.7316 14.531C57.0956 14.9123 57.6199 15.103 58.3046 15.103C58.5646 15.103 58.8376 15.0683 59.1236 14.999C59.4183 14.9297 59.6956 14.8127 59.9556 14.648C60.1029 14.5613 60.2329 14.5223 60.3456 14.531C60.4669 14.5397 60.5623 14.5787 60.6316 14.648C60.7096 14.7173 60.7573 14.804 60.7746 14.908C60.7919 15.012 60.7746 15.1203 60.7226 15.233C60.6706 15.337 60.5796 15.4323 60.4496 15.519C60.1549 15.7183 59.8126 15.87 59.4226 15.974C59.0326 16.0693 58.6556 16.117 58.2916 16.117ZM62.947 18.431C62.739 18.431 62.5787 18.3747 62.466 18.262C62.3534 18.1493 62.297 17.9847 62.297 17.768V10.228C62.297 10.0113 62.3534 9.84667 62.466 9.734C62.5787 9.62133 62.7347 9.565 62.934 9.565C63.142 9.565 63.3024 9.62133 63.415 9.734C63.5277 9.84667 63.584 10.0113 63.584 10.228V11.359L63.441 11.086C63.5797 10.618 63.8527 10.2453 64.26 9.968C64.6674 9.682 65.1484 9.539 65.703 9.539C66.2664 9.539 66.756 9.67333 67.172 9.942C67.5967 10.2107 67.9217 10.5877 68.147 11.073C68.381 11.5583 68.498 12.1433 68.498 12.828C68.498 13.4953 68.381 14.0803 68.147 14.583C67.9217 15.077 67.601 15.4583 67.185 15.727C66.769 15.987 66.275 16.117 65.703 16.117C65.157 16.117 64.6804 15.9783 64.273 15.701C63.8657 15.4237 63.5927 15.0553 63.454 14.596H63.61V17.768C63.61 17.9847 63.5494 18.1493 63.428 18.262C63.3154 18.3747 63.155 18.431 62.947 18.431ZM65.378 15.103C65.742 15.103 66.0584 15.0163 66.327 14.843C66.5957 14.6697 66.8037 14.414 66.951 14.076C67.0984 13.738 67.172 13.322 67.172 12.828C67.172 12.0827 67.0074 11.5193 66.678 11.138C66.3574 10.7567 65.924 10.566 65.378 10.566C65.0227 10.566 64.7064 10.6527 64.429 10.826C64.1604 10.9907 63.9524 11.242 63.805 11.58C63.6577 11.918 63.584 12.334 63.584 12.828C63.584 13.5647 63.7487 14.128 64.078 14.518C64.4074 14.908 64.8407 15.103 65.378 15.103ZM72.6182 16.117C72.0982 16.117 71.6605 16.026 71.3052 15.844C70.9499 15.662 70.6855 15.3933 70.5122 15.038C70.3389 14.6827 70.2522 14.2493 70.2522 13.738V10.67H69.4722C69.2989 10.67 69.1645 10.6267 69.0692 10.54C68.9739 10.4447 68.9262 10.319 68.9262 10.163C68.9262 9.99833 68.9739 9.87267 69.0692 9.786C69.1645 9.69933 69.2989 9.656 69.4722 9.656H70.2522V8.317C70.2522 8.10033 70.3085 7.93567 70.4212 7.823C70.5425 7.71033 70.7072 7.654 70.9152 7.654C71.1232 7.654 71.2835 7.71033 71.3962 7.823C71.5089 7.93567 71.5652 8.10033 71.5652 8.317V9.656H73.0862C73.2595 9.656 73.3939 9.69933 73.4892 9.786C73.5845 9.87267 73.6322 9.99833 73.6322 10.163C73.6322 10.319 73.5845 10.4447 73.4892 10.54C73.3939 10.6267 73.2595 10.67 73.0862 10.67H71.5652V13.634C71.5652 14.0933 71.6605 14.44 71.8512 14.674C72.0505 14.908 72.3712 15.025 72.8132 15.025C72.9692 15.025 73.1035 15.012 73.2162 14.986C73.3375 14.9513 73.4372 14.9297 73.5152 14.921C73.6105 14.921 73.6885 14.9557 73.7492 15.025C73.8099 15.0857 73.8402 15.207 73.8402 15.389C73.8402 15.519 73.8142 15.6403 73.7622 15.753C73.7189 15.8657 73.6365 15.9393 73.5152 15.974C73.4112 16.0087 73.2682 16.039 73.0862 16.065C72.9129 16.0997 72.7569 16.117 72.6182 16.117Z" fill="#39B54A"/>
</svg>
