<svg width="13" height="13" viewBox="0 0 13 13" fill="none" xmlns="http://www.w3.org/2000/svg">
<path d="M5.76025 1.87524C5.9141 1.85812 6.05488 1.78025 6.15162 1.65876C6.24837 1.53726 6.29315 1.38209 6.27613 1.22739C6.2591 1.07269 6.18166 0.931127 6.06084 0.833842C5.94002 0.736557 5.78571 0.691521 5.63187 0.708641C2.71287 1.03315 0.44397 3.52011 0.44397 6.54107C0.44397 9.78209 3.05659 12.4093 6.27963 12.4093C9.28266 12.4093 11.7552 10.1283 12.0797 7.19479C12.0967 7.04009 12.0519 6.88493 11.9552 6.76343C11.8584 6.64193 11.7177 6.56406 11.5638 6.54694C11.41 6.52982 11.2557 6.57486 11.1348 6.67214C11.014 6.76943 10.9366 6.91099 10.9196 7.06569C10.7852 8.257 10.2026 9.35148 9.29142 10.1247C8.38021 10.8979 7.20936 11.2913 6.01893 11.2242C4.8285 11.1572 3.7087 10.6347 2.88912 9.76388C2.06954 8.8931 1.61228 7.74002 1.6111 6.54107C1.61114 5.38639 2.0343 4.27222 2.79972 3.41149C3.56513 2.55075 4.61913 2.00383 5.76025 1.87524Z" fill="#C2E0FF"/>
<path d="M7.89441 0.900697C7.82061 0.879891 7.74345 0.873905 7.66735 0.883081C7.59125 0.892257 7.5177 0.916416 7.45088 0.954178C7.31594 1.03044 7.21666 1.15749 7.17487 1.30736C7.13308 1.45723 7.15221 1.61766 7.22805 1.75335C7.3039 1.88904 7.43024 1.98888 7.57928 2.0309C7.74676 2.07844 7.91133 2.13536 8.07064 2.20108C8.21396 2.25999 8.37468 2.25923 8.51745 2.19898C8.66021 2.13873 8.77333 2.02391 8.83191 1.8798C8.89049 1.73568 8.88974 1.57407 8.82982 1.43051C8.7699 1.28695 8.65572 1.17321 8.5124 1.1143C8.3106 1.03153 8.10427 0.960412 7.89441 0.901284V0.900697Z" fill="#C2E0FF"/>
<path d="M9.40166 2.2524C9.50626 2.13786 9.65179 2.06976 9.80629 2.06305C9.96079 2.05634 10.1116 2.11157 10.2257 2.21661C10.3494 2.33045 10.4678 2.44958 10.581 2.5734C10.6857 2.68811 10.7407 2.83991 10.734 2.99541C10.7273 3.15092 10.6595 3.29738 10.5454 3.4026C10.4314 3.50781 10.2804 3.56314 10.1258 3.55643C9.97115 3.54972 9.82549 3.4815 9.72087 3.3668C9.63047 3.26766 9.53584 3.1725 9.43726 3.0816C9.38073 3.02955 9.33496 2.96681 9.30255 2.89696C9.27014 2.82712 9.25172 2.75154 9.24836 2.67454C9.245 2.59754 9.25676 2.52063 9.28296 2.44819C9.30917 2.37576 9.3493 2.30923 9.40107 2.2524H9.40166Z" fill="#C2E0FF"/>
<path d="M5.69587 3.01953C5.85064 3.01953 5.99907 3.08136 6.10851 3.19141C6.21795 3.30146 6.27944 3.45072 6.27944 3.60635V6.54047H8.03013C8.18491 6.54047 8.33334 6.60229 8.44278 6.71234C8.55222 6.82239 8.6137 6.97165 8.6137 7.12729C8.6137 7.28292 8.55222 7.43218 8.44278 7.54223C8.33334 7.65229 8.18491 7.71411 8.03013 7.71411H5.69587C5.5411 7.71411 5.39267 7.65229 5.28323 7.54223C5.17379 7.43218 5.1123 7.28292 5.1123 7.12729V3.60635C5.1123 3.45072 5.17379 3.30146 5.28323 3.19141C5.39267 3.08136 5.5411 3.01953 5.69587 3.01953Z" fill="#C2E0FF"/>
<path d="M10.9129 3.97333C11.0561 3.91444 11.2168 3.91517 11.3595 3.97537C11.5022 4.03557 11.6152 4.1503 11.6738 4.29433C11.7566 4.49802 11.8277 4.70629 11.8868 4.91813C11.9099 4.993 11.9177 5.07174 11.91 5.14972C11.9023 5.2277 11.8791 5.30333 11.8418 5.37214C11.8045 5.44096 11.7539 5.50158 11.693 5.55041C11.632 5.59924 11.562 5.63531 11.4869 5.65647C11.4119 5.67764 11.3334 5.68348 11.2561 5.67365C11.1788 5.66381 11.1042 5.63851 11.0368 5.59923C10.9693 5.55995 10.9104 5.50748 10.8635 5.44493C10.8165 5.38237 10.7825 5.311 10.7635 5.23502C10.7162 5.06644 10.6595 4.90068 10.5937 4.73856C10.5351 4.59459 10.5357 4.43311 10.5955 4.28962C10.6552 4.14613 10.7692 4.03237 10.9123 3.97333H10.9129Z" fill="#C2E0FF"/>
</svg>
