<svg width="27" height="27" viewBox="0 0 27 27" fill="none" xmlns="http://www.w3.org/2000/svg">
<path d="M13.5517 2.56836C7.60575 2.56944 2.76831 7.40688 2.76831 13.3528C2.76831 19.2977 7.60575 24.1352 13.5517 24.1363C19.4977 24.1363 24.3351 19.2988 24.3351 13.3528C24.3351 7.40688 19.4988 2.56944 13.5517 2.56836ZM13.5517 21.9796C8.79516 21.9785 4.92499 18.1083 4.92499 13.3528C4.92499 8.59629 8.79516 4.72612 13.5517 4.72504C18.3083 4.72612 22.1784 8.59629 22.1784 13.3528C22.1784 18.1094 18.3083 21.9796 13.5517 21.9796Z" fill="black"/>
<path d="M14.6304 9.0459H12.4737V13.3593H9.229L13.5478 17.678L17.8654 13.3593H14.6304V9.0459Z" fill="black"/>
</svg>
