<svg width="16" height="16" viewBox="0 0 16 16" fill="none" xmlns="http://www.w3.org/2000/svg">
<path d="M7.85704 1.70898C4.31232 1.70963 1.42847 4.59348 1.42847 8.1382C1.42847 11.6823 4.31232 14.5661 7.85704 14.5668C11.4018 14.5668 14.2856 11.6829 14.2856 8.1382C14.2856 4.59348 11.4024 1.70963 7.85704 1.70898ZM7.85704 13.2811C5.0214 13.2804 2.71418 10.9732 2.71418 8.1382C2.71418 5.30256 5.0214 2.99534 7.85704 2.9947C10.6927 2.99534 12.9999 5.30256 12.9999 8.1382C12.9999 10.9738 10.6927 13.2811 7.85704 13.2811Z" fill="black"/>
<path d="M8.5001 5.57031H7.21439V8.14174H5.28003L7.85467 10.7164L10.4287 8.14174H8.5001V5.57031Z" fill="black"/>
</svg>
