<svg width="13" height="16" viewBox="0 0 13 16" fill="none" xmlns="http://www.w3.org/2000/svg">
<path d="M11.8676 0.357422H11.415C11.4344 0.445602 11.4449 0.537058 11.4449 0.631003V2.03232C11.4449 2.83171 10.7945 3.48212 9.99497 3.48212H3.03018C2.23066 3.48212 1.58025 2.83171 1.58025 2.03219V0.630872C1.58025 0.536927 1.5906 0.445602 1.60999 0.357422H1.15743C0.773004 0.357422 0.461426 0.669 0.461426 1.05343V14.4784C0.461426 14.8629 0.773004 15.1746 1.15743 15.1746H11.8676C12.252 15.1746 12.5637 14.8629 12.5637 14.4784V1.05356C12.5637 0.669131 12.252 0.357422 11.8676 0.357422ZM10.0821 12.1958H2.94305C2.66449 12.1958 2.43873 11.9701 2.43873 11.6915C2.43873 11.4131 2.66449 11.1873 2.94305 11.1873H10.0821C10.3607 11.1873 10.5864 11.4131 10.5864 11.6915C10.5864 11.9701 10.3607 12.1958 10.0821 12.1958ZM10.0821 10.0695H2.94305C2.66449 10.0695 2.43873 9.84379 2.43873 9.56523C2.43873 9.2868 2.66449 9.06092 2.94305 9.06092H10.0821C10.3607 9.06092 10.5864 9.2868 10.5864 9.56523C10.5864 9.84379 10.3607 10.0695 10.0821 10.0695ZM10.0821 7.94314H2.94305C2.66449 7.94314 2.43873 7.71738 2.43873 7.43895C2.43873 7.16039 2.66449 6.93464 2.94305 6.93464H10.0821C10.3607 6.93464 10.5864 7.16039 10.5864 7.43895C10.5864 7.71738 10.3607 7.94314 10.0821 7.94314ZM10.0821 5.81686H2.94305C2.66449 5.81686 2.43873 5.5911 2.43873 5.31254C2.43873 5.03411 2.66449 4.80822 2.94305 4.80822H10.0821C10.3607 4.80822 10.5864 5.03411 10.5864 5.31254C10.5864 5.5911 10.3607 5.81686 10.0821 5.81686Z" fill="#274B89"/>
</svg>
