<svg width="92" height="92" viewBox="0 0 92 92" fill="none" xmlns="http://www.w3.org/2000/svg">
<path d="M52.9532 17.0234H26.7672C26.8579 17.4428 26.9586 17.9301 27.077 18.4942C27.6764 21.3741 28.8299 27.0256 31.0461 38.112C31.1872 38.8197 31.3483 39.4971 31.5158 40.1469C31.5662 40.3408 31.6216 40.5247 31.6745 40.7148C31.8511 41.3586 32.051 41.9958 32.2739 42.6251C32.4275 43.0545 32.5887 43.4701 32.7562 43.8718L32.9413 44.3125C33.1717 44.8326 33.4148 45.3325 33.6742 45.8022L33.6868 45.8261C33.9638 46.3273 34.266 46.8134 34.5947 47.283L34.6261 47.3259C34.917 47.7364 35.2306 48.1318 35.563 48.5083L35.7242 48.6833C36.0214 49.0082 36.3349 49.3167 36.6649 49.6089C36.7177 49.6555 36.7706 49.7046 36.8248 49.7499C39.4001 51.8448 42.6554 52.9204 45.9719 52.7721C47.2123 52.7759 48.4501 52.6462 49.6628 52.3842C52.6091 40.8431 53.7195 28.91 52.9532 17.0234V17.0234Z" fill="#3670D5"/>
<path d="M52.9527 17.0234C53.7191 28.9087 52.6091 40.8405 49.6636 52.3805C55.5896 51.0872 59.2036 46.4217 60.8985 37.9495C62.7333 28.7797 64.0605 22.2417 64.845 18.5182C64.9709 17.9439 65.0717 17.4491 65.1661 17.0234H52.9527Z" fill="#B2C9F2"/>
<path d="M40.1539 65.5078H35.2806V74.5328H49.0782V65.5078H40.1539V65.5078Z" fill="#3670D5"/>
<path d="M55.8466 65.5078H49.0781V74.5328H55.8466V65.5078Z" fill="#B2C9F2"/>
<path d="M45.9669 36.8571C48.7487 36.8571 51.0039 34.602 51.0039 31.8202C51.0039 29.0383 48.7487 26.7832 45.9669 26.7832C43.1851 26.7832 40.9299 29.0383 40.9299 31.8202C40.9299 34.602 43.1851 36.8571 45.9669 36.8571Z" fill="#B2C9F2"/>
<path d="M66.7445 15.7675C66.7445 15.7675 66.7445 15.114 62.1268 38.1997C60.1271 48.2006 55.201 54.0309 45.967 54.0309C36.7329 54.0309 31.8068 48.3643 29.8071 38.3621C25.1895 15.2764 25.1895 15.7675 25.1895 15.7675H66.7445V15.7675Z" stroke="black" stroke-width="2.51849" stroke-linecap="round" stroke-linejoin="round"/>
<path d="M29.6056 40.5087C29.6056 40.5087 29.7063 40.1801 22.7805 35.5624C19.5959 33.4431 15.905 30.6514 15.905 26.8195C15.905 22.9876 19.0531 20.3848 22.8812 20.3848H24.7852" stroke="black" stroke-width="2.51849" stroke-linecap="round" stroke-linejoin="round"/>
<path d="M61.9265 40.8704C61.9265 40.8704 62.0273 40.5418 68.9531 35.9241C72.1352 33.8048 75.9293 31.0131 75.9293 27.1812C75.9248 26.2997 75.7405 25.4284 75.3876 24.6206C75.0348 23.8129 74.5209 23.0855 73.8773 22.4832C73.2337 21.8809 72.474 21.4162 71.6446 21.1176C70.8152 20.8189 69.9337 20.6927 69.0538 20.7465H66.3402" stroke="black" stroke-width="2.51849" stroke-linecap="round" stroke-linejoin="round"/>
<path d="M34.0201 64.248H57.1058V75.7915H34.0201V64.248Z" stroke="black" stroke-width="2.51849" stroke-linecap="round" stroke-linejoin="round"/>
<path d="M45.967 38.1178C49.4443 38.1178 52.2632 35.2989 52.2632 31.8216C52.2632 28.3443 49.4443 25.5254 45.967 25.5254C42.4897 25.5254 39.6708 28.3443 39.6708 31.8216C39.6708 35.2989 42.4897 38.1178 45.967 38.1178Z" stroke="black" stroke-width="2.51849" stroke-linecap="round" stroke-linejoin="round"/>
<path d="M45.967 64.2488V54.0312" stroke="black" stroke-width="2.51849" stroke-linecap="round" stroke-linejoin="round"/>
</svg>
