<svg width="20" height="20" viewBox="0 0 20 20" fill="none" xmlns="http://www.w3.org/2000/svg">
<path d="M16.7407 8.88086H3.74394C3.3204 8.88086 2.97705 9.22421 2.97705 9.64775V9.72847C2.97705 10.152 3.3204 10.4954 3.74394 10.4954H16.7407C17.1643 10.4954 17.5076 10.152 17.5076 9.72847V9.64775C17.5076 9.22421 17.1643 8.88086 16.7407 8.88086Z" fill="#274B89"/>
<path d="M16.7407 12.916H3.74394C3.3204 12.916 2.97705 13.2594 2.97705 13.6829V13.7636C2.97705 14.1872 3.3204 14.5305 3.74394 14.5305H16.7407C17.1643 14.5305 17.5076 14.1872 17.5076 13.7636V13.6829C17.5076 13.2594 17.1643 12.916 16.7407 12.916Z" fill="#274B89"/>
<path d="M16.7405 4.84375H3.7437C3.32016 4.84375 2.97681 5.1871 2.97681 5.61064V5.69137C2.97681 6.11491 3.32016 6.45826 3.7437 6.45826H16.7405C17.164 6.45826 17.5074 6.11491 17.5074 5.69137V5.61064C17.5074 5.1871 17.164 4.84375 16.7405 4.84375Z" fill="#274B89"/>
</svg>
