<svg width="21" height="21" viewBox="0 0 21 21" fill="none" xmlns="http://www.w3.org/2000/svg">
<path d="M10.5002 0.0830078C8.43995 0.0830078 6.42599 0.693935 4.71298 1.83853C2.99997 2.98313 1.66484 4.60999 0.876422 6.51339C0.0880095 8.41679 -0.118275 10.5112 0.283654 12.5319C0.685584 14.5525 1.67768 16.4086 3.13447 17.8654C4.59127 19.3222 6.44734 20.3143 8.46798 20.7162C10.4886 21.1181 12.5831 20.9118 14.4865 20.1234C16.3899 19.335 18.0167 17.9999 19.1613 16.2869C20.3059 14.5739 20.9168 12.5599 20.9168 10.4997C20.9168 9.13174 20.6474 7.7772 20.1239 6.51339C19.6004 5.24958 18.8331 4.10126 17.8659 3.13398C16.8986 2.1667 15.7503 1.39942 14.4865 0.87593C13.2226 0.352443 11.8681 0.0830078 10.5002 0.0830078ZM13.3231 11.8434C13.4207 11.9403 13.4982 12.0555 13.5511 12.1824C13.604 12.3093 13.6312 12.4455 13.6312 12.583C13.6312 12.7205 13.604 12.8567 13.5511 12.9836C13.4982 13.1105 13.4207 13.2258 13.3231 13.3226C13.2262 13.4202 13.111 13.4977 12.9841 13.5506C12.8572 13.6035 12.721 13.6307 12.5835 13.6307C12.446 13.6307 12.3098 13.6035 12.1829 13.5506C12.056 13.4977 11.9408 13.4202 11.8439 13.3226L10.5002 11.9684L9.15642 13.3226C9.05958 13.4202 8.94437 13.4977 8.81744 13.5506C8.6905 13.6035 8.55435 13.6307 8.41683 13.6307C8.27932 13.6307 8.14317 13.6035 8.01623 13.5506C7.8893 13.4977 7.77409 13.4202 7.67725 13.3226C7.57962 13.2258 7.50212 13.1105 7.44924 12.9836C7.39636 12.8567 7.36913 12.7205 7.36913 12.583C7.36913 12.4455 7.39636 12.3093 7.44924 12.1824C7.50212 12.0555 7.57962 11.9403 7.67725 11.8434L9.03142 10.4997L7.67725 9.15593C7.4811 8.95978 7.37091 8.69374 7.37091 8.41634C7.37091 8.13895 7.4811 7.87291 7.67725 7.67676C7.8734 7.48061 8.13944 7.37041 8.41683 7.37041C8.69423 7.37041 8.96027 7.48061 9.15642 7.67676L10.5002 9.03093L11.8439 7.67676C12.0401 7.48061 12.3061 7.37041 12.5835 7.37041C12.8609 7.37041 13.1269 7.48061 13.3231 7.67676C13.5192 7.87291 13.6294 8.13895 13.6294 8.41634C13.6294 8.69374 13.5192 8.95978 13.3231 9.15593L11.9689 10.4997L13.3231 11.8434Z" fill="#061E48"/>
</svg>
