<svg width="21" height="21" viewBox="0 0 21 21" fill="none" xmlns="http://www.w3.org/2000/svg">
<path d="M4.86972 10.1465H2.38344C2.30542 10.1465 2.24219 10.2097 2.24219 10.2877V11.9421C2.24219 12.0201 2.30542 12.0834 2.38344 12.0834H4.86972C4.94774 12.0834 5.01097 12.0201 5.01097 11.9421V10.2877C5.01097 10.2097 4.94774 10.1465 4.86972 10.1465Z" fill="#6E85AE"/>
<path d="M4.86981 10.1465H3.62744V12.0834H4.86981C4.94783 12.0834 5.01106 12.0201 5.01106 11.9421V10.2877C5.01106 10.2097 4.94783 10.1465 4.86981 10.1465Z" fill="#5E7398"/>
<path d="M16.5217 2.45508C16.3506 2.45508 16.2119 2.59376 16.2119 2.76488V5.88546C16.2119 6.05658 16.3506 6.19526 16.5217 6.19526C16.6928 6.19526 16.8315 6.05658 16.8315 5.88546V2.76488C16.8315 2.5938 16.6928 2.45508 16.5217 2.45508Z" fill="#2D5872"/>
<path d="M17.0429 7.06419H16.0002C15.8204 7.06419 15.6746 6.91837 15.6746 6.7385V5.59912C15.6746 5.41925 15.8204 5.27344 16.0002 5.27344H17.0429C17.2228 5.27344 17.3686 5.41925 17.3686 5.59912V6.7385C17.3686 6.91837 17.2228 7.06419 17.0429 7.06419Z" fill="#728DBD"/>
<path d="M18.5142 10.3669H14.5288C14.3574 10.3669 14.2185 10.2279 14.2185 10.0566V7.04853C14.2185 6.87717 14.3574 6.73828 14.5288 6.73828H18.5142C18.6856 6.73828 18.8244 6.87721 18.8244 7.04853V10.0566C18.8244 10.2279 18.6856 10.3669 18.5142 10.3669Z" fill="#728DBD"/>
<path d="M19.7908 20.9369H12.7974V8.22266H19.6191C19.7139 8.22266 19.7908 8.29954 19.7908 8.39438V20.9369Z" fill="#7E9BCE"/>
<path d="M19.6191 8.22266H17.7195C17.8143 8.22266 17.8912 8.29954 17.8912 8.39438V20.9369H19.7908V8.39438C19.7908 8.29954 19.7139 8.22266 19.6191 8.22266Z" fill="#728DBD"/>
<path d="M18.4835 11.2541H14.4761C14.3342 11.2541 14.2192 11.1391 14.2192 10.9973V10.4033C14.2192 10.2615 14.3343 10.1465 14.4761 10.1465H18.4835C18.6253 10.1465 18.7403 10.2615 18.7403 10.4033V10.9973C18.7403 11.1391 18.6253 11.2541 18.4835 11.2541Z" fill="#E1EFFB"/>
<path d="M18.4832 13.7932H14.4758C14.334 13.7932 14.219 13.6782 14.219 13.5363V12.9424C14.219 12.8005 14.334 12.6855 14.4758 12.6855H18.4832C18.6251 12.6855 18.7401 12.8006 18.7401 12.9424V13.5363C18.7401 13.6782 18.6251 13.7932 18.4832 13.7932Z" fill="#E1EFFB"/>
<path d="M18.4832 16.3322H14.4758C14.334 16.3322 14.219 16.2172 14.219 16.0754V15.4814C14.219 15.3396 14.334 15.2246 14.4758 15.2246H18.4832C18.6251 15.2246 18.7401 15.3396 18.7401 15.4814V16.0754C18.7401 16.2172 18.6251 16.3322 18.4832 16.3322Z" fill="#E1EFFB"/>
<path d="M18.4832 18.8733H14.4758C14.334 18.8733 14.219 18.7582 14.219 18.6164V18.0225C14.219 17.8806 14.334 17.7656 14.4758 17.7656H18.4832C18.6251 17.7656 18.7401 17.8806 18.7401 18.0225V18.6164C18.7401 18.7583 18.6251 18.8733 18.4832 18.8733Z" fill="#E1EFFB"/>
<path d="M14.6155 20.9387H6.53972C6.41057 20.9387 6.30591 20.834 6.30591 20.7049V0.68694C6.30591 0.55779 6.41057 0.453125 6.53972 0.453125H14.6155C14.7446 0.453125 14.8493 0.55779 14.8493 0.68694V20.7049C14.8493 20.834 14.7446 20.9387 14.6155 20.9387Z" fill="#8F9FBB"/>
<path d="M14.6151 0.453125H12.7156C12.8447 0.453125 12.9494 0.55779 12.9494 0.68694V20.7049C12.9494 20.834 12.8447 20.9387 12.7156 20.9387H14.6151C14.7443 20.9387 14.849 20.834 14.849 20.7049V0.68694C14.849 0.55779 14.7443 0.453125 14.6151 0.453125Z" fill="#7E8EA9"/>
<path d="M15.2163 0.078125H5.84019C5.77611 0.078125 5.72412 0.13007 5.72412 0.194197V0.981158C5.72412 1.04524 5.77607 1.09723 5.84019 1.09723H15.2163C15.2803 1.09723 15.3323 1.04529 15.3323 0.981158V0.194197C15.3323 0.13007 15.2803 0.078125 15.2163 0.078125Z" fill="#7E8EA9"/>
<path d="M8.64875 3.90364H7.51259C7.43258 3.90364 7.36768 3.83878 7.36768 3.75872V2.37148C7.36768 2.29146 7.43254 2.22656 7.51259 2.22656H8.64875C8.72876 2.22656 8.79367 2.29142 8.79367 2.37148V3.75877C8.79367 3.83878 8.72876 3.90364 8.64875 3.90364Z" fill="#E1EFFB"/>
<path d="M11.1461 3.90364H10.0099C9.92989 3.90364 9.86499 3.83878 9.86499 3.75872V2.37148C9.86499 2.29146 9.92985 2.22656 10.0099 2.22656H11.1461C11.2261 2.22656 11.291 2.29142 11.291 2.37148V3.75877C11.2909 3.83878 11.2261 3.90364 11.1461 3.90364Z" fill="#E1EFFB"/>
<path d="M13.6429 3.90364H12.5067C12.4267 3.90364 12.3618 3.83878 12.3618 3.75872V2.37148C12.3618 2.29146 12.4267 2.22656 12.5067 2.22656H13.6429C13.7229 2.22656 13.7878 2.29142 13.7878 2.37148V3.75877C13.7878 3.83878 13.7229 3.90364 13.6429 3.90364Z" fill="#E1EFFB"/>
<path d="M8.64899 7.64587H7.51284C7.43282 7.64587 7.36792 7.58101 7.36792 7.50095V6.11367C7.36792 6.03365 7.43278 5.96875 7.51284 5.96875H8.64899C8.72901 5.96875 8.79391 6.03361 8.79391 6.11367V7.50095C8.79391 7.58101 8.72901 7.64587 8.64899 7.64587Z" fill="#E1EFFB"/>
<path d="M11.1461 7.64587H10.0099C9.92989 7.64587 9.86499 7.58101 9.86499 7.50095V6.11367C9.86499 6.03365 9.92985 5.96875 10.0099 5.96875H11.1461C11.2261 5.96875 11.291 6.03361 11.291 6.11367V7.50095C11.2909 7.58101 11.2261 7.64587 11.1461 7.64587Z" fill="#E1EFFB"/>
<path d="M13.6429 7.64587H12.5067C12.4267 7.64587 12.3618 7.58101 12.3618 7.50095V6.11367C12.3618 6.03365 12.4267 5.96875 12.5067 5.96875H13.6429C13.7229 5.96875 13.7878 6.03361 13.7878 6.11367V7.50095C13.7878 7.58101 13.7229 7.64587 13.6429 7.64587Z" fill="#E1EFFB"/>
<path d="M8.64899 11.3881H7.51284C7.43282 11.3881 7.36792 11.3232 7.36792 11.2431V9.85586C7.36792 9.77584 7.43278 9.71094 7.51284 9.71094H8.64899C8.72901 9.71094 8.79391 9.7758 8.79391 9.85586V11.2431C8.79391 11.3232 8.72901 11.3881 8.64899 11.3881Z" fill="#E1EFFB"/>
<path d="M11.1461 11.3881H10.0099C9.92989 11.3881 9.86499 11.3232 9.86499 11.2431V9.85586C9.86499 9.77584 9.92985 9.71094 10.0099 9.71094H11.1461C11.2261 9.71094 11.291 9.7758 11.291 9.85586V11.2431C11.2909 11.3232 11.2261 11.3881 11.1461 11.3881Z" fill="#E1EFFB"/>
<path d="M13.6429 11.3881H12.5067C12.4267 11.3881 12.3618 11.3232 12.3618 11.2431V9.85586C12.3618 9.77584 12.4267 9.71094 12.5067 9.71094H13.6429C13.7229 9.71094 13.7878 9.7758 13.7878 9.85586V11.2431C13.7878 11.3232 13.7229 11.3881 13.6429 11.3881Z" fill="#E1EFFB"/>
<path d="M11.1461 15.1302H10.0099C9.92989 15.1302 9.86499 15.0654 9.86499 14.9853V13.598C9.86499 13.518 9.92985 13.4531 10.0099 13.4531H11.1461C11.2261 13.4531 11.291 13.518 11.291 13.598V14.9853C11.2909 15.0654 11.2261 15.1302 11.1461 15.1302Z" fill="#E1EFFB"/>
<path d="M13.6429 15.1302H12.5067C12.4267 15.1302 12.3618 15.0654 12.3618 14.9853V13.598C12.3618 13.518 12.4267 13.4531 12.5067 13.4531H13.6429C13.7229 13.4531 13.7878 13.518 13.7878 13.598V14.9853C13.7878 15.0654 13.7229 15.1302 13.6429 15.1302Z" fill="#E1EFFB"/>
<path d="M11.1461 18.8724H10.0099C9.92989 18.8724 9.86499 18.8076 9.86499 18.7275V17.3402C9.86499 17.2602 9.92985 17.1953 10.0099 17.1953H11.1461C11.2261 17.1953 11.291 17.2602 11.291 17.3402V18.7275C11.2909 18.8076 11.2261 18.8724 11.1461 18.8724Z" fill="#E1EFFB"/>
<path d="M13.6429 18.8724H12.5067C12.4267 18.8724 12.3618 18.8076 12.3618 18.7275V17.3402C12.3618 17.2602 12.4267 17.1953 12.5067 17.1953H13.6429C13.7229 17.1953 13.7878 17.2602 13.7878 17.3402V18.7275C13.7878 18.8076 13.7229 18.8724 13.6429 18.8724Z" fill="#E1EFFB"/>
<path d="M10.0363 20.9386H1.44419C1.34556 20.9386 1.26562 20.8587 1.26562 20.7601V11.6571C1.26562 11.5585 1.34556 11.4785 1.44419 11.4785H10.0363C10.1349 11.4785 10.2148 11.5585 10.2148 11.6571V20.7601C10.2148 20.8587 10.1349 20.9386 10.0363 20.9386Z" fill="#6E85AE"/>
<path d="M10.0363 11.4785H8.10254C8.20117 11.4785 8.28111 11.5585 8.28111 11.6571V20.7601C8.28111 20.8587 8.20117 20.9387 8.10254 20.9387H10.0363C10.1349 20.9387 10.2149 20.8587 10.2149 20.7601V11.6571C10.2149 11.5585 10.1349 11.4785 10.0363 11.4785Z" fill="#5E7398"/>
<path d="M3.62725 14.0591H2.50275C2.40375 14.0591 2.32349 13.9788 2.32349 13.8798V13.1636C2.32349 13.0646 2.40375 12.9844 2.50275 12.9844H3.62725C3.72625 12.9844 3.80651 13.0646 3.80651 13.1636V13.8798C3.80651 13.9788 3.72625 14.0591 3.62725 14.0591Z" fill="#E1EFFB"/>
<path d="M6.24493 14.0591H5.12042C5.02142 14.0591 4.94116 13.9788 4.94116 13.8798V13.1636C4.94116 13.0646 5.02142 12.9844 5.12042 12.9844H6.24493C6.34393 12.9844 6.42419 13.0646 6.42419 13.1636V13.8798C6.42419 13.9788 6.34393 14.0591 6.24493 14.0591Z" fill="#E1EFFB"/>
<path d="M8.8626 14.0591H7.7381C7.6391 14.0591 7.55884 13.9788 7.55884 13.8798V13.1636C7.55884 13.0646 7.6391 12.9844 7.7381 12.9844H8.8626C8.96161 12.9844 9.04187 13.0646 9.04187 13.1636V13.8798C9.04187 13.9788 8.96161 14.0591 8.8626 14.0591Z" fill="#E1EFFB"/>
<path d="M3.62725 16.5728H2.50275C2.40375 16.5728 2.32349 16.4925 2.32349 16.3935V15.6773C2.32349 15.5783 2.40375 15.498 2.50275 15.498H3.62725C3.72625 15.498 3.80651 15.5783 3.80651 15.6773V16.3935C3.80651 16.4925 3.72625 16.5728 3.62725 16.5728Z" fill="#E1EFFB"/>
<path d="M6.24493 16.5728H5.12042C5.02142 16.5728 4.94116 16.4925 4.94116 16.3935V15.6773C4.94116 15.5783 5.02142 15.498 5.12042 15.498H6.24493C6.34393 15.498 6.42419 15.5783 6.42419 15.6773V16.3935C6.42419 16.4925 6.34393 16.5728 6.24493 16.5728Z" fill="#E1EFFB"/>
<path d="M8.8626 16.5728H7.7381C7.6391 16.5728 7.55884 16.4925 7.55884 16.3935V15.6773C7.55884 15.5783 7.6391 15.498 7.7381 15.498H8.8626C8.96161 15.498 9.04187 15.5783 9.04187 15.6773V16.3935C9.04187 16.4925 8.96161 16.5728 8.8626 16.5728Z" fill="#E1EFFB"/>
<path d="M3.62725 19.0864H2.50275C2.40375 19.0864 2.32349 19.0062 2.32349 18.9072V18.191C2.32349 18.092 2.40375 18.0117 2.50275 18.0117H3.62725C3.72625 18.0117 3.80651 18.092 3.80651 18.191V18.9072C3.80651 19.0062 3.72625 19.0864 3.62725 19.0864Z" fill="#E1EFFB"/>
<path d="M6.24493 19.0864H5.12042C5.02142 19.0864 4.94116 19.0062 4.94116 18.9072V18.191C4.94116 18.092 5.02142 18.0117 5.12042 18.0117H6.24493C6.34393 18.0117 6.42419 18.092 6.42419 18.191V18.9072C6.42419 19.0062 6.34393 19.0864 6.24493 19.0864Z" fill="#E1EFFB"/>
<path d="M8.8626 19.0864H7.7381C7.6391 19.0864 7.55884 19.0062 7.55884 18.9072V18.191C7.55884 18.092 7.6391 18.0117 7.7381 18.0117H8.8626C8.96161 18.0117 9.04187 18.092 9.04187 18.191V18.9072C9.04187 19.0062 8.96161 19.0864 8.8626 19.0864Z" fill="#E1EFFB"/>
<path d="M20.076 19.9805H0.980461C0.716171 19.9805 0.501953 20.1947 0.501953 20.459C0.501953 20.7233 0.716171 20.9375 0.980461 20.9375H20.0761C20.3404 20.9375 20.5546 20.7233 20.5546 20.459C20.5545 20.1947 20.3403 19.9805 20.076 19.9805Z" fill="#2D5872"/>
<path d="M20.5515 20.4065C20.5512 20.4033 20.5505 20.4002 20.5501 20.3971C20.5482 20.3825 20.5458 20.3682 20.5426 20.3541C20.5422 20.3521 20.5416 20.3502 20.5411 20.3482C20.5374 20.3327 20.533 20.3176 20.5279 20.3027C20.5277 20.3022 20.5275 20.3016 20.5273 20.301C20.5217 20.285 20.5152 20.2694 20.508 20.2542V20.2542C20.4312 20.0925 20.2669 19.9805 20.076 19.9805H18.655V20.1023C18.655 20.3373 18.4645 20.5279 18.2294 20.5279H0.980461C0.789587 20.5279 0.625277 20.4158 0.54848 20.2542C0.518942 20.3163 0.501953 20.3856 0.501953 20.459C0.501953 20.7232 0.716171 20.9375 0.980461 20.9375H18.655H20.076C20.3403 20.9375 20.5545 20.7233 20.5545 20.459C20.5545 20.4413 20.5534 20.4237 20.5515 20.4065Z" fill="#1D4859"/>
</svg>
