<svg width="21" height="21" viewBox="0 0 21 21" fill="none" xmlns="http://www.w3.org/2000/svg">
<g clip-path="url(#clip0_24619_18221)">
<path d="M8.83129 3.72408C8.54119 3.08406 7.78718 2.80022 7.147 3.09035L6.54233 3.36445C5.90215 3.65458 5.61846 4.40875 5.9086 5.04877V5.0489C6.11215 5.49812 6.13133 6.01098 5.95398 6.47126C5.67029 7.2076 5.66938 8.05235 6.01808 8.82854C6.70979 10.3686 8.31621 10.5786 9.85538 9.8845C11.401 9.18755 12.3055 7.85121 11.6059 6.30752C11.2554 5.53404 10.6235 4.97671 9.88607 4.7014C9.41876 4.52707 9.03727 4.17837 8.83129 3.72408Z" fill="url(#paint0_radial_24619_18221)"/>
<path d="M9.46337 4.48014L7.26304 3.6529L7.15955 3.61395L7.14921 3.61261L7.13857 3.61141C7.13828 3.60946 7.13798 3.60736 7.13753 3.60542C7.10683 3.58549 7.01921 3.52603 6.91748 3.43137C6.92978 3.42747 6.94192 3.42313 6.95315 3.41804C7.07955 3.36082 7.19057 3.19741 7.31742 3.02726C7.77574 2.8935 8.26511 3.0307 8.58773 3.36502C8.68642 3.46702 8.7694 3.58729 8.83127 3.72389C8.97073 4.03154 9.19074 4.29082 9.46337 4.48014Z" fill="url(#paint1_linear_24619_18221)"/>
<path d="M7.04217 3.47109C7.04217 3.47109 5.31682 2.4262 7.41528 0.959524C7.50278 0.898263 7.62303 0.917884 7.68775 1.00281C7.99899 1.41157 8.68919 2.59815 7.04217 3.47109Z" fill="url(#paint2_linear_24619_18221)"/>
<path d="M7.68794 1.00216C7.65215 0.955132 7.59914 0.928172 7.54417 0.923828C7.15996 2.09618 7.04224 3.47044 7.04224 3.47044C8.68939 2.5975 7.99921 1.41092 7.68794 1.00216Z" fill="url(#paint3_linear_24619_18221)"/>
<path d="M7.56404 1.73698C7.54905 1.75121 7.53318 1.76454 7.51761 1.77787C7.502 1.7912 7.48659 1.80454 7.47055 1.81697C7.45468 1.8297 7.43685 1.84033 7.41964 1.85097C7.40227 1.8616 7.38712 1.87448 7.37409 1.88976C7.3612 1.90534 7.34893 1.92137 7.33754 1.93949C7.34131 1.91178 7.34504 1.88422 7.34864 1.85636L7.36827 1.72126C7.37455 1.67602 7.38355 1.63169 7.39058 1.5866C7.40616 1.49673 7.42504 1.40821 7.45004 1.32074L7.43041 1.3125L7.40122 1.37556L7.38653 1.40731C7.38188 1.41795 7.37815 1.42888 7.37396 1.43951C7.35793 1.4828 7.33993 1.52609 7.32632 1.56998C7.29635 1.6576 7.27106 1.74627 7.24498 1.83494C7.2405 1.85217 7.23601 1.86924 7.23137 1.88647C7.22522 1.87299 7.21831 1.85996 7.20905 1.84812C7.19675 1.83195 7.18389 1.81562 7.17368 1.7981C7.16305 1.78072 7.15346 1.76275 7.14374 1.74462C7.13399 1.72665 7.12381 1.70853 7.11511 1.6898C7.09564 1.65296 7.07994 1.61431 7.0624 1.57507L7.05088 1.57717C7.05013 1.6203 7.05265 1.66389 7.0588 1.70703C7.06181 1.72875 7.06613 1.75017 7.07035 1.77173C7.07558 1.793 7.08082 1.81427 7.08727 1.83539C7.09355 1.85651 7.09865 1.87823 7.1048 1.8998C7.11122 1.92122 7.12126 1.94114 7.13533 1.95851C7.13818 1.96196 7.14103 1.9654 7.14387 1.9687C7.17577 2.0048 7.18732 2.05467 7.17594 2.10156L7.17564 2.10246C7.15601 2.18409 7.13805 2.26587 7.11976 2.34765C7.11079 2.32893 7.10058 2.312 7.08982 2.29553C7.07843 2.2789 7.06508 2.26437 7.04892 2.25179C7.03305 2.23921 7.01643 2.22677 7.00219 2.21225C6.9875 2.19817 6.97373 2.18319 6.95979 2.16806C6.94588 2.15308 6.93148 2.1381 6.9183 2.12222C6.89045 2.09137 6.86542 2.05782 6.83879 2.02427L6.82799 2.02921C6.83816 2.07115 6.85151 2.11264 6.86827 2.15293C6.87651 2.1733 6.8861 2.19277 6.89556 2.21269C6.90603 2.23187 6.9165 2.25134 6.92788 2.27006C6.93927 2.28894 6.94961 2.30871 6.961 2.32803C6.97268 2.3472 6.98737 2.36398 7.00517 2.37731C7.01328 2.38315 7.0215 2.38869 7.0302 2.39393C7.07228 2.41909 7.09175 2.46987 7.08036 2.51765C7.07064 2.55869 7.06089 2.59958 7.05131 2.64063C7.03933 2.6926 7.02991 2.74502 7.02254 2.79775C7.01446 2.78172 7.00563 2.76689 6.9962 2.75266C6.98482 2.73589 6.97147 2.72136 6.9553 2.70893C6.93943 2.69635 6.92281 2.68391 6.90858 2.66938C6.89389 2.65515 6.88011 2.64017 6.86617 2.6252C6.85227 2.61022 6.83787 2.59509 6.82468 2.57921C6.79684 2.54836 6.77181 2.51496 6.74517 2.4814L6.73438 2.48635C6.74442 2.52829 6.75774 2.56978 6.77465 2.61007C6.7829 2.63029 6.79249 2.64991 6.80191 2.66983C6.81241 2.68901 6.82288 2.70833 6.83427 2.72705C6.84566 2.74592 6.856 2.76584 6.86738 2.78517C6.87907 2.80419 6.89376 2.82096 6.91156 2.83444C6.92955 2.84748 6.94902 2.85946 6.97075 2.86814C6.99545 2.87818 7.01162 2.90214 7.01027 2.92881C7.00667 2.99801 7.00128 3.12323 7.00294 3.18988C7.00592 3.28274 7.01253 3.37606 7.03154 3.47072L7.05252 3.47327C7.09371 3.38624 7.12427 3.29817 7.15123 3.2098C7.17787 3.12128 7.20051 3.03231 7.21952 2.94304C7.21982 2.94139 7.22011 2.93974 7.22041 2.93825C7.22656 2.90934 7.25172 2.88971 7.28123 2.88867C7.30296 2.88777 7.32377 2.88387 7.34383 2.87848C7.36542 2.87234 7.38502 2.862 7.40286 2.84837C7.42039 2.8343 7.43715 2.81962 7.45452 2.80599C7.4719 2.79266 7.48868 2.77827 7.50517 2.76405C7.52117 2.74892 7.53707 2.73394 7.55203 2.71806C7.58213 2.68646 7.60955 2.65246 7.63396 2.61696L7.62575 2.60842C7.58874 2.63029 7.55353 2.65246 7.51623 2.67133C7.49827 2.68152 7.47955 2.69035 7.46113 2.69934C7.44271 2.70848 7.42442 2.71746 7.4057 2.72555C7.38728 2.73394 7.36735 2.73963 7.34788 2.74562C7.32842 2.75161 7.31075 2.7603 7.29412 2.77184C7.27629 2.78472 7.25905 2.79865 7.2423 2.81527C7.24933 2.76779 7.25457 2.72031 7.25846 2.67253C7.26101 2.63418 7.26536 2.58266 7.26909 2.53743C7.27315 2.48935 7.30715 2.44815 7.35417 2.43752C7.37724 2.43243 7.39926 2.42389 7.42023 2.4182C7.44179 2.41206 7.46142 2.40172 7.47909 2.38809C7.49663 2.37401 7.51355 2.35933 7.53076 2.3457C7.5483 2.33237 7.56492 2.31799 7.58154 2.30376C7.59758 2.28863 7.61344 2.27381 7.62843 2.25778C7.65853 2.22617 7.68595 2.19217 7.7102 2.15668L7.70212 2.14829C7.66511 2.17016 7.62994 2.19233 7.59263 2.2112C7.57467 2.22123 7.55592 2.23022 7.5375 2.23921C7.51908 2.24819 7.50082 2.25733 7.4821 2.26527C7.46368 2.27366 7.44376 2.2795 7.42429 2.28549C7.40482 2.29133 7.38712 2.30017 7.37049 2.3117C7.33921 2.33417 7.30954 2.35993 7.28123 2.39902C7.29187 2.30871 7.30191 2.21809 7.31402 2.12792L7.31435 2.12447C7.32046 2.0695 7.35538 2.02052 7.40704 2.00075C7.42157 1.99521 7.43535 1.98832 7.4487 1.98083C7.468 1.9696 7.48449 1.95447 7.49827 1.93694C7.51159 1.91897 7.52418 1.90055 7.53766 1.88302C7.55114 1.86565 7.56371 1.84767 7.57631 1.8297C7.58782 1.81098 7.59967 1.7927 7.61014 1.77338C7.63144 1.73534 7.6494 1.69564 7.66406 1.65505L7.65405 1.64891C7.62378 1.67902 7.59532 1.70942 7.56404 1.73698Z" fill="url(#paint4_linear_24619_18221)"/>
<path d="M7.2473 3.73625C7.2046 3.76007 7.1598 3.78283 7.11324 3.80395C7.08042 3.81878 7.04777 3.83256 7.01511 3.84484C6.90893 3.62107 6.75884 3.3555 6.55889 3.11255C6.43995 2.96771 6.30321 2.83081 6.14759 2.71533C5.88442 2.52046 5.68865 2.47897 5.68656 2.47852C5.61749 2.46444 5.5724 2.39719 5.58588 2.32814C5.59969 2.25909 5.66601 2.21371 5.73508 2.22689C5.76322 2.23213 6.27294 2.33728 6.79238 2.99228C6.94741 3.18744 7.10303 3.43129 7.2473 3.73625Z" fill="url(#paint5_linear_24619_18221)"/>
<path d="M9.67323 4.56031C9.66017 4.56944 9.64715 4.57844 9.63396 4.58714C9.55308 4.64149 9.46741 4.68867 9.37904 4.72899C9.20873 4.80581 9.02719 4.85794 8.83997 4.87485C8.74681 4.88294 8.65199 4.8813 8.55913 4.86589C8.50281 4.85673 8.4465 4.8419 8.39408 4.81959L6.37127 3.93512C6.32196 3.9185 6.27481 3.89618 6.23315 3.86652C6.25593 3.87042 6.51579 3.92792 6.59982 3.90816C6.76817 3.86937 6.9319 3.8105 7.08932 3.73996C7.14818 3.71314 7.20613 3.68469 7.26307 3.65413C7.35831 3.60291 7.45059 3.54629 7.53851 3.48293C7.60846 3.4323 7.676 3.37763 7.73758 3.31637C7.76873 3.28581 7.79733 3.25331 7.8255 3.21901C7.8523 3.18441 7.87733 3.14756 7.89948 3.10742L8.58789 3.36625C8.68644 3.46825 8.76942 3.58868 8.83143 3.72528C8.97088 4.03279 9.19076 4.29207 9.46352 4.48139L9.67323 4.56031Z" fill="url(#paint6_linear_24619_18221)"/>
<path d="M11.581 6.25533C11.578 6.24905 11.5753 6.24277 11.5723 6.23662C11.5663 6.22431 11.56 6.21204 11.5539 6.19977C11.5482 6.18852 11.5428 6.17729 11.5369 6.1662C11.5315 6.15557 11.5258 6.14523 11.5203 6.13476C11.5136 6.12216 11.507 6.10943 11.5002 6.097C11.4948 6.08712 11.4891 6.07753 11.4838 6.06781C11.4764 6.05479 11.4692 6.04173 11.4617 6.02901C11.4566 6.02017 11.4514 6.01163 11.4462 6.00296C11.4381 5.98932 11.4301 5.9757 11.4219 5.96235C11.4171 5.95457 11.412 5.94694 11.4072 5.93915C11.3982 5.92505 11.3895 5.91098 11.3804 5.89704C11.3759 5.89001 11.3711 5.88314 11.3665 5.87607C11.3569 5.8617 11.3473 5.84718 11.3376 5.83294C11.3332 5.82666 11.3287 5.82051 11.3242 5.81423C11.314 5.79954 11.3037 5.78488 11.2932 5.77035C11.2892 5.76466 11.2849 5.75909 11.2806 5.7534C11.2697 5.73858 11.2588 5.72359 11.2476 5.70893C11.244 5.70429 11.2402 5.69964 11.2366 5.69483C11.2246 5.67958 11.2126 5.66414 11.2005 5.64902C11.1972 5.64496 11.1939 5.64107 11.1908 5.63718C11.1779 5.62144 11.1652 5.60586 11.1521 5.59045C11.1491 5.58702 11.1463 5.58371 11.1433 5.58028C11.1298 5.56454 11.1162 5.54867 11.1024 5.53322C11.1 5.53054 11.0976 5.52799 11.0952 5.52531C11.0807 5.50911 11.0662 5.49308 11.0513 5.47737C11.0495 5.47541 11.0476 5.47348 11.0456 5.47138C11.0302 5.45505 11.0148 5.43902 10.9992 5.42299C10.9977 5.42165 10.9964 5.42014 10.9949 5.4188C10.9787 5.40231 10.9624 5.38598 10.9457 5.37011C10.9448 5.36923 10.9438 5.36831 10.9429 5.36743C10.9258 5.35094 10.9086 5.33461 10.8911 5.31858C10.8906 5.31815 10.8902 5.31769 10.8897 5.3174C10.5961 5.04749 10.2543 4.83974 9.88616 4.70222C9.88528 4.70193 9.88452 4.70163 9.88364 4.70134C9.15178 4.42874 8.31629 4.43398 7.5488 4.78193C6.78461 5.12821 6.23147 5.74921 5.95289 6.47505C5.94523 6.49485 5.9379 6.51477 5.93071 6.53454C5.92949 6.53797 5.92832 6.54128 5.92711 6.54455C5.92007 6.56435 5.91333 6.58411 5.90675 6.60404C5.90554 6.60747 5.90433 6.61123 5.90315 6.61467C5.89655 6.63443 5.89043 6.65407 5.88427 6.67383C5.88306 6.67772 5.88189 6.68162 5.88068 6.68551C5.87485 6.70498 5.86916 6.72461 5.8636 6.74421C5.86242 6.74843 5.86121 6.75262 5.86 6.75664C5.85476 6.77611 5.84953 6.79545 5.84459 6.81492C5.84337 6.8194 5.8422 6.82405 5.84115 6.82856C5.83621 6.84774 5.83169 6.86704 5.82721 6.88622C5.82616 6.89116 5.82495 6.89597 5.82377 6.90075C5.81955 6.91976 5.81553 6.93893 5.81147 6.95797C5.81042 6.96321 5.80938 6.96831 5.80833 6.97339C5.8046 6.99227 5.801 7.01098 5.7977 7.02986C5.79665 7.03539 5.7956 7.04095 5.79456 7.04665C5.79141 7.06507 5.7884 7.08362 5.78543 7.10221C5.78451 7.10819 5.78346 7.11405 5.78258 7.12004C5.77986 7.1383 5.77748 7.15659 5.77492 7.17485C5.77417 7.18129 5.77329 7.18757 5.77237 7.19389C5.77015 7.21185 5.76818 7.22982 5.76625 7.24781C5.7655 7.25452 5.76475 7.26126 5.76399 7.268C5.76219 7.2857 5.76069 7.30337 5.75922 7.32104C5.7586 7.32808 5.75784 7.33527 5.75742 7.34231C5.75604 7.35968 5.755 7.37706 5.75395 7.39443C5.75352 7.40193 5.7529 7.40942 5.75261 7.41691C5.75172 7.43399 5.75097 7.45104 5.75051 7.46799C5.75022 7.47591 5.74992 7.48386 5.74963 7.49178C5.74917 7.50843 5.74901 7.52518 5.74871 7.54181C5.74871 7.55022 5.74858 7.55846 5.74858 7.56667C5.74842 7.583 5.74871 7.59933 5.74888 7.61582C5.74901 7.62449 5.74901 7.63319 5.74917 7.64187C5.74947 7.6579 5.75006 7.67393 5.75068 7.6898C5.7511 7.69893 5.75143 7.70793 5.75172 7.71706C5.75248 7.73263 5.75352 7.74837 5.75441 7.76411C5.755 7.77353 5.75562 7.78296 5.75621 7.79225C5.75725 7.80769 5.7586 7.82297 5.75997 7.83838C5.76085 7.84814 5.76161 7.85785 5.76249 7.8676C5.76399 7.88259 5.76563 7.89754 5.7673 7.91269C5.76848 7.92271 5.76952 7.93275 5.77073 7.9428C5.77253 7.95746 5.77463 7.97215 5.77659 7.98684C5.77793 7.99731 5.77928 8.00765 5.78078 8.01812C5.78301 8.03252 5.78526 8.04688 5.78765 8.06111C5.78932 8.07191 5.79096 8.08268 5.79292 8.09331C5.79531 8.10741 5.79799 8.12148 5.80054 8.13555C5.80264 8.14648 5.8046 8.15744 5.80683 8.16837C5.80954 8.18215 5.81252 8.19592 5.81537 8.20986C5.81775 8.22092 5.82018 8.23218 5.82273 8.24327C5.82571 8.25688 5.82901 8.27036 5.83231 8.28401C5.835 8.29539 5.83755 8.30675 5.84053 8.318C5.84383 8.33148 5.84743 8.34467 5.85103 8.35815C5.85401 8.36967 5.85702 8.38105 5.86016 8.39257C5.86389 8.40576 5.86778 8.41881 5.87155 8.43197C5.87498 8.44365 5.87842 8.45533 5.88189 8.46704C5.88591 8.4799 5.8901 8.4928 5.89432 8.50569C5.89805 8.5175 5.90165 8.52934 5.90571 8.54103C5.9099 8.55392 5.91438 8.56648 5.91886 8.57921C5.92308 8.59119 5.92711 8.60303 5.93129 8.61488C5.93594 8.62744 5.94075 8.64004 5.94553 8.6526C5.95004 8.66458 5.95436 8.67642 5.95901 8.68827C5.96395 8.70083 5.96905 8.71327 5.97416 8.7257C5.97894 8.73755 5.98375 8.74952 5.98869 8.76137C5.99392 8.7738 5.99945 8.78623 6.00485 8.7985C6.01009 8.81035 6.01519 8.82232 6.02043 8.83414C6.02628 8.84686 6.03211 8.8593 6.03796 8.8719C6.04303 8.88282 6.04814 8.89375 6.05324 8.90455C6.06313 8.92477 6.07301 8.94453 6.08302 8.9643C6.0841 8.96626 6.08498 8.96836 6.08603 8.97029C6.81082 10.3817 8.36469 10.5576 9.85563 9.88532C11.3927 9.19213 12.2954 7.86669 11.6174 6.33396C11.6135 6.32542 11.6099 6.31688 11.6061 6.30837C11.5977 6.29054 11.5894 6.27287 11.581 6.25533Z" fill="url(#paint7_linear_24619_18221)"/>
<path d="M6.55408 5.01638C6.53344 4.97054 6.47935 4.95032 6.43367 4.971C6.38783 4.99181 6.36748 5.04573 6.38829 5.09157C6.40897 5.13741 6.46302 5.15764 6.5087 5.13679C6.55454 5.11615 6.57493 5.06222 6.55408 5.01638Z" fill="#FFB211"/>
<path d="M7.49786 4.75468C7.46504 4.68217 7.37951 4.64997 7.30703 4.68276C7.23452 4.71571 7.20249 4.80111 7.23527 4.87358C7.26809 4.94622 7.35359 4.97829 7.4261 4.9455C7.49861 4.91252 7.53081 4.82715 7.49786 4.75468Z" fill="#FFB211"/>
<path d="M7.06593 4.51111C7.01544 4.39954 6.88394 4.3501 6.77236 4.40075C6.66075 4.4512 6.61134 4.58274 6.66196 4.69432C6.71245 4.80589 6.84395 4.85533 6.95553 4.80472C7.06714 4.75423 7.11655 4.62272 7.06593 4.51111Z" fill="#FFB211"/>
<path d="M10.4521 7.94987C10.4313 7.90419 10.3773 7.88384 10.3315 7.90465C10.2858 7.92533 10.2654 7.97925 10.2862 8.02506C10.3069 8.0709 10.361 8.09112 10.4067 8.07045C10.4525 8.04964 10.4729 7.99571 10.4521 7.94987Z" fill="#FFB211"/>
<path d="M10.9639 7.4447C10.9133 7.33325 10.782 7.28368 10.6704 7.3343C10.5588 7.38495 10.5094 7.51629 10.5598 7.6279C10.6104 7.73948 10.7418 7.78892 10.8534 7.73843C10.965 7.68781 11.0144 7.55631 10.9639 7.4447Z" fill="#FFB211"/>
<path d="M7.75476 2.97656C7.75878 3.0889 7.73287 3.1933 7.69557 3.28482C7.65797 3.37693 7.60676 3.45647 7.54953 3.52761C7.43377 3.66871 7.29071 3.77326 7.13389 3.8447C6.97647 3.91556 6.80423 3.9545 6.62165 3.94864C6.53055 3.9455 6.43651 3.93022 6.3426 3.89819C6.24912 3.86627 6.15358 3.81625 6.07178 3.73941C6.09501 3.74749 6.11703 3.75768 6.13964 3.76307C6.16166 3.77086 6.18398 3.77505 6.20583 3.7803C6.24971 3.78794 6.29271 3.79483 6.33511 3.79618C6.41989 3.80067 6.50254 3.79587 6.583 3.78344C6.74386 3.75918 6.89755 3.70975 7.04312 3.64459C7.18872 3.57839 7.32651 3.49541 7.45098 3.39011C7.51299 3.33739 7.57201 3.27957 7.62427 3.21232C7.65064 3.17907 7.67446 3.14282 7.69737 3.10448C7.71909 3.06524 7.73856 3.02329 7.75476 2.97656Z" fill="url(#paint8_radial_24619_18221)"/>
<path d="M9.81572 6.97475C10.3169 8.08077 9.93122 9.33609 8.95419 9.779C7.97729 10.2218 6.7789 9.68434 6.27772 8.57835C5.77654 7.47249 6.16221 6.21717 7.13912 5.77426C8.11615 5.33149 9.31441 5.86893 9.81572 6.97475Z" fill="url(#paint9_linear_24619_18221)"/>
<path d="M15.0339 4.77889C14.6405 5.42233 13.1176 5.12458 12.7247 5.03545C12.6651 5.02183 12.6317 5.013 12.6317 5.013C12.6317 5.013 12.6247 4.99563 12.6131 4.96385C12.606 4.94422 12.5971 4.91893 12.5869 4.88883C12.481 4.57458 12.2472 3.73863 12.5697 3.27955C12.9723 2.70633 13.1199 3.39788 13.1199 3.39788C13.1199 3.39788 13.1775 2.39268 13.6905 1.93974C14.1971 1.49279 14.1624 2.36093 14.1613 2.38355C14.1671 2.36138 14.4349 1.36907 15.0422 1.35948C15.6563 1.34945 15.2246 2.04923 15.2246 2.04923C15.2246 2.04923 15.9073 1.37386 16.3164 1.67747C16.3721 1.71881 16.404 1.76539 16.4173 1.81482C16.4175 1.81542 16.4178 1.81617 16.4179 1.81677C16.4188 1.82066 16.4199 1.82471 16.4206 1.82875C16.4217 1.8334 16.4224 1.83804 16.423 1.84283C16.4236 1.84748 16.4241 1.85227 16.4244 1.85691C16.4251 1.8662 16.4253 1.87579 16.4247 1.88537C16.4247 1.88612 16.4245 1.88672 16.4245 1.88747C16.4242 1.89181 16.4239 1.896 16.4236 1.90005C16.4227 1.90799 16.4215 1.91578 16.42 1.92387C16.4187 1.93046 16.4172 1.9372 16.4156 1.94409C16.4143 1.94903 16.4128 1.95382 16.4113 1.95877C16.4099 1.96371 16.4082 1.9688 16.4066 1.97359C16.4048 1.97853 16.403 1.98348 16.401 1.98857C16.3971 1.99846 16.3928 2.00834 16.388 2.01838C16.386 2.02272 16.3839 2.02692 16.3817 2.03126C16.3788 2.03695 16.3758 2.04249 16.3729 2.04804C16.3701 2.05313 16.3672 2.05807 16.3643 2.06301C16.3615 2.06811 16.3583 2.0729 16.3553 2.07784C16.3523 2.08293 16.349 2.08773 16.3459 2.09267C16.3297 2.11723 16.3117 2.14195 16.2924 2.16592C16.2858 2.17445 16.2788 2.18269 16.2717 2.19108C16.2666 2.19707 16.2616 2.20291 16.2563 2.2089C16.2493 2.21669 16.2422 2.22448 16.235 2.23227C16.2343 2.23332 16.2334 2.23407 16.2326 2.23497C16.23 2.23781 16.2272 2.24081 16.2246 2.2435C16.0617 2.41605 15.8577 2.55176 15.8488 2.5579C15.863 2.55445 16.3886 2.43088 16.5232 2.77793C16.6588 3.12692 15.3528 3.36523 15.3323 3.36897C15.3465 3.37272 16.0339 3.5559 15.8992 3.95178C15.7643 4.34871 14.41 4.34285 14.3891 4.34272C14.408 4.34586 15.215 4.48276 15.0339 4.77889Z" fill="url(#paint10_linear_24619_18221)"/>
<path d="M15.0338 4.77851C14.6404 5.42199 13.1175 5.1242 12.7246 5.03507C12.665 5.02146 12.6316 5.01263 12.6316 5.01263C12.6316 5.01263 12.6246 4.99525 12.613 4.96348C13.4367 3.85719 14.4569 3.03503 15.2868 2.48233C15.7422 2.17947 16.1401 1.95764 16.4174 1.81445C16.4175 1.81505 16.4177 1.81565 16.4178 1.81625C16.4189 1.82029 16.4198 1.82434 16.4205 1.82838C16.4216 1.83303 16.4223 1.83767 16.4229 1.84231C16.4235 1.8471 16.424 1.8519 16.4244 1.85654C16.425 1.86598 16.4252 1.87541 16.4246 1.88485C16.4247 1.8856 16.4244 1.88635 16.4246 1.8871C16.4243 1.89129 16.424 1.89564 16.4235 1.89968C16.4228 1.90762 16.4214 1.91541 16.4199 1.92349C16.4186 1.93009 16.4172 1.93682 16.4154 1.94372C16.4142 1.94851 16.4127 1.95345 16.4114 1.95839C16.4097 1.96334 16.4083 1.96843 16.4065 1.97322C16.4047 1.97817 16.4029 1.98311 16.4009 1.9882C16.3972 1.99794 16.3927 2.00797 16.388 2.01786C16.3859 2.0222 16.3838 2.02655 16.3816 2.03089C16.3789 2.03643 16.3759 2.04212 16.3728 2.04767C16.37 2.05261 16.3671 2.0577 16.3643 2.06264C16.3614 2.06759 16.3584 2.07253 16.3552 2.07747C16.3524 2.08241 16.3489 2.08736 16.3458 2.0923C16.3298 2.11687 16.3116 2.14158 16.2923 2.16554C16.2857 2.17393 16.2787 2.18217 16.2717 2.19071C16.2665 2.19655 16.2615 2.20239 16.2562 2.20853C16.2492 2.21632 16.2423 2.22411 16.2349 2.2319C16.2342 2.23295 16.2335 2.23369 16.2325 2.23459C16.23 2.23744 16.2272 2.24044 16.2245 2.24313C16.0617 2.41568 15.8576 2.55138 15.8487 2.55753C15.8629 2.55408 16.3886 2.43051 16.5231 2.77756C16.6587 3.12655 15.3529 3.36486 15.3323 3.3686C15.3464 3.37235 16.0338 3.55553 15.8993 3.9514C15.7642 4.34833 14.4099 4.34248 14.389 4.34235C14.4079 4.34549 15.2149 4.48239 15.0338 4.77851Z" fill="url(#paint11_linear_24619_18221)"/>
<path d="M13.0659 4.78296C13.0054 4.77501 12.9481 4.79389 12.9102 4.83492L12.9096 4.83584L12.8031 4.95114C12.7766 4.97948 12.7505 5.00808 12.7247 5.03697C12.6651 5.02349 12.6317 5.01466 12.6317 5.01466C12.6317 5.01466 12.6247 4.99728 12.6131 4.96554C12.606 4.94591 12.5971 4.92062 12.5869 4.89048C12.6061 4.8646 12.6251 4.83898 12.6444 4.81319C12.6702 4.77995 12.6957 4.74641 12.7213 4.71317C12.7499 4.676 12.7616 4.62718 12.7539 4.57656C12.6561 3.92738 13.0017 3.51669 12.9109 3.78869C12.8475 3.97817 12.8571 4.3095 12.8724 4.52368C12.9292 4.45464 12.9864 4.38632 13.0441 4.31833C13.1138 4.23866 13.1853 4.16029 13.2561 4.08137C13.2912 4.04168 13.3284 4.00408 13.3652 3.96603L13.4014 3.92873C13.4605 3.86793 13.4931 3.78435 13.4916 3.69343C13.4798 2.95725 13.8514 2.46311 13.734 2.79353C13.6483 3.03514 13.6276 3.44554 13.6237 3.70421L13.7024 3.62887L13.8763 3.46621C13.8956 3.44794 13.915 3.42996 13.9353 3.41304C13.9702 3.38278 14.0281 3.3335 14.0843 3.28542C14.1797 3.20409 14.245 3.0931 14.2735 2.96609C14.4466 2.19335 14.983 1.73622 14.7709 2.0566C14.6045 2.30764 14.4655 2.77616 14.3983 3.02884L14.4258 3.00758C14.4675 2.97492 14.51 2.94317 14.5524 2.91126C14.5949 2.87951 14.6361 2.84611 14.6807 2.8169C14.7684 2.75639 14.8564 2.69692 14.945 2.63776L15.0116 2.59402C15.0338 2.5795 15.0556 2.56437 15.079 2.55134C15.125 2.52407 15.1707 2.49666 15.2171 2.47015C15.2232 2.46656 15.2294 2.46281 15.2355 2.45937C15.2569 2.44694 15.2811 2.46401 15.2869 2.48423C15.2903 2.49472 15.2887 2.50625 15.2791 2.51479C15.2739 2.51943 15.2686 2.52407 15.2636 2.52872C15.2242 2.56392 15.1845 2.59837 15.1449 2.63297C15.1248 2.65004 15.1057 2.66787 15.0865 2.68584L15.0287 2.73976C14.9514 2.81076 14.8737 2.88131 14.7953 2.95096C14.7174 3.02106 14.6427 3.0949 14.5657 3.1656C14.5584 3.17219 14.5512 3.17878 14.544 3.18552C14.7829 3.1307 15.3041 2.99784 15.5775 2.82799C15.9169 2.61679 15.3952 3.18821 14.562 3.31598C14.4426 3.33425 14.3356 3.38697 14.2513 3.46576C14.2017 3.51234 14.1489 3.56177 14.1107 3.59787C14.0359 3.67066 13.9622 3.74496 13.8879 3.81835L13.7777 3.92621C14.0094 3.93249 14.5254 3.93442 14.8118 3.84172C15.1575 3.72968 14.6063 4.11507 13.828 4.05591C13.7241 4.04783 13.627 4.08062 13.5593 4.14907L13.5565 4.15221L13.5015 4.20793C13.4831 4.22635 13.4657 4.24612 13.4474 4.26454C13.3751 4.34006 13.3035 4.41613 13.2304 4.49086C13.1784 4.54659 13.1269 4.60247 13.0749 4.65787C13.2896 4.67767 13.6068 4.69278 13.7922 4.63631C14.0578 4.55572 13.6756 4.86322 13.0659 4.78296Z" fill="url(#paint12_linear_24619_18221)"/>
<path d="M12.9118 4.74451C12.9042 4.73685 12.8965 4.72906 12.8889 4.72157C12.24 4.08021 11.1849 4.10776 10.5696 4.78135C9.45764 5.99862 8.50727 7.36764 7.56649 8.72064C7.30093 9.10258 7.34255 9.62143 7.67044 9.95126C7.67434 9.95515 7.67823 9.95904 7.68212 9.96294C8.01195 10.2908 8.5308 10.3325 8.91274 10.0669C10.2657 9.12608 11.6347 8.17571 12.8522 7.06374C13.5257 6.44843 13.5533 5.39335 12.9118 4.74451Z" fill="url(#paint13_linear_24619_18221)"/>
<path d="M12.852 7.06433C13.5257 6.44902 13.5533 5.39395 12.9118 4.7451C12.9041 4.73744 12.8965 4.72965 12.8888 4.72219C12.7603 4.59517 12.6161 4.49452 12.4624 4.41992V7.41048C12.5937 7.29664 12.7238 7.18147 12.852 7.06433Z" fill="url(#paint14_linear_24619_18221)"/>
<path d="M11.1697 5.84375C11.3195 5.92493 11.4622 6.0172 11.6025 6.11425C11.6721 6.16336 11.741 6.21385 11.8084 6.26643C11.8752 6.31974 11.9411 6.37457 12.0055 6.4318C12.0693 6.48946 12.1354 6.54564 12.198 6.6066C12.2601 6.66769 12.316 6.73601 12.3627 6.81149C12.4092 6.88698 12.4483 6.96845 12.476 7.05474C12.503 7.14086 12.5196 7.23296 12.5091 7.32465L12.4887 7.32943C12.4417 7.25469 12.3946 7.18833 12.3452 7.12365C12.2959 7.05922 12.2453 6.99708 12.1936 6.93521C12.1414 6.87366 12.0912 6.81058 12.0427 6.74438C11.9938 6.67865 11.9435 6.61272 11.8878 6.55133C11.8324 6.48975 11.7747 6.42968 11.7158 6.37081C11.6576 6.31106 11.5973 6.25279 11.5363 6.19559C11.4145 6.08025 11.2879 5.96897 11.1582 5.86112L11.1697 5.84375Z" fill="url(#paint15_linear_24619_18221)"/>
<path d="M8.88066 7.50391C9.0333 7.58764 9.17917 7.6823 9.32239 7.7819C9.39352 7.83239 9.4639 7.88422 9.53297 7.93798C9.60126 7.99265 9.66883 8.04867 9.73473 8.10708C9.80004 8.1661 9.86757 8.22363 9.93167 8.2858C9.99535 8.34839 10.0529 8.41805 10.1011 8.49459C10.149 8.57141 10.1896 8.6541 10.2187 8.74156C10.247 8.82873 10.2648 8.92192 10.2552 9.01432L10.2349 9.01896C10.1863 8.94302 10.1378 8.87548 10.087 8.80959C10.0362 8.74398 9.98426 8.6806 9.93109 8.61755C9.87746 8.55495 9.82595 8.49053 9.77592 8.42329C9.7256 8.35634 9.67377 8.28923 9.61671 8.2266C9.55977 8.16372 9.50061 8.10243 9.44024 8.04222C9.3805 7.98127 9.31892 7.92181 9.25616 7.86324C9.1314 7.74551 9.00182 7.63168 8.86914 7.52144L8.88066 7.50391Z" fill="url(#paint16_linear_24619_18221)"/>
<path d="M11.1167 4.79688C11.3092 4.86336 11.4943 4.94588 11.6766 5.03531C11.7671 5.08099 11.8569 5.1285 11.9452 5.17912C12.0326 5.23078 12.1192 5.28471 12.204 5.34206C12.2882 5.40018 12.3751 5.4559 12.458 5.51836C12.5406 5.58158 12.6158 5.65543 12.6804 5.74063C12.7447 5.82616 12.8006 5.92145 12.8427 6.02569C12.884 6.12978 12.9128 6.24453 12.9081 6.3654L12.8834 6.37692C12.8186 6.29243 12.7543 6.21874 12.6872 6.14807C12.6204 6.07749 12.5522 6.01025 12.4826 5.9436C12.4123 5.87753 12.3445 5.80895 12.2786 5.73599C12.212 5.66364 12.1438 5.59146 12.0694 5.52644C11.9952 5.46113 11.9184 5.39838 11.8402 5.33742C11.7627 5.27512 11.6829 5.21537 11.602 5.1571C11.4409 5.0395 11.2743 4.92822 11.104 4.82233L11.1167 4.79688Z" fill="url(#paint17_linear_24619_18221)"/>
<path d="M10.665 6.21289C10.7868 6.25543 10.9026 6.30922 11.016 6.36792C11.0723 6.39802 11.1278 6.4295 11.1822 6.46304C11.236 6.49749 11.289 6.53345 11.3406 6.57177C11.3916 6.61074 11.4446 6.64788 11.4947 6.68996C11.5442 6.73236 11.5883 6.78252 11.6245 6.84109C11.6603 6.89966 11.69 6.96527 11.7098 7.03745C11.7291 7.10966 11.7396 7.1895 11.7273 7.27441L11.7101 7.28295C11.6737 7.22513 11.637 7.17481 11.598 7.12674C11.5594 7.07864 11.5195 7.03297 11.4786 6.98775C11.4373 6.94295 11.3978 6.89623 11.3599 6.84662C11.3214 6.79734 11.282 6.74807 11.2378 6.70403C11.1939 6.65985 11.1479 6.61761 11.101 6.57642C11.0546 6.5345 11.0065 6.49435 10.9577 6.45525C10.8604 6.37617 10.759 6.30173 10.6545 6.23118L10.665 6.21289Z" fill="url(#paint18_linear_24619_18221)"/>
<path d="M9.46216 7.47852C9.5634 7.50685 9.65836 7.54638 9.75079 7.59088C9.79647 7.61378 9.84156 7.6379 9.88527 7.66427C9.92856 7.69136 9.97097 7.71999 10.0119 7.75098C10.0523 7.78275 10.0947 7.81253 10.1338 7.84731C10.1727 7.88235 10.206 7.92518 10.2318 7.97639C10.2572 8.02793 10.2767 8.08666 10.287 8.15227C10.2969 8.218 10.2984 8.29185 10.2798 8.37244L10.2642 8.38203C10.2382 8.33138 10.2112 8.28779 10.1821 8.2463C10.1533 8.20498 10.1232 8.16588 10.0921 8.1274C10.0607 8.08934 10.0309 8.04936 10.0027 8.00636C9.97427 7.96383 9.94476 7.92158 9.91076 7.88445C9.8769 7.84731 9.84126 7.81194 9.80455 7.77794C9.76846 7.7429 9.73086 7.70978 9.69222 7.67788C9.61552 7.61303 9.53493 7.55282 9.45166 7.49651L9.46216 7.47852Z" fill="url(#paint19_linear_24619_18221)"/>
<path d="M8.62269 8.6543C8.72393 8.6826 8.81876 8.72216 8.91116 8.7665C8.95684 8.7894 9.00192 8.81352 9.04584 8.83989C9.08896 8.86714 9.13133 8.89574 9.17224 8.92676C9.21268 8.9585 9.25508 8.98831 9.29415 9.02306C9.33312 9.0581 9.36637 9.10097 9.39212 9.15217C9.41774 9.20371 9.43704 9.26241 9.44738 9.32801C9.45743 9.39378 9.45877 9.46747 9.44022 9.54819L9.42477 9.55778C9.39873 9.50716 9.3716 9.46341 9.34255 9.42208C9.31362 9.38076 9.28352 9.34166 9.25253 9.30315C9.22105 9.26512 9.19125 9.22511 9.16311 9.18215C9.13464 9.13961 9.10513 9.09737 9.07113 9.0602C9.0373 9.02306 9.00163 8.98772 8.96495 8.95356C8.92899 8.91868 8.89123 8.88557 8.85259 8.8535C8.77606 8.78881 8.69533 8.72861 8.61206 8.67226L8.62269 8.6543Z" fill="url(#paint20_linear_24619_18221)"/>
<path d="M9.71781 6.87891C9.86698 6.94016 10.0103 7.0128 10.1514 7.09067C10.2215 7.13023 10.2912 7.17126 10.3595 7.21442C10.4273 7.2583 10.4943 7.30381 10.5599 7.35191C10.6251 7.40044 10.6923 7.44733 10.7564 7.49916C10.8204 7.55141 10.8785 7.61132 10.9284 7.67918C10.9781 7.74718 11.0212 7.82208 11.0536 7.9028C11.0853 7.98355 11.1074 8.07147 11.1035 8.16207L11.0843 8.16927C11.0341 8.10203 10.9845 8.04284 10.9327 7.98578C10.881 7.92887 10.8283 7.87436 10.7744 7.82028C10.7202 7.76652 10.6678 7.71109 10.6167 7.65239C10.5653 7.59424 10.5124 7.53584 10.4549 7.48267C10.3975 7.42933 10.3381 7.37766 10.2776 7.32734C10.2176 7.27597 10.1559 7.22653 10.0933 7.178C9.96855 7.0802 9.83959 6.98688 9.70776 6.89733L9.71781 6.87891Z" fill="url(#paint21_linear_24619_18221)"/>
<path d="M16.492 5.46484C16.0591 5.46484 15.6481 5.55833 15.2779 5.72622C15.0171 5.8444 14.7172 5.8444 14.4563 5.72622C14.086 5.55833 13.675 5.46484 13.2421 5.46484C11.6127 5.46484 10.2838 6.80498 10.297 8.4343C10.31 10.0499 11.6236 11.3554 13.2421 11.3554C13.3922 11.3554 13.5398 11.3441 13.6839 11.3224C14.4675 11.2044 15.2666 11.2044 16.0503 11.3224C16.1944 11.3441 16.3419 11.3554 16.492 11.3554C18.1106 11.3554 19.4242 10.0499 19.4372 8.4343C19.4504 6.80498 18.1215 5.46484 16.492 5.46484Z" fill="url(#paint22_radial_24619_18221)"/>
<path d="M15.3645 5.20863H14.3694V4.31595C14.3694 4.0411 14.5921 3.81836 14.867 3.81836C15.1418 3.81836 15.3645 4.0411 15.3645 4.31595V5.20863Z" fill="url(#paint23_linear_24619_18221)"/>
<path d="M14.8981 5.13247C14.5055 4.91782 13.3082 4.4099 12.2431 5.47757C12.183 5.53777 12.1944 5.63708 12.2636 5.68155L14.1621 7.58006C14.1744 7.59907 14.1919 7.61527 14.2145 7.62603C14.6621 7.84051 15.9701 8.33122 16.8702 7.27062C16.9221 7.2092 16.9092 7.11723 16.8433 7.07423L14.8981 5.13247Z" fill="url(#paint24_linear_24619_18221)"/>
<path d="M16.0878 8.04032C16.0878 6.69348 14.8627 5.60156 13.3514 5.60156C11.8402 5.60156 10.615 6.69348 10.615 8.04032C10.615 9.38733 11.8402 10.4792 13.3514 10.4792C14.8627 10.4792 16.0878 9.38733 16.0878 8.04032Z" fill="url(#paint25_linear_24619_18221)"/>
<path d="M17.5039 5.64893L17.5057 5.64608C17.1892 5.52911 16.8479 5.46484 16.492 5.46484C16.059 5.46484 15.648 5.55833 15.2778 5.72622C15.0169 5.8444 14.7171 5.8444 14.4561 5.72622C14.1412 5.58332 13.7963 5.49465 13.4339 5.47129C13.097 5.71993 12.7939 6.10217 12.6282 6.68843C12.6068 6.76408 12.6516 6.83897 12.7212 6.85962L17.1444 11.2827C18.4495 10.9876 19.4259 9.8261 19.4372 8.43446C19.44 8.07244 19.3763 7.72508 19.2582 7.40321L17.5039 5.64893Z" fill="url(#paint26_linear_24619_18221)"/>
<path d="M14.8518 5.11725C15.1933 5.43971 15.8486 5.67834 15.1278 7.08732C15.0844 7.1721 14.9705 7.19023 14.9048 7.12119C14.5457 6.74389 13.8717 6.38919 14.639 5.14719C14.6852 5.07229 14.7878 5.05688 14.8518 5.11725Z" fill="url(#paint27_linear_24619_18221)"/>
<path d="M14.8981 5.13246C14.5056 4.91782 13.3082 4.4099 12.2431 5.47757C12.179 5.5418 12.1962 5.6504 12.278 5.68966C12.7256 5.90415 14.0336 6.39482 14.9336 5.33406C14.988 5.27012 14.9717 5.17274 14.8981 5.13246Z" fill="url(#paint28_linear_24619_18221)"/>
<path d="M14.836 5.13246C15.2286 4.91782 16.426 4.4099 17.4909 5.47757C17.5552 5.5418 17.538 5.6504 17.4562 5.68966C17.0086 5.90415 15.7006 6.39482 14.8005 5.33406C14.7461 5.27012 14.7623 5.17274 14.836 5.13246Z" fill="url(#paint29_linear_24619_18221)"/>
<path d="M14.8853 5.01368C14.4157 5.01757 13.0587 5.16406 12.6282 6.68707C12.6023 6.77872 12.6734 6.86949 12.7685 6.86366C13.2884 6.83147 14.738 6.61263 15.0208 5.18039C15.0379 5.09397 14.9733 5.01292 14.8853 5.01368Z" fill="url(#paint30_linear_24619_18221)"/>
<path d="M14.9058 5.01574C15.3751 5.03508 16.7265 5.22574 17.1071 6.76177C17.1301 6.85434 17.0559 6.94272 16.9611 6.93372C16.4426 6.88461 15.0009 6.61859 14.7648 5.17797C14.7506 5.0911 14.8179 5.01217 14.9058 5.01574Z" fill="url(#paint31_linear_24619_18221)"/>
<path d="M4.14496 6.16786C4.14496 6.16786 2.9091 4.58556 5.38036 3.96305C5.48343 3.93701 5.58843 3.9978 5.61854 4.09983C5.76365 4.59004 5.98608 5.9381 4.14496 6.16786Z" fill="url(#paint32_linear_24619_18221)"/>
<path d="M5.61835 4.10044C5.60172 4.04384 5.56187 4.00009 5.5123 3.97656C4.74032 4.93158 4.14478 6.16851 4.14478 6.16851C5.9859 5.93888 5.7635 4.59069 5.61835 4.10044Z" fill="url(#paint33_linear_24619_18221)"/>
<path d="M5.24404 4.73903C5.22516 4.74711 5.20553 4.75385 5.18639 4.76075C5.16722 4.76763 5.14817 4.77453 5.1287 4.78035C5.1094 4.78667 5.08918 4.79027 5.06925 4.794C5.04949 4.79773 5.0309 4.80447 5.01323 4.81406C4.99569 4.82394 4.97861 4.8346 4.9617 4.84746C4.97488 4.82305 4.9882 4.79864 5.00139 4.77407L5.06745 4.65513C5.08931 4.61531 5.11329 4.57726 5.13574 4.53773C5.18204 4.45969 5.23086 4.38404 5.28507 4.3114L5.26996 4.29688L5.22039 4.34524L5.19552 4.36951C5.18744 4.37789 5.18007 4.38659 5.17229 4.39513C5.14218 4.42972 5.11015 4.46359 5.08181 4.49968C5.02295 4.57052 4.96798 4.64407 4.91258 4.71746C4.90224 4.73183 4.8919 4.74623 4.88156 4.76059C4.88068 4.74577 4.87872 4.7314 4.87437 4.71684C4.86867 4.69754 4.86239 4.67791 4.85909 4.65785C4.85536 4.63792 4.8528 4.61786 4.85012 4.59764C4.8474 4.57742 4.84443 4.55704 4.84292 4.53652C4.83798 4.49532 4.83677 4.45384 4.83455 4.41117L4.823 4.40891C4.80696 4.44876 4.79394 4.49025 4.78452 4.53263C4.77958 4.55389 4.77598 4.57533 4.77221 4.59689C4.76969 4.61845 4.76698 4.64018 4.76547 4.66204C4.76384 4.68389 4.76099 4.70591 4.75906 4.72823C4.75755 4.75041 4.75978 4.77244 4.76668 4.7937C4.76802 4.79789 4.76953 4.80195 4.77103 4.80614C4.78795 4.85106 4.78092 4.90155 4.75379 4.94108L4.75337 4.94183C4.70618 5.01074 4.66047 5.08053 4.6145 5.15019C4.6127 5.12951 4.6094 5.11018 4.60508 5.09117C4.60043 5.07153 4.5931 5.05328 4.5826 5.03603C4.57213 5.01866 4.56117 5.00115 4.55308 4.98273C4.54441 4.96431 4.53692 4.94559 4.52926 4.92655C4.52164 4.90767 4.51356 4.88866 4.50695 4.86919C4.49183 4.83055 4.48044 4.79069 4.46742 4.74996L4.45574 4.75071C4.45034 4.79341 4.44795 4.8367 4.44946 4.88012C4.44988 4.90184 4.45198 4.92357 4.45378 4.94543C4.45662 4.96686 4.45947 4.98855 4.46353 5.01015C4.46742 5.03171 4.4701 5.05373 4.47387 5.07589C4.47789 5.09774 4.48568 5.11859 4.49752 5.1373C4.50292 5.14555 4.50875 5.15376 4.5149 5.16158C4.54517 5.1999 4.54546 5.25411 4.51791 5.29443C4.49438 5.32917 4.47073 5.36376 4.44733 5.39867C4.41769 5.44285 4.39043 5.48823 4.3651 5.53466C4.36317 5.51686 4.36016 5.50007 4.35643 5.48345C4.35179 5.46382 4.34446 5.44556 4.33395 5.42819C4.32348 5.41081 4.31256 5.39344 4.30444 5.37485C4.29577 5.35659 4.28828 5.33771 4.28065 5.31884C4.27287 5.29996 4.26491 5.28094 4.2583 5.26148C4.24319 5.22267 4.23167 5.18285 4.21878 5.14208L4.2071 5.14299C4.20157 5.18553 4.19931 5.22895 4.20081 5.27224C4.20124 5.29413 4.2032 5.31569 4.205 5.33755C4.20785 5.35911 4.21083 5.38084 4.21488 5.40227C4.21861 5.42384 4.22133 5.44599 4.22506 5.46801C4.22925 5.4899 4.23691 5.51071 4.24888 5.52959C4.26102 5.54801 4.2748 5.56597 4.29188 5.58184C4.31151 5.59984 4.31792 5.62785 4.30729 5.65226C4.27944 5.71531 4.23017 5.8299 4.20814 5.89249C4.17817 5.98012 4.15123 6.06925 4.1355 6.16391L4.15422 6.17366C4.22326 6.1073 4.28275 6.03613 4.33919 5.96336C4.39537 5.89056 4.44779 5.81583 4.49694 5.73926C4.49782 5.73792 4.49874 5.73658 4.49962 5.73524C4.51549 5.71066 4.54592 5.70124 4.5736 5.71066C4.59415 5.71757 4.61496 5.7213 4.63564 5.72339C4.65779 5.72535 4.67981 5.72251 4.70108 5.71623C4.72235 5.70932 4.74316 5.70153 4.76413 5.69509C4.7851 5.68881 4.80562 5.68131 4.82614 5.67398C4.84636 5.66544 4.86645 5.65736 4.88605 5.64777C4.92515 5.62903 4.96274 5.607 4.99795 5.5826L4.99331 5.57183C4.95123 5.57916 4.91049 5.58741 4.86929 5.59176C4.84891 5.59473 4.82839 5.59637 4.80801 5.59833C4.78766 5.60013 4.76757 5.60206 4.74721 5.60298C4.72699 5.60416 4.70648 5.60252 4.68639 5.60131C4.66617 5.59984 4.64657 5.60177 4.6271 5.60658C4.60596 5.61227 4.58499 5.61914 4.56359 5.6286C4.58665 5.58695 4.60851 5.54457 4.6289 5.50142C4.6449 5.46683 4.66708 5.4204 4.68671 5.37966C4.70736 5.33637 4.7535 5.31 4.80114 5.31674C4.82434 5.32005 4.84803 5.31988 4.86943 5.32214C4.89161 5.32407 4.91363 5.32139 4.9349 5.31494C4.95617 5.30804 4.97698 5.30025 4.99795 5.29384C5.01893 5.28752 5.03957 5.28003 5.05996 5.2727C5.08018 5.26432 5.1004 5.25608 5.11987 5.24649C5.1591 5.22777 5.19657 5.20575 5.23177 5.18134L5.22713 5.17055C5.18502 5.17788 5.14444 5.18612 5.10308 5.19047C5.08273 5.19348 5.06221 5.19512 5.04183 5.19705C5.02148 5.19901 5.00139 5.20081 4.98117 5.2017C4.96094 5.20307 4.94043 5.20127 4.92021 5.20006C4.89999 5.19872 4.88035 5.20052 4.86089 5.20546C4.82375 5.21534 4.78707 5.22866 4.74692 5.25519C4.78883 5.1749 4.83019 5.09401 4.87332 5.01447L4.87499 5.01133C4.89999 4.96234 4.94972 4.92926 5.00482 4.9291C5.02043 4.92894 5.03568 4.92746 5.05066 4.92521C5.07269 4.92148 5.09336 4.91336 5.11238 4.90184C5.13109 4.88987 5.14938 4.87714 5.1681 4.86559C5.18681 4.8542 5.20481 4.84177 5.22277 4.82963C5.24031 4.81631 5.25769 4.80342 5.27415 4.78919C5.30755 4.76134 5.33825 4.73065 5.36625 4.69813L5.35909 4.68883C5.32028 4.70637 5.28285 4.7245 5.24404 4.73903Z" fill="url(#paint34_linear_24619_18221)"/>
<path d="M3.96616 5.87651C3.94654 5.85194 3.92632 5.82799 3.9049 5.80446C3.89007 5.78768 3.8742 5.77181 3.85862 5.75564C3.84244 5.7399 3.82627 5.72417 3.80919 5.70921C3.79257 5.69406 3.77534 5.6797 3.75796 5.66517C3.74014 5.65123 3.72247 5.63729 3.70419 5.62443C3.64638 5.58249 3.58497 5.54607 3.52206 5.51613C3.51502 5.49859 3.50768 5.48122 3.50004 5.46384C3.46948 5.39555 3.43443 5.32874 3.39399 5.26523C3.3534 5.20188 3.30727 5.14151 3.2544 5.08805C3.24601 5.07937 3.23328 5.07741 3.22519 5.08399C3.2162 5.09135 3.21575 5.10588 3.22414 5.11664L3.22429 5.11694C3.30742 5.22285 3.36673 5.34523 3.40912 5.46953C3.34831 5.44827 3.2869 5.43299 3.22564 5.42402C3.06043 5.39886 2.89896 5.41741 2.75532 5.47313C2.61213 5.52945 2.48361 5.62322 2.39464 5.75908C2.35016 5.82661 2.3169 5.90511 2.29923 5.98989C2.29039 6.03213 2.28545 6.07647 2.28425 6.12005C2.2832 6.1617 2.2847 6.20483 2.28979 6.24887C2.30013 6.33679 2.32499 6.42982 2.36948 6.51833C2.39194 6.5625 2.41876 6.60536 2.44991 6.64472C2.48122 6.68428 2.51627 6.72067 2.55431 6.75185C2.63055 6.81461 2.71653 6.85757 2.80085 6.88035C2.88548 6.90371 2.96861 6.90747 3.04575 6.89743C3.20032 6.87632 3.32914 6.79975 3.42365 6.6976C3.44732 6.67214 3.46918 6.64505 3.48926 6.61688C3.50903 6.58903 3.52865 6.55785 3.54468 6.52628C3.57718 6.4626 3.60054 6.39415 3.61567 6.3239C3.63005 6.25754 3.63484 6.21906 3.63634 6.15061C3.63634 6.15061 3.8727 6.59666 3.67169 7.1248C3.63035 7.23369 3.74104 7.36579 3.85143 7.3384C3.85248 7.33824 3.85353 7.33794 3.85443 7.33765C4.12434 7.26874 4.52606 7.07431 4.87251 6.53524C4.92852 6.44791 4.85873 6.31163 4.74984 6.29769C4.54043 6.27102 4.23668 6.17591 3.96616 5.87651ZM3.44492 6.24766C3.4268 6.30293 3.40253 6.354 3.37242 6.39896C3.34322 6.44343 3.30457 6.48358 3.26368 6.51728C3.18205 6.58514 3.08334 6.62542 2.98314 6.62693C2.93341 6.62768 2.88368 6.61897 2.8386 6.60114C2.79321 6.58364 2.75307 6.5568 2.72072 6.52477C2.65541 6.46126 2.62156 6.37334 2.61857 6.27462C2.61767 6.24992 2.61887 6.22476 2.62186 6.19943C2.62471 6.17577 2.62935 6.15434 2.63594 6.13324C2.64912 6.09116 2.67009 6.0531 2.69795 6.01986C2.72566 5.98645 2.76071 5.95844 2.80055 5.93701C2.84025 5.91516 2.88428 5.89912 2.93086 5.88983C3.02403 5.87036 3.12483 5.8756 3.22159 5.89821C3.31401 5.91951 3.40313 5.95694 3.48776 6.00847C3.48296 6.09263 3.46948 6.17368 3.44492 6.24766Z" fill="url(#paint35_linear_24619_18221)"/>
<path d="M3.52169 5.51613C3.51466 5.49859 3.50732 5.48121 3.49968 5.46384C3.46927 5.39555 3.43422 5.32874 3.39363 5.26539C3.35304 5.20188 3.30691 5.14151 3.25418 5.08805C3.24564 5.07937 3.23306 5.07741 3.22482 5.08399C3.21584 5.09135 3.21539 5.10588 3.22378 5.11664L3.22408 5.11694C3.30706 5.22285 3.36637 5.34523 3.40876 5.46953L3.52169 5.51613Z" fill="url(#paint36_linear_24619_18221)"/>
<path d="M3.44484 6.24703C3.42672 6.3023 3.40245 6.35337 3.37235 6.3983C3.35947 6.41793 3.34464 6.43648 3.32861 6.45419L3.46791 6.6441C3.4751 6.6348 3.48229 6.62567 3.48903 6.61625C3.5088 6.58837 3.52842 6.55722 3.54445 6.52561C3.5771 6.46197 3.60032 6.39352 3.61544 6.32327C3.62983 6.25691 3.63477 6.2184 3.63626 6.14995C3.59133 6.06713 3.48768 6.00781 3.48768 6.00781C3.48289 6.092 3.46941 6.17302 3.44484 6.24703Z" fill="url(#paint37_linear_24619_18221)"/>
<path d="M4.74976 6.29769C4.54021 6.27102 4.2366 6.17591 3.96609 5.87651C3.94647 5.85194 3.92625 5.82799 3.90483 5.80446C3.89 5.78768 3.87413 5.77181 3.85855 5.75564C3.84237 5.7399 3.8262 5.72417 3.80912 5.70918C3.79249 5.69406 3.77527 5.6797 3.7579 5.66517C3.74007 5.65123 3.7224 5.63729 3.70412 5.62443C3.64631 5.58249 3.5849 5.54607 3.52199 5.51613C3.51495 5.49859 3.50761 5.48122 3.49997 5.46384C3.46941 5.39555 3.43436 5.32874 3.39392 5.26523C3.35333 5.20188 3.3072 5.14151 3.25432 5.08805C3.24594 5.07937 3.23321 5.07741 3.22512 5.08399C3.21613 5.09135 3.21568 5.10588 3.22407 5.11664L3.22422 5.11694C3.30735 5.22285 3.36666 5.34523 3.40905 5.46953C3.34824 5.44827 3.28683 5.43299 3.22557 5.42402C3.06036 5.39886 2.89889 5.41741 2.75525 5.47313C2.61206 5.52945 2.48354 5.62322 2.39457 5.75908C2.35009 5.82661 2.31683 5.90511 2.29916 5.98989C2.29032 6.03213 2.28538 6.07647 2.28418 6.12005C2.28418 6.12005 2.76918 5.36169 3.31798 5.68703C3.75355 5.94509 4.12531 6.55998 4.59891 6.88483C4.69148 6.78853 4.78362 6.67319 4.87229 6.53554C4.92831 6.44807 4.85865 6.31163 4.74976 6.29769Z" fill="url(#paint38_linear_24619_18221)"/>
<path d="M8.7994 11.8113C8.7994 12.378 8.33987 12.8373 7.77325 12.8373C7.20647 12.8373 6.74707 12.378 6.74707 11.8113C6.74707 11.2446 7.20647 10.7852 7.77325 10.7852C8.33987 10.7852 8.7994 11.2446 8.7994 11.8113Z" fill="url(#paint39_radial_24619_18221)"/>
<path d="M8.85591 10.3367C8.85591 10.9035 8.39651 11.3629 7.82973 11.3629C7.26311 11.3629 6.80371 10.9035 6.80371 10.3367C6.80371 9.77007 7.26311 9.31055 7.82973 9.31055C8.39651 9.31055 8.85591 9.77007 8.85591 10.3367Z" fill="url(#paint40_radial_24619_18221)"/>
<path d="M8.62129 8.94415C8.62129 9.51077 8.16189 9.9703 7.59511 9.9703C7.02849 9.9703 6.56909 9.51077 6.56909 8.94415C6.56909 8.37736 7.02849 7.91797 7.59511 7.91797C8.16189 7.91797 8.62129 8.37736 8.62129 8.94415Z" fill="url(#paint41_radial_24619_18221)"/>
<path d="M8.68978 7.24477C8.68978 7.81152 8.23022 8.27092 7.6636 8.27092C7.09681 8.27092 6.63745 7.81152 6.63745 7.24477C6.63745 6.67811 7.09681 6.21875 7.6636 6.21875C8.23022 6.21875 8.68978 6.67811 8.68978 7.24477Z" fill="url(#paint42_radial_24619_18221)"/>
<path d="M8.60039 11.2039C8.57343 11.1672 8.54421 11.1331 8.51365 11.1009C8.90355 10.7529 8.97245 10.159 8.65687 9.72903C8.5962 9.64618 8.5252 9.57534 8.44716 9.51647C8.68128 9.16764 8.68517 8.69568 8.42229 8.33739C8.35908 8.25111 8.2848 8.17771 8.20287 8.11751C8.22577 8.10327 8.24838 8.08845 8.27057 8.07229C8.72741 7.7369 8.82597 7.09479 8.49074 6.63779C8.15552 6.18098 7.51325 6.08242 7.05641 6.41761C6.5996 6.753 6.50088 7.3951 6.83623 7.85195C6.89945 7.93823 6.97372 8.01175 7.05566 8.07196C7.03275 8.08606 7.01014 8.10102 6.98796 8.11721C6.53114 8.45243 6.43243 9.09471 6.76778 9.55152C6.82861 9.63436 6.89945 9.70521 6.97749 9.76407C6.74337 10.1129 6.73948 10.5849 7.00235 10.9432C7.02931 10.9799 7.05837 11.014 7.08906 11.0461C6.77782 11.3239 6.67132 11.7583 6.80148 12.141L8.60114 12.4173C8.85875 12.0658 8.87194 11.574 8.60039 11.2039Z" fill="url(#paint43_linear_24619_18221)"/>
<path d="M7.38786 11.2234C7.38786 11.7902 6.92846 12.2496 6.36168 12.2496C5.79506 12.2496 5.33569 11.7902 5.33569 11.2234C5.33569 10.6568 5.79506 10.1973 6.36168 10.1973C6.92846 10.1973 7.38786 10.6568 7.38786 11.2234Z" fill="url(#paint44_radial_24619_18221)"/>
<path d="M7.18902 10.6163C6.85363 10.1595 6.21152 10.0609 5.75452 10.3962C5.40748 10.6508 5.26744 11.0825 5.36704 11.4756L7.23483 11.7625C7.44767 11.4172 7.44365 10.9634 7.18902 10.6163Z" fill="url(#paint45_linear_24619_18221)"/>
<path d="M7.22152 9.57892C7.22152 10.1455 6.76212 10.6051 6.19534 10.6051C5.62872 10.6051 5.16919 10.1455 5.16919 9.57892C5.16919 9.01213 5.62872 8.55273 6.19534 8.55273C6.76212 8.55273 7.22152 9.01213 7.22152 9.57892Z" fill="url(#paint46_radial_24619_18221)"/>
<path d="M7.24907 7.8504C7.24907 8.41715 6.78971 8.87655 6.22293 8.87655C5.6563 8.87655 5.19678 8.41715 5.19678 7.8504C5.19678 7.28375 5.6563 6.82422 6.22293 6.82422C6.78971 6.82422 7.24907 7.28375 7.24907 7.8504Z" fill="url(#paint47_radial_24619_18221)"/>
<path d="M7.34273 6.49295C7.34273 7.05957 6.88333 7.51896 6.31654 7.51896C5.74992 7.51896 5.29053 7.05957 5.29053 6.49295C5.29053 5.92616 5.74992 5.4668 6.31654 5.4668C6.88333 5.4668 7.34273 5.92616 7.34273 6.49295Z" fill="url(#paint48_radial_24619_18221)"/>
<path d="M7.29862 6.79081L5.29062 6.48242C5.28824 6.6972 5.35263 6.9144 5.48937 7.10071C5.49388 7.10686 5.49866 7.11268 5.50331 7.11871C5.14502 7.47022 5.08992 8.04061 5.39562 8.45714C5.46931 8.55766 5.55798 8.6408 5.65624 8.70578C5.63318 8.72002 5.6104 8.735 5.58825 8.75133C5.13141 9.08655 5.03285 9.72866 5.36807 10.1856C5.70343 10.6425 6.34553 10.741 6.80238 10.4058C7.25939 10.0706 7.35794 9.42835 7.02272 8.97151C6.94887 8.87099 6.86036 8.78788 6.7621 8.72286C6.785 8.70863 6.80778 8.69364 6.82993 8.67735C7.28694 8.34213 7.38549 7.69999 7.05027 7.24301C7.04579 7.23686 7.04098 7.23103 7.03633 7.22505C7.16188 7.10176 7.24993 6.95167 7.29862 6.79081Z" fill="url(#paint49_linear_24619_18221)"/>
<path d="M5.81414 10.6315C5.81414 11.1983 5.35474 11.6577 4.78812 11.6577C4.22134 11.6577 3.76196 11.1983 3.76196 10.6315C3.76196 10.0649 4.22134 9.60547 4.78812 9.60547C5.35474 9.60547 5.81414 10.0649 5.81414 10.6315Z" fill="url(#paint50_radial_24619_18221)"/>
<path d="M4.18119 9.80435C3.79923 10.0846 3.66788 10.5793 3.83084 11.0009L5.59063 11.2711C5.87268 10.9178 5.89574 10.4065 5.61549 10.0245C5.28027 9.56769 4.63803 9.46913 4.18119 9.80435Z" fill="url(#paint51_linear_24619_18221)"/>
<path d="M5.78473 8.90704C5.78473 9.47366 5.3252 9.93306 4.75858 9.93306C4.1918 9.93306 3.73242 9.47366 3.73242 8.90704C3.73242 8.34026 4.1918 7.88086 4.75858 7.88086C5.3252 7.88086 5.78473 8.34026 5.78473 8.90704Z" fill="url(#paint52_radial_24619_18221)"/>
<path d="M4.41741 10.0652C4.41741 10.6319 3.95803 11.0914 3.3914 11.0914C2.82462 11.0914 2.36523 10.6319 2.36523 10.0652C2.36523 9.49846 2.82462 9.03906 3.3914 9.03906C3.95803 9.03906 4.41741 9.49846 4.41741 10.0652Z" fill="url(#paint53_radial_24619_18221)"/>
<path d="M5.69514 7.30349C5.69514 7.87028 5.23561 8.32967 4.66899 8.32967C4.10221 8.32967 3.64282 7.87028 3.64282 7.30349C3.64282 6.73671 4.10221 6.27734 4.66899 6.27734C5.23561 6.27734 5.69514 6.73671 5.69514 7.30349Z" fill="url(#paint54_radial_24619_18221)"/>
<path d="M4.31404 8.45193C4.31404 9.01858 3.85451 9.47811 3.28788 9.47811C2.7211 9.47811 2.26172 9.01858 2.26172 8.45193C2.26172 7.88518 2.7211 7.42578 3.28788 7.42578C3.85451 7.42578 4.31404 7.88518 4.31404 8.45193Z" fill="url(#paint55_radial_24619_18221)"/>
<path d="M13.3677 20.005H7.98119C4.3852 20.005 1.46997 17.0897 1.46997 13.4937V9.2832H19.8789V13.4937C19.8789 17.0897 16.9638 20.005 13.3677 20.005Z" fill="url(#paint56_linear_24619_18221)"/>
<path d="M8.16472 9.2832V13.4937C8.16472 15.9413 6.81399 18.0732 4.81738 19.1853C5.75414 19.7072 6.83287 20.005 7.98126 20.005H13.3677C16.9637 20.005 19.879 17.0897 19.879 13.4937V9.2832H8.16472Z" fill="url(#paint57_linear_24619_18221)"/>
<path d="M10.9809 9.2832V13.4937C10.9809 16.4813 8.9686 18.9989 6.22534 19.7652C6.78388 19.9212 7.37265 20.005 7.98109 20.005H13.3676C16.9636 20.005 19.8788 17.0897 19.8788 13.4937V9.2832H10.9809Z" fill="url(#paint58_linear_24619_18221)"/>
<path d="M13.8379 9.2832V13.4937C13.8379 16.9801 11.0979 19.8263 7.65381 19.9967C7.76211 20.0021 7.8713 20.005 7.98095 20.005H13.3674C16.9636 20.005 19.8787 17.0897 19.8787 13.4937V9.2832H13.8379Z" fill="url(#paint59_linear_24619_18221)"/>
<path d="M16.7082 9.2832V13.4937C16.7082 17.0897 13.7931 20.005 10.197 20.005H13.3676C16.9636 20.005 19.8788 17.0897 19.8788 13.4937V9.2832H16.7082Z" fill="url(#paint60_linear_24619_18221)"/>
<path d="M13.1842 9.2832V13.4937C13.1842 15.9413 14.5349 18.0732 16.5315 19.1853C15.5948 19.7072 14.5161 20.005 13.3677 20.005H7.98118C4.3852 20.005 1.46997 17.0897 1.46997 13.4937V9.2832H13.1842Z" fill="url(#paint61_linear_24619_18221)"/>
<path d="M10.3678 9.2832V13.4937C10.3678 16.4813 12.3802 18.9989 15.1234 19.7652C14.5649 19.9212 13.9761 20.005 13.3677 20.005H7.98118C4.3852 20.005 1.46997 17.0897 1.46997 13.4937V9.2832H10.3678Z" fill="url(#paint62_linear_24619_18221)"/>
<path d="M7.51073 9.2832V13.4937C7.51073 16.9801 10.2507 19.8263 13.6948 19.9967C13.5865 20.0021 13.4773 20.005 13.3677 20.005H7.98118C4.3852 20.005 1.46997 17.0897 1.46997 13.4937V9.2832H7.51073Z" fill="url(#paint63_linear_24619_18221)"/>
<path d="M4.64058 9.2832V13.4937C4.64058 17.0897 7.55565 20.005 11.1518 20.005H7.98118C4.3852 20.005 1.46997 17.0897 1.46997 13.4937V9.2832H4.64058Z" fill="url(#paint64_linear_24619_18221)"/>
<path d="M1.46997 9.2832V10.8887L10.5862 20.005H13.3677C16.9638 20.005 19.8789 17.0897 19.8789 13.4937V9.2832H1.46997Z" fill="url(#paint65_linear_24619_18221)"/>
<path d="M19.1234 11.0351H2.22522C1.47032 11.0351 0.858154 10.4231 0.858154 9.66788C0.858154 8.91282 1.47032 8.30078 2.22522 8.30078H19.1233C19.8783 8.30078 20.4905 8.91295 20.4905 9.66788C20.4905 10.4231 19.8783 11.0351 19.1234 11.0351Z" fill="url(#paint66_linear_24619_18221)"/>
</g>
<defs>
<radialGradient id="paint0_radial_24619_18221" cx="0" cy="0" r="1" gradientUnits="userSpaceOnUse" gradientTransform="translate(6.29732 6.23485) rotate(-24.3814) scale(6.00291)">
<stop stop-color="#FFE548"/>
<stop offset="0.5071" stop-color="#FFE346"/>
<stop offset="0.6898" stop-color="#FFDD3F"/>
<stop offset="0.82" stop-color="#FFD234"/>
<stop offset="0.9245" stop-color="#FFC223"/>
<stop offset="1" stop-color="#FFB211"/>
</radialGradient>
<linearGradient id="paint1_linear_24619_18221" x1="8.18291" y1="3.8312" x2="7.3578" y2="3.0013" gradientUnits="userSpaceOnUse">
<stop stop-color="#FFB211" stop-opacity="0"/>
<stop offset="0.1722" stop-color="#FFAD13" stop-opacity="0.172549"/>
<stop offset="0.383" stop-color="#FF9E1A" stop-opacity="0.384314"/>
<stop offset="0.614" stop-color="#FF8525" stop-opacity="0.615686"/>
<stop offset="0.8577" stop-color="#FF6334" stop-opacity="0.858824"/>
<stop offset="1" stop-color="#FF4B3E"/>
</linearGradient>
<linearGradient id="paint2_linear_24619_18221" x1="7.06884" y1="2.14572" x2="8.60935" y2="2.49666" gradientUnits="userSpaceOnUse">
<stop stop-color="#7AC943"/>
<stop offset="0.4564" stop-color="#5FC146"/>
<stop offset="1" stop-color="#39B54A"/>
</linearGradient>
<linearGradient id="paint3_linear_24619_18221" x1="7.92657" y1="2.24929" x2="6.68146" y2="2.147" gradientUnits="userSpaceOnUse">
<stop stop-color="#39B54A" stop-opacity="0"/>
<stop offset="0.1072" stop-color="#2FAB48" stop-opacity="0.105882"/>
<stop offset="0.4553" stop-color="#159043" stop-opacity="0.454902"/>
<stop offset="0.7642" stop-color="#06803F" stop-opacity="0.764706"/>
<stop offset="1" stop-color="#007A3E"/>
</linearGradient>
<linearGradient id="paint4_linear_24619_18221" x1="6.92942" y1="2.3096" x2="7.31225" y2="2.41381" gradientUnits="userSpaceOnUse">
<stop stop-color="#39B54A" stop-opacity="0"/>
<stop offset="0.1072" stop-color="#2FAB48" stop-opacity="0.105882"/>
<stop offset="0.4553" stop-color="#159043" stop-opacity="0.454902"/>
<stop offset="0.7642" stop-color="#06803F" stop-opacity="0.764706"/>
<stop offset="1" stop-color="#007A3E"/>
</linearGradient>
<linearGradient id="paint5_linear_24619_18221" x1="5.96082" y1="3.21286" x2="6.83116" y2="2.81839" gradientUnits="userSpaceOnUse">
<stop stop-color="#C08552"/>
<stop offset="1" stop-color="#895738"/>
</linearGradient>
<linearGradient id="paint6_linear_24619_18221" x1="8.3663" y1="4.44157" x2="6.48275" y2="2.81606" gradientUnits="userSpaceOnUse">
<stop stop-color="#FFB211" stop-opacity="0"/>
<stop offset="0.1722" stop-color="#FFAD13" stop-opacity="0.172549"/>
<stop offset="0.383" stop-color="#FF9E1A" stop-opacity="0.384314"/>
<stop offset="0.614" stop-color="#FF8525" stop-opacity="0.615686"/>
<stop offset="0.8577" stop-color="#FF6334" stop-opacity="0.858824"/>
<stop offset="1" stop-color="#FF4B3E"/>
</linearGradient>
<linearGradient id="paint7_linear_24619_18221" x1="8.92368" y1="7.17746" x2="12.3297" y2="3.92583" gradientUnits="userSpaceOnUse">
<stop stop-color="#FFB211" stop-opacity="0"/>
<stop offset="0.1722" stop-color="#FFAD13" stop-opacity="0.172549"/>
<stop offset="0.383" stop-color="#FF9E1A" stop-opacity="0.384314"/>
<stop offset="0.614" stop-color="#FF8525" stop-opacity="0.615686"/>
<stop offset="0.8577" stop-color="#FF6334" stop-opacity="0.858824"/>
<stop offset="1" stop-color="#FF4B3E"/>
</linearGradient>
<radialGradient id="paint8_radial_24619_18221" cx="0" cy="0" r="1" gradientUnits="userSpaceOnUse" gradientTransform="translate(6.72939 2.67253) rotate(-24.3814) scale(1.29559)">
<stop stop-color="#FFE548"/>
<stop offset="0.5071" stop-color="#FFE346"/>
<stop offset="0.6898" stop-color="#FFDD3F"/>
<stop offset="0.82" stop-color="#FFD234"/>
<stop offset="0.9245" stop-color="#FFC223"/>
<stop offset="1" stop-color="#FFB211"/>
</radialGradient>
<linearGradient id="paint9_linear_24619_18221" x1="7.70351" y1="7.71872" x2="3.16241" y2="6.95067" gradientUnits="userSpaceOnUse">
<stop offset="0.0013" stop-color="#E7EEED" stop-opacity="0"/>
<stop offset="0.7731" stop-color="#F9FBFA" stop-opacity="0.772549"/>
<stop offset="1" stop-color="white"/>
</linearGradient>
<linearGradient id="paint10_linear_24619_18221" x1="13.3795" y1="2.24805" x2="15.5081" y2="4.37655" gradientUnits="userSpaceOnUse">
<stop stop-color="#7AC943"/>
<stop offset="0.4564" stop-color="#5FC146"/>
<stop offset="1" stop-color="#39B54A"/>
</linearGradient>
<linearGradient id="paint11_linear_24619_18221" x1="15.1663" y1="4.05539" x2="14.1938" y2="3.08289" gradientUnits="userSpaceOnUse">
<stop stop-color="#39B54A" stop-opacity="0"/>
<stop offset="0.1072" stop-color="#2FAB48" stop-opacity="0.105882"/>
<stop offset="0.4553" stop-color="#159043" stop-opacity="0.454902"/>
<stop offset="0.7642" stop-color="#06803F" stop-opacity="0.764706"/>
<stop offset="1" stop-color="#007A3E"/>
</linearGradient>
<linearGradient id="paint12_linear_24619_18221" x1="13.6779" y1="1.83516" x2="14.3046" y2="4.58353" gradientUnits="userSpaceOnUse">
<stop stop-color="#39B54A" stop-opacity="0"/>
<stop offset="0.1072" stop-color="#2FAB48" stop-opacity="0.105882"/>
<stop offset="0.4553" stop-color="#159043" stop-opacity="0.454902"/>
<stop offset="0.7642" stop-color="#06803F" stop-opacity="0.764706"/>
<stop offset="1" stop-color="#007A3E"/>
</linearGradient>
<linearGradient id="paint13_linear_24619_18221" x1="9.22702" y1="6.28371" x2="12.4058" y2="9.46254" gradientUnits="userSpaceOnUse">
<stop stop-color="#FFB211"/>
<stop offset="1" stop-color="#FF4B3E"/>
</linearGradient>
<linearGradient id="paint14_linear_24619_18221" x1="12.915" y1="5.98324" x2="12.9257" y2="3.72304" gradientUnits="userSpaceOnUse">
<stop stop-color="#FF4B3E" stop-opacity="0"/>
<stop offset="0.1177" stop-color="#F5493B" stop-opacity="0.117647"/>
<stop offset="0.3191" stop-color="#DA4332" stop-opacity="0.317647"/>
<stop offset="0.5796" stop-color="#AD3923" stop-opacity="0.580392"/>
<stop offset="0.886" stop-color="#702C0F" stop-opacity="0.886275"/>
<stop offset="1" stop-color="#582707"/>
</linearGradient>
<linearGradient id="paint15_linear_24619_18221" x1="12.0055" y1="6.40949" x2="11.6366" y2="6.79526" gradientUnits="userSpaceOnUse">
<stop stop-color="#FF4B3E" stop-opacity="0"/>
<stop offset="0.1177" stop-color="#F5493B" stop-opacity="0.117647"/>
<stop offset="0.3191" stop-color="#DA4332" stop-opacity="0.317647"/>
<stop offset="0.5796" stop-color="#AD3923" stop-opacity="0.580392"/>
<stop offset="0.886" stop-color="#702C0F" stop-opacity="0.886275"/>
<stop offset="1" stop-color="#582707"/>
</linearGradient>
<linearGradient id="paint16_linear_24619_18221" x1="9.73437" y1="8.0847" x2="9.36594" y2="8.47103" gradientUnits="userSpaceOnUse">
<stop stop-color="#FF4B3E" stop-opacity="0"/>
<stop offset="0.1177" stop-color="#F5493B" stop-opacity="0.117647"/>
<stop offset="0.3191" stop-color="#DA4332" stop-opacity="0.317647"/>
<stop offset="0.5796" stop-color="#AD3923" stop-opacity="0.580392"/>
<stop offset="0.886" stop-color="#702C0F" stop-opacity="0.886275"/>
<stop offset="1" stop-color="#582707"/>
</linearGradient>
<linearGradient id="paint17_linear_24619_18221" x1="12.202" y1="5.31324" x2="11.7702" y2="5.89743" gradientUnits="userSpaceOnUse">
<stop stop-color="#FF4B3E" stop-opacity="0"/>
<stop offset="0.1177" stop-color="#F5493B" stop-opacity="0.117647"/>
<stop offset="0.3191" stop-color="#DA4332" stop-opacity="0.317647"/>
<stop offset="0.5796" stop-color="#AD3923" stop-opacity="0.580392"/>
<stop offset="0.886" stop-color="#702C0F" stop-opacity="0.886275"/>
<stop offset="1" stop-color="#582707"/>
</linearGradient>
<linearGradient id="paint18_linear_24619_18221" x1="11.3423" y1="6.55714" x2="10.9996" y2="6.99416" gradientUnits="userSpaceOnUse">
<stop stop-color="#FF4B3E" stop-opacity="0"/>
<stop offset="0.1177" stop-color="#F5493B" stop-opacity="0.117647"/>
<stop offset="0.3191" stop-color="#DA4332" stop-opacity="0.317647"/>
<stop offset="0.5796" stop-color="#AD3923" stop-opacity="0.580392"/>
<stop offset="0.886" stop-color="#702C0F" stop-opacity="0.886275"/>
<stop offset="1" stop-color="#582707"/>
</linearGradient>
<linearGradient id="paint19_linear_24619_18221" x1="10.0147" y1="7.7372" x2="9.66542" y2="8.16804" gradientUnits="userSpaceOnUse">
<stop stop-color="#FF4B3E" stop-opacity="0"/>
<stop offset="0.1177" stop-color="#F5493B" stop-opacity="0.117647"/>
<stop offset="0.3191" stop-color="#DA4332" stop-opacity="0.317647"/>
<stop offset="0.5796" stop-color="#AD3923" stop-opacity="0.580392"/>
<stop offset="0.886" stop-color="#702C0F" stop-opacity="0.886275"/>
<stop offset="1" stop-color="#582707"/>
</linearGradient>
<linearGradient id="paint20_linear_24619_18221" x1="9.17518" y1="8.91292" x2="8.82586" y2="9.34375" gradientUnits="userSpaceOnUse">
<stop stop-color="#FF4B3E" stop-opacity="0"/>
<stop offset="0.1177" stop-color="#F5493B" stop-opacity="0.117647"/>
<stop offset="0.3191" stop-color="#DA4332" stop-opacity="0.317647"/>
<stop offset="0.5796" stop-color="#AD3923" stop-opacity="0.580392"/>
<stop offset="0.886" stop-color="#702C0F" stop-opacity="0.886275"/>
<stop offset="1" stop-color="#582707"/>
</linearGradient>
<linearGradient id="paint21_linear_24619_18221" x1="10.5602" y1="7.33624" x2="10.2232" y2="7.7782" gradientUnits="userSpaceOnUse">
<stop stop-color="#FF4B3E" stop-opacity="0"/>
<stop offset="0.1177" stop-color="#F5493B" stop-opacity="0.117647"/>
<stop offset="0.3191" stop-color="#DA4332" stop-opacity="0.317647"/>
<stop offset="0.5796" stop-color="#AD3923" stop-opacity="0.580392"/>
<stop offset="0.886" stop-color="#702C0F" stop-opacity="0.886275"/>
<stop offset="1" stop-color="#582707"/>
</linearGradient>
<radialGradient id="paint22_radial_24619_18221" cx="0" cy="0" r="1" gradientUnits="userSpaceOnUse" gradientTransform="translate(13.9942 4.08986) scale(8.17624)">
<stop stop-color="#FF4B3E"/>
<stop offset="0.4462" stop-color="#FD4A3D"/>
<stop offset="0.6069" stop-color="#F64939"/>
<stop offset="0.7215" stop-color="#EB4533"/>
<stop offset="0.8141" stop-color="#DA412A"/>
<stop offset="0.8935" stop-color="#C43A1F"/>
<stop offset="0.9625" stop-color="#A93311"/>
<stop offset="1" stop-color="#972E07"/>
</radialGradient>
<linearGradient id="paint23_linear_24619_18221" x1="14.6606" y1="4.51408" x2="15.3625" y2="4.5237" gradientUnits="userSpaceOnUse">
<stop stop-color="#7AC943"/>
<stop offset="0.4564" stop-color="#5FC146"/>
<stop offset="1" stop-color="#39B54A"/>
</linearGradient>
<linearGradient id="paint24_linear_24619_18221" x1="14.4433" y1="6.26803" x2="12.2456" y2="4.07026" gradientUnits="userSpaceOnUse">
<stop stop-color="#972E07" stop-opacity="0"/>
<stop offset="1" stop-color="#582707"/>
</linearGradient>
<linearGradient id="paint25_linear_24619_18221" x1="12.9743" y1="7.78625" x2="7.98351" y2="4.42228" gradientUnits="userSpaceOnUse">
<stop offset="0.0013" stop-color="#E7EEED" stop-opacity="0"/>
<stop offset="0.7731" stop-color="#F9FBFA" stop-opacity="0.772549"/>
<stop offset="1" stop-color="white"/>
</linearGradient>
<linearGradient id="paint26_linear_24619_18221" x1="16.3884" y1="8.25702" x2="14.3305" y2="2.83852" gradientUnits="userSpaceOnUse">
<stop stop-color="#972E07" stop-opacity="0"/>
<stop offset="1" stop-color="#582707"/>
</linearGradient>
<linearGradient id="paint27_linear_24619_18221" x1="14.5516" y1="6.16166" x2="15.4861" y2="6.04854" gradientUnits="userSpaceOnUse">
<stop stop-color="#7AC943"/>
<stop offset="0.4564" stop-color="#5FC146"/>
<stop offset="1" stop-color="#39B54A"/>
</linearGradient>
<linearGradient id="paint28_linear_24619_18221" x1="13.4197" y1="4.93303" x2="13.727" y2="5.81855" gradientUnits="userSpaceOnUse">
<stop stop-color="#7AC943"/>
<stop offset="0.4564" stop-color="#5FC146"/>
<stop offset="1" stop-color="#39B54A"/>
</linearGradient>
<linearGradient id="paint29_linear_24619_18221" x1="16.3144" y1="4.933" x2="16.0072" y2="5.81855" gradientUnits="userSpaceOnUse">
<stop stop-color="#7AC943"/>
<stop offset="0.4564" stop-color="#5FC146"/>
<stop offset="1" stop-color="#39B54A"/>
</linearGradient>
<linearGradient id="paint30_linear_24619_18221" x1="13.4282" y1="5.58665" x2="14.1625" y2="6.24122" gradientUnits="userSpaceOnUse">
<stop stop-color="#7AC943"/>
<stop offset="0.4564" stop-color="#5FC146"/>
<stop offset="1" stop-color="#39B54A"/>
</linearGradient>
<linearGradient id="paint31_linear_24619_18221" x1="16.3434" y1="5.63596" x2="15.5882" y2="6.26622" gradientUnits="userSpaceOnUse">
<stop stop-color="#7AC943"/>
<stop offset="0.4564" stop-color="#5FC146"/>
<stop offset="1" stop-color="#39B54A"/>
</linearGradient>
<linearGradient id="paint32_linear_24619_18221" x1="4.6398" y1="4.94251" x2="5.94914" y2="5.81386" gradientUnits="userSpaceOnUse">
<stop stop-color="#7AC943"/>
<stop offset="0.4564" stop-color="#5FC146"/>
<stop offset="1" stop-color="#39B54A"/>
</linearGradient>
<linearGradient id="paint33_linear_24619_18221" x1="5.40069" y1="5.34336" x2="4.27821" y2="4.80783" gradientUnits="userSpaceOnUse">
<stop stop-color="#39B54A" stop-opacity="0"/>
<stop offset="0.1072" stop-color="#2FAB48" stop-opacity="0.105882"/>
<stop offset="0.4553" stop-color="#159043" stop-opacity="0.454902"/>
<stop offset="0.7642" stop-color="#06803F" stop-opacity="0.764706"/>
<stop offset="1" stop-color="#007A3E"/>
</linearGradient>
<linearGradient id="paint34_linear_24619_18221" x1="4.45237" y1="5.04575" x2="4.77175" y2="5.2781" gradientUnits="userSpaceOnUse">
<stop stop-color="#39B54A" stop-opacity="0"/>
<stop offset="0.1072" stop-color="#2FAB48" stop-opacity="0.105882"/>
<stop offset="0.4553" stop-color="#159043" stop-opacity="0.454902"/>
<stop offset="0.7642" stop-color="#06803F" stop-opacity="0.764706"/>
<stop offset="1" stop-color="#007A3E"/>
</linearGradient>
<linearGradient id="paint35_linear_24619_18221" x1="3.1144" y1="6.36559" x2="3.86771" y2="6.09649" gradientUnits="userSpaceOnUse">
<stop stop-color="#C08552"/>
<stop offset="1" stop-color="#895738"/>
</linearGradient>
<linearGradient id="paint36_linear_24619_18221" x1="3.38224" y1="5.17397" x2="3.34539" y2="5.56655" gradientUnits="userSpaceOnUse">
<stop stop-color="#895738" stop-opacity="0"/>
<stop offset="1" stop-color="#5E3023"/>
</linearGradient>
<linearGradient id="paint37_linear_24619_18221" x1="3.46573" y1="6.41731" x2="3.59517" y2="6.04747" gradientUnits="userSpaceOnUse">
<stop stop-color="#895738" stop-opacity="0"/>
<stop offset="1" stop-color="#5E3023"/>
</linearGradient>
<linearGradient id="paint38_linear_24619_18221" x1="3.31678" y1="5.99552" x2="4.40354" y2="7.04444" gradientUnits="userSpaceOnUse">
<stop stop-color="#895738" stop-opacity="0"/>
<stop offset="1" stop-color="#5E3023"/>
</linearGradient>
<radialGradient id="paint39_radial_24619_18221" cx="0" cy="0" r="1" gradientUnits="userSpaceOnUse" gradientTransform="translate(7.01286 11.673) rotate(-36.2717) scale(1.64456)">
<stop stop-color="#A4508B"/>
<stop offset="0.255" stop-color="#9E4A8D"/>
<stop offset="0.59" stop-color="#8E3A94"/>
<stop offset="0.9681" stop-color="#73209F"/>
<stop offset="1" stop-color="#701DA0"/>
</radialGradient>
<radialGradient id="paint40_radial_24619_18221" cx="0" cy="0" r="1" gradientUnits="userSpaceOnUse" gradientTransform="translate(7.12349 10.3665) rotate(-36.2717) scale(1.64457)">
<stop stop-color="#A4508B"/>
<stop offset="0.2732" stop-color="#9B478F"/>
<stop offset="0.7168" stop-color="#833098"/>
<stop offset="1" stop-color="#701DA0"/>
</radialGradient>
<radialGradient id="paint41_radial_24619_18221" cx="0" cy="0" r="1" gradientUnits="userSpaceOnUse" gradientTransform="translate(6.80632 8.86146) rotate(-36.2717) scale(1.64458)">
<stop stop-color="#A4508B"/>
<stop offset="0.2591" stop-color="#9F4B8D"/>
<stop offset="0.5684" stop-color="#903D93"/>
<stop offset="0.9021" stop-color="#78259D"/>
<stop offset="1" stop-color="#701DA0"/>
</radialGradient>
<radialGradient id="paint42_radial_24619_18221" cx="0" cy="0" r="1" gradientUnits="userSpaceOnUse" gradientTransform="translate(6.99247 7.11038) rotate(-36.2717) scale(1.64457)">
<stop stop-color="#A4508B"/>
<stop offset="0.328" stop-color="#A14D8C"/>
<stop offset="0.5737" stop-color="#974490"/>
<stop offset="0.7918" stop-color="#873497"/>
<stop offset="0.994" stop-color="#711EA0"/>
<stop offset="1" stop-color="#701DA0"/>
</radialGradient>
<linearGradient id="paint43_linear_24619_18221" x1="8.19848" y1="9.32018" x2="6.06164" y2="9.24983" gradientUnits="userSpaceOnUse">
<stop stop-color="#701DA0" stop-opacity="0"/>
<stop offset="1" stop-color="#2F004E"/>
</linearGradient>
<radialGradient id="paint44_radial_24619_18221" cx="0" cy="0" r="1" gradientUnits="userSpaceOnUse" gradientTransform="translate(5.69068 11.089) rotate(-36.2717) scale(1.64457)">
<stop stop-color="#A4508B"/>
<stop offset="0.2561" stop-color="#9D498E"/>
<stop offset="0.6193" stop-color="#8B3795"/>
<stop offset="1" stop-color="#701DA0"/>
</radialGradient>
<linearGradient id="paint45_linear_24619_18221" x1="6.6045" y1="11.1783" x2="4.99759" y2="10.2713" gradientUnits="userSpaceOnUse">
<stop stop-color="#701DA0" stop-opacity="0"/>
<stop offset="1" stop-color="#2F004E"/>
</linearGradient>
<radialGradient id="paint46_radial_24619_18221" cx="0" cy="0" r="1" gradientUnits="userSpaceOnUse" gradientTransform="translate(5.52427 9.4444) rotate(-36.2717) scale(1.64457)">
<stop stop-color="#A4508B"/>
<stop offset="0.2581" stop-color="#9F4B8D"/>
<stop offset="0.571" stop-color="#903C93"/>
<stop offset="0.9111" stop-color="#78249D"/>
<stop offset="1" stop-color="#701DA0"/>
</radialGradient>
<radialGradient id="paint47_radial_24619_18221" cx="0" cy="0" r="1" gradientUnits="userSpaceOnUse" gradientTransform="translate(5.55183 7.71598) rotate(-36.2717) scale(1.64457)">
<stop stop-color="#A4508B"/>
<stop offset="0.328" stop-color="#A14D8C"/>
<stop offset="0.5737" stop-color="#974490"/>
<stop offset="0.7918" stop-color="#873497"/>
<stop offset="0.994" stop-color="#711EA0"/>
<stop offset="1" stop-color="#701DA0"/>
</radialGradient>
<radialGradient id="paint48_radial_24619_18221" cx="0" cy="0" r="1" gradientUnits="userSpaceOnUse" gradientTransform="translate(5.64551 6.35853) rotate(-36.2717) scale(1.64457)">
<stop stop-color="#A4508B"/>
<stop offset="0.328" stop-color="#A14D8C"/>
<stop offset="0.5737" stop-color="#974490"/>
<stop offset="0.7918" stop-color="#873497"/>
<stop offset="0.994" stop-color="#711EA0"/>
<stop offset="1" stop-color="#701DA0"/>
</radialGradient>
<linearGradient id="paint49_linear_24619_18221" x1="6.54127" y1="8.67237" x2="3.83797" y2="8.25735" gradientUnits="userSpaceOnUse">
<stop stop-color="#701DA0" stop-opacity="0"/>
<stop offset="1" stop-color="#2F004E"/>
</linearGradient>
<radialGradient id="paint50_radial_24619_18221" cx="0" cy="0" r="1" gradientUnits="userSpaceOnUse" gradientTransform="translate(4.27755 10.6215) rotate(-36.2716) scale(1.64457)">
<stop stop-color="#A4508B"/>
<stop offset="0.328" stop-color="#A14D8C"/>
<stop offset="0.5737" stop-color="#974490"/>
<stop offset="0.7918" stop-color="#873497"/>
<stop offset="0.994" stop-color="#711EA0"/>
<stop offset="1" stop-color="#701DA0"/>
</radialGradient>
<linearGradient id="paint51_linear_24619_18221" x1="5.29827" y1="10.5686" x2="2.22806" y2="9.67966" gradientUnits="userSpaceOnUse">
<stop stop-color="#701DA0" stop-opacity="0"/>
<stop offset="1" stop-color="#2F004E"/>
</linearGradient>
<radialGradient id="paint52_radial_24619_18221" cx="0" cy="0" r="1" gradientUnits="userSpaceOnUse" gradientTransform="translate(4.26228 8.86925) rotate(-36.2717) scale(1.64458)">
<stop stop-color="#A4508B"/>
<stop offset="0.328" stop-color="#A14D8C"/>
<stop offset="0.5737" stop-color="#974490"/>
<stop offset="0.7918" stop-color="#873497"/>
<stop offset="0.994" stop-color="#711EA0"/>
<stop offset="1" stop-color="#701DA0"/>
</radialGradient>
<radialGradient id="paint53_radial_24619_18221" cx="0" cy="0" r="1" gradientUnits="userSpaceOnUse" gradientTransform="translate(3.07957 9.99584) rotate(-36.2717) scale(1.64457)">
<stop stop-color="#A4508B"/>
<stop offset="0.328" stop-color="#A14D8C"/>
<stop offset="0.5737" stop-color="#974490"/>
<stop offset="0.7918" stop-color="#873497"/>
<stop offset="0.994" stop-color="#711EA0"/>
<stop offset="1" stop-color="#701DA0"/>
</radialGradient>
<radialGradient id="paint54_radial_24619_18221" cx="0" cy="0" r="1" gradientUnits="userSpaceOnUse" gradientTransform="translate(4.13666 7.24031) rotate(-36.2717) scale(1.64457)">
<stop stop-color="#A4508B"/>
<stop offset="0.328" stop-color="#A14D8C"/>
<stop offset="0.5737" stop-color="#974490"/>
<stop offset="0.7918" stop-color="#873497"/>
<stop offset="0.994" stop-color="#711EA0"/>
<stop offset="1" stop-color="#701DA0"/>
</radialGradient>
<radialGradient id="paint55_radial_24619_18221" cx="0" cy="0" r="1" gradientUnits="userSpaceOnUse" gradientTransform="translate(2.84259 8.34222) rotate(-36.2717) scale(1.64458)">
<stop stop-color="#A4508B"/>
<stop offset="0.328" stop-color="#A14D8C"/>
<stop offset="0.5737" stop-color="#974490"/>
<stop offset="0.7918" stop-color="#873497"/>
<stop offset="0.994" stop-color="#711EA0"/>
<stop offset="1" stop-color="#701DA0"/>
</radialGradient>
<linearGradient id="paint56_linear_24619_18221" x1="10.6991" y1="12.0142" x2="14.2537" y2="22.1858" gradientUnits="userSpaceOnUse">
<stop stop-color="#C08552"/>
<stop offset="1" stop-color="#895738"/>
</linearGradient>
<linearGradient id="paint57_linear_24619_18221" x1="12.3482" y1="12.9544" x2="12.3482" y2="29.3624" gradientUnits="userSpaceOnUse">
<stop stop-color="#895738" stop-opacity="0"/>
<stop offset="1" stop-color="#5E3023"/>
</linearGradient>
<linearGradient id="paint58_linear_24619_18221" x1="13.0521" y1="14.0972" x2="13.0521" y2="25.6891" gradientUnits="userSpaceOnUse">
<stop stop-color="#895738" stop-opacity="0"/>
<stop offset="1" stop-color="#5E3023"/>
</linearGradient>
<linearGradient id="paint59_linear_24619_18221" x1="13.7662" y1="11.485" x2="13.7662" y2="24.587" gradientUnits="userSpaceOnUse">
<stop stop-color="#895738" stop-opacity="0"/>
<stop offset="1" stop-color="#5E3023"/>
</linearGradient>
<linearGradient id="paint60_linear_24619_18221" x1="15.038" y1="10.832" x2="15.038" y2="26.9135" gradientUnits="userSpaceOnUse">
<stop stop-color="#895738" stop-opacity="0"/>
<stop offset="1" stop-color="#5E3023"/>
</linearGradient>
<linearGradient id="paint61_linear_24619_18221" x1="9.00072" y1="12.9544" x2="9.00072" y2="29.3624" gradientUnits="userSpaceOnUse">
<stop stop-color="#895738" stop-opacity="0"/>
<stop offset="1" stop-color="#5E3023"/>
</linearGradient>
<linearGradient id="paint62_linear_24619_18221" x1="8.29664" y1="14.0972" x2="8.29664" y2="25.6891" gradientUnits="userSpaceOnUse">
<stop stop-color="#895738" stop-opacity="0"/>
<stop offset="1" stop-color="#5E3023"/>
</linearGradient>
<linearGradient id="paint63_linear_24619_18221" x1="7.58235" y1="11.485" x2="7.58235" y2="24.587" gradientUnits="userSpaceOnUse">
<stop stop-color="#895738" stop-opacity="0"/>
<stop offset="1" stop-color="#5E3023"/>
</linearGradient>
<linearGradient id="paint64_linear_24619_18221" x1="6.31083" y1="10.832" x2="6.31083" y2="26.9135" gradientUnits="userSpaceOnUse">
<stop stop-color="#895738" stop-opacity="0"/>
<stop offset="1" stop-color="#5E3023"/>
</linearGradient>
<linearGradient id="paint65_linear_24619_18221" x1="10.6744" y1="18.0588" x2="10.6744" y2="7.19491" gradientUnits="userSpaceOnUse">
<stop stop-color="#895738" stop-opacity="0"/>
<stop offset="1" stop-color="#5E3023"/>
</linearGradient>
<linearGradient id="paint66_linear_24619_18221" x1="10.6743" y1="8.74637" x2="10.6743" y2="11.3369" gradientUnits="userSpaceOnUse">
<stop stop-color="#FFE548"/>
<stop offset="0.2472" stop-color="#FFE042"/>
<stop offset="0.5621" stop-color="#FFD133"/>
<stop offset="0.9123" stop-color="#FFB919"/>
<stop offset="1" stop-color="#FFB211"/>
</linearGradient>
<clipPath id="clip0_24619_18221">
<rect width="19.6323" height="19.6323" fill="white" transform="translate(0.896729 0.619141)"/>
</clipPath>
</defs>
</svg>
