<svg width="23" height="23" viewBox="0 0 23 23" fill="none" xmlns="http://www.w3.org/2000/svg">
<path d="M14.0074 5C14.9894 5.19057 15.8918 5.66826 16.5993 6.37194C17.3067 7.07561 17.787 7.97326 17.9786 8.95L14.0074 5ZM14.0074 1C16.0476 1.22544 17.95 2.13417 19.4024 3.57701C20.8548 5.01984 21.7708 6.91101 22 8.94L14.0074 1ZM20.9946 16.92V19.92C20.9958 20.1985 20.9384 20.4742 20.8263 20.7293C20.7141 20.9845 20.5496 21.2136 20.3433 21.4019C20.1369 21.5901 19.8934 21.7335 19.6281 21.8227C19.3629 21.9119 19.0818 21.9451 18.803 21.92C15.7093 21.5856 12.7377 20.5341 10.1267 18.85C7.69763 17.3147 5.63816 15.2662 4.0946 12.85C2.39553 10.2412 1.33816 7.27099 1.00816 4.18C0.983037 3.90347 1.01608 3.62476 1.10518 3.36162C1.19428 3.09849 1.33749 2.85669 1.52568 2.65162C1.71388 2.44655 1.94295 2.28271 2.19829 2.17052C2.45364 2.05833 2.72967 2.00026 3.00882 2H6.02489C6.51279 1.99522 6.9858 2.16708 7.35574 2.48353C7.72568 2.79999 7.96731 3.23945 8.0356 3.72C8.1629 4.68007 8.39899 5.62273 8.73935 6.53C8.87461 6.88792 8.90389 7.27691 8.82371 7.65088C8.74352 8.02485 8.55724 8.36811 8.28694 8.64L7.01014 9.91C8.44132 12.4135 10.5253 14.4864 13.0423 15.91L14.3191 14.64C14.5924 14.3711 14.9375 14.1858 15.3135 14.1061C15.6895 14.0263 16.0805 14.0555 16.4404 14.19C17.3525 14.5286 18.3002 14.7634 19.2654 14.89C19.7538 14.9585 20.1998 15.2032 20.5186 15.5775C20.8375 15.9518 21.0069 16.4296 20.9946 16.92Z" stroke="#274B89" stroke-width="2" stroke-linecap="round" stroke-linejoin="round"/>
</svg>
