<svg width="20" height="17" viewBox="0 0 20 17" fill="none" xmlns="http://www.w3.org/2000/svg">
<path d="M14.7119 13.3789V14.4111C14.7119 14.8239 15.0363 15.1483 15.4344 15.1483H16.6287V13.3789H14.7119V13.3789ZM3.35864 15.1483H4.55297C4.95108 15.1483 5.27543 14.8239 5.27543 14.4111V13.379H3.35864C3.35864 13.379 3.35864 15.1483 3.35864 15.1483Z" fill="#1E2E37"/>
<path d="M16.039 13.3789V15.7822C16.039 16.3278 16.4813 16.7701 17.0121 16.7701H17.5577C18.1032 16.7701 18.5308 16.3278 18.5308 15.7822V13.084L16.039 13.3789ZM1.44189 15.7822C1.44189 16.3278 1.88422 16.7701 2.41504 16.7701H2.96058C3.50612 16.7701 3.93372 16.3278 3.93372 15.7822V13.3789L1.44189 13.084V15.7822Z" fill="#324D5B"/>
<path d="M9.93476 0.550781H9.97901C14.9774 0.550781 16.1865 2.68875 16.1865 6.74348H3.80103C3.80103 2.68875 5.02481 0.550781 9.93476 0.550781Z" fill="#5E7398"/>
<path d="M9.94936 1.28711H9.99361C14.3875 1.28711 15.4491 3.1744 15.4491 6.74259H4.53809C4.53809 3.17444 5.61445 1.28711 9.94936 1.28711Z" fill="#85C6DC"/>
<path d="M9.99357 11.7559C13.0015 11.7559 15.4491 12.3161 15.4491 13.0092C15.4491 13.7022 13.0015 14.2624 9.99357 14.2624C6.98566 14.2624 4.53809 13.7022 4.53809 13.0092C4.53805 12.3161 6.98566 11.7559 9.99357 11.7559Z" fill="#434E63"/>
<path d="M3.85993 7.18546L10.0084 6.30078L16.1274 7.18546C17.9557 7.18546 19.4302 8.67465 19.4302 10.5325V11.2549C19.4302 11.7857 19.1943 12.2133 18.4865 12.2133H1.50077C0.807772 12.1986 0.557129 11.771 0.557129 11.2402V10.5178C0.557129 8.67465 2.0316 7.18546 3.85993 7.18546Z" fill="#5E7398"/>
<path d="M1.30912 12.0508H18.6635C18.9141 12.0508 19.1205 12.2425 19.1205 12.4931C19.1205 12.9797 18.7077 13.3778 18.1916 13.3778H1.78095C1.26487 13.3778 0.852051 12.9797 0.852051 12.4931C0.852051 12.2425 1.05848 12.0508 1.30912 12.0508Z" fill="#E4E7E7"/>
<path d="M16.378 6.72885C16.378 6.72885 14.6676 7.40711 13.7682 10.4003C13.7682 10.4003 13.2669 12.0517 12.1168 12.0517H7.87039C6.72031 12.0517 6.21899 10.4003 6.21899 10.4003C5.31956 7.40711 3.62394 6.75836 3.62394 6.75836C3.03416 6.52242 3.62394 6.16857 3.62394 6.16857C6.01256 4.81206 9.99361 4.97424 9.99361 4.97424C9.99361 4.97424 13.9599 4.79731 16.378 6.16857C16.378 6.16857 16.9235 6.47817 16.378 6.72885Z" fill="#6E85AE"/>
<path d="M6.86774 10.1933C6.94145 10.4292 7.32481 11.3139 7.81138 11.3139H9.10889V5.71094C6.8677 5.71094 5.40802 6.1238 4.53809 6.50715C5.21634 7.02323 6.23374 8.09955 6.86774 10.1933ZM10.8783 5.71094V11.3139H12.0431C12.5444 11.3139 12.913 10.4292 12.9867 10.1933C13.606 8.12909 14.6086 7.03798 15.2869 6.50715C14.4464 6.1238 13.031 5.72569 10.8783 5.71094Z" fill="#5E7398"/>
<path d="M9.69873 4.97461H10.2885V12.052H9.69873V4.97461Z" fill="#6E85AE"/>
<path d="M3.21104 8.51367C2.47382 8.51367 1.88403 9.10346 1.88403 9.84067C1.88403 10.5779 2.47382 11.1677 3.21104 11.1677C3.94825 11.1677 4.53804 10.5779 4.53804 9.84067C4.53804 9.1035 3.94829 8.51367 3.21104 8.51367ZM16.776 8.51367C16.0388 8.51367 15.449 9.10346 15.449 9.84067C15.449 10.5779 16.0388 11.1677 16.776 11.1677C17.5133 11.1677 18.1031 10.5779 18.1031 9.84067C18.1031 9.1035 17.5133 8.51367 16.776 8.51367Z" fill="#E0E3E4"/>
<path d="M3.21112 9.39844C2.96048 9.39844 2.7688 9.59012 2.7688 9.84076C2.7688 10.0914 2.96048 10.2831 3.21112 10.2831C3.46176 10.2831 3.65344 10.0914 3.65344 9.84076C3.65344 9.59012 3.44705 9.39844 3.21112 9.39844ZM16.7761 9.39844C16.5255 9.39844 16.3338 9.59012 16.3338 9.84076C16.3338 10.0914 16.5255 10.2831 16.7761 10.2831C17.0268 10.2831 17.2185 10.0914 17.2185 9.84076C17.2185 9.59012 17.0268 9.39844 16.7761 9.39844Z" fill="#C0C8CB"/>
<path d="M16.5255 6.44922H16.2602C15.9653 6.44922 15.7294 6.6704 15.7294 6.96529V7.21594C15.7294 7.36336 16.0243 7.46658 16.3781 7.46658C16.7467 7.46658 17.0269 7.34861 17.0269 7.21594V6.96529C17.0564 6.68511 16.8204 6.44922 16.5255 6.44922ZM3.69779 6.44922H3.4324C3.1375 6.44922 2.90161 6.6704 2.90161 6.96529V7.21594C2.90161 7.36336 3.19651 7.46658 3.55036 7.46658C3.90422 7.46658 4.19911 7.34861 4.19911 7.21594V6.96529C4.22862 6.68511 3.99269 6.44922 3.69779 6.44922Z" fill="#F4B459"/>
<path d="M4.95117 3.80844C5.68839 3.43983 7.82636 2.49619 9.96433 2.49619C12.1171 2.49619 14.2845 3.43983 15.0217 3.80844C14.4024 2.14229 12.9575 1.28711 9.9938 1.28711H9.94954C7.03014 1.28711 5.58521 2.14233 4.95117 3.80844Z" fill="#92D2E8"/>
<path d="M16.776 8.80857C17.3511 8.80857 17.8082 9.26564 17.8082 9.84067C17.8082 10.4157 17.3511 10.8728 16.776 10.8728C16.201 10.8728 15.7439 10.4157 15.7439 9.84067C15.7439 9.26567 16.201 8.80857 16.776 8.80857ZM3.21104 8.80857C3.78607 8.80857 4.24315 9.26564 4.24315 9.84067C4.24315 10.4157 3.78607 10.8728 3.21104 10.8728C2.636 10.8728 2.17893 10.4157 2.17893 9.84067C2.17893 9.26567 2.636 8.80857 3.21104 8.80857ZM16.776 8.51367C16.0388 8.51367 15.449 9.10346 15.449 9.84067C15.449 10.5779 16.0388 11.1677 16.776 11.1677C17.5133 11.1677 18.1031 10.5779 18.1031 9.84067C18.1031 9.1035 17.5133 8.51367 16.776 8.51367ZM3.21104 8.51367C2.47382 8.51367 1.88403 9.10346 1.88403 9.84067C1.88403 10.5779 2.47382 11.1677 3.21104 11.1677C3.94825 11.1677 4.53804 10.5779 4.53804 9.84067C4.53804 9.1035 3.94829 8.51367 3.21104 8.51367Z" fill="#CCD0D2"/>
</svg>
