<svg width="26" height="27" viewBox="0 0 26 27" fill="none" xmlns="http://www.w3.org/2000/svg">
<path d="M12.9412 24.4653C6.98557 24.4653 2.15784 19.6375 2.15784 13.6818C2.15784 7.72617 6.98557 2.89844 12.9412 2.89844C18.8969 2.89844 23.7247 7.72617 23.7247 13.6818C23.7247 19.6375 18.8969 24.4653 12.9412 24.4653ZM12.9412 22.3086C15.2292 22.3086 17.4234 21.3997 19.0413 19.7819C20.6591 18.164 21.568 15.9698 21.568 13.6818C21.568 11.3939 20.6591 9.19966 19.0413 7.58183C17.4234 5.964 15.2292 5.05512 12.9412 5.05512C10.6533 5.05512 8.45905 5.964 6.84123 7.58183C5.2234 9.19966 4.31452 11.3939 4.31452 13.6818C4.31452 15.9698 5.2234 18.164 6.84123 19.7819C8.45905 21.3997 10.6533 22.3086 12.9412 22.3086ZM12.9412 8.34406L18.279 13.6818L12.9412 19.0196L7.60346 13.6818L12.9412 8.34406ZM12.9412 11.3947L10.6541 13.6818L12.9412 15.969L15.2284 13.6818L12.9412 11.3947Z" fill="black"/>
</svg>
