<svg width="21" height="21" viewBox="0 0 21 21" fill="none" xmlns="http://www.w3.org/2000/svg">
<path d="M14.8607 19.0961L12.008 19.5007L9.15527 19.0961L9.56002 16.6683L12.008 16.2637L14.4559 16.6683L14.8607 19.0961Z" fill="#AFAFAF"/>
<path d="M14.8609 19.0958H13.647L13.2424 16.668H14.4562L14.8609 19.0958Z" fill="#919191"/>
<path d="M20.4444 14.8482H3.57129V3.96363C3.57129 3.51669 3.93369 3.1543 4.38062 3.1543H19.6351C20.082 3.1543 20.4444 3.51669 20.4444 3.96363V14.8482Z" fill="#6E85AE"/>
<path d="M20.4447 3.96363V14.4436H19.2308V3.96363C19.2308 3.51654 18.8687 3.1543 18.4216 3.1543H19.6354C20.0826 3.15445 20.4447 3.51654 20.4447 3.96363Z" fill="#5E7398"/>
<path d="M19.0285 13.2286H4.98777C4.87592 13.2286 4.7854 13.1381 4.7854 13.0264V4.56956C4.7854 4.45786 4.87592 4.36719 4.98777 4.36719H19.0285C19.1402 4.36719 19.2307 4.45786 19.2307 4.56956V13.0264C19.2307 13.1381 19.1402 13.2286 19.0285 13.2286Z" fill="white"/>
<path d="M7.01088 13.2301V8.27344H4.7854V13.0279C4.7854 13.1396 4.87592 13.2301 4.98777 13.2301H7.01088Z" fill="#E8E8E8"/>
<path d="M19.2309 5.58111H9.03418V4.36719H19.0287C19.1404 4.36719 19.2309 4.45786 19.2309 4.56956V5.58111Z" fill="#D8D8D8"/>
<path d="M15.67 20.3096H8.34622C8.01098 20.3096 7.73926 20.0379 7.73926 19.7027C7.73926 19.3674 8.01098 19.0957 8.34622 19.0957H15.67C16.0052 19.0957 16.2769 19.3674 16.2769 19.7027C16.2769 20.0378 16.0052 20.3096 15.67 20.3096Z" fill="#D8D8D8"/>
<path d="M16.2769 19.7027C16.2769 19.8701 16.209 20.0218 16.099 20.1315C15.9893 20.2415 15.8375 20.3096 15.67 20.3096H14.4561C14.6236 20.3096 14.7753 20.2415 14.885 20.1315C14.995 20.0218 15.063 19.8701 15.063 19.7027C15.063 19.4336 14.8878 19.2053 14.6455 19.1261C14.586 19.1061 14.522 19.0957 14.4561 19.0957H15.67C16.0051 19.0957 16.2769 19.3676 16.2769 19.7027Z" fill="#AFAFAF"/>
<path d="M19.6351 16.6688H4.38062C3.93369 16.6688 3.57129 16.3064 3.57129 15.8595V14.4434H20.4444V15.8595C20.4444 16.3066 20.082 16.6688 19.6351 16.6688Z" fill="#D8D8D8"/>
<path d="M20.4447 14.4434V15.8595C20.4447 16.3066 20.0826 16.6688 19.6354 16.6688H18.4216C18.8687 16.6688 19.2308 16.3067 19.2308 15.8595V14.4434H20.4447Z" fill="#AFAFAF"/>
<path d="M7.4155 9.5472H1.95299C1.05912 9.5472 0.334473 8.82256 0.334473 7.92868V2.46617C0.334473 1.5723 1.05912 0.847656 1.95299 0.847656H7.4155C8.30938 0.847656 9.03402 1.5723 9.03402 2.46617V7.92868C9.03402 8.82256 8.30938 9.5472 7.4155 9.5472Z" fill="#B5C4DD"/>
<path d="M9.03419 2.46617V7.92868C9.03419 8.82256 8.30955 9.5472 7.41568 9.5472H6.2019C7.09562 9.5472 7.82042 8.82256 7.82042 7.92868V2.46617C7.82042 1.5723 7.09562 0.847656 6.2019 0.847656H7.41568C8.30955 0.847656 9.03419 1.5723 9.03419 2.46617Z" fill="#5E7398"/>
<path d="M7.61783 5.37106V5.02324C7.61783 4.89512 7.51396 4.7914 7.38585 4.7914H7.32417C7.08176 4.7914 6.86573 4.64028 6.78073 4.4132C6.76278 4.36518 6.74314 4.31792 6.72212 4.27144C6.62132 4.04989 6.66581 3.78952 6.8378 3.61752L6.88153 3.5738C6.97205 3.48327 6.97205 3.33644 6.88153 3.24577L6.63559 2.99982C6.54506 2.9093 6.39823 2.9093 6.30756 2.99982L6.26398 3.04355C6.09184 3.2157 5.83147 3.26019 5.60992 3.15939C5.56358 3.13821 5.51617 3.11857 5.46815 3.10062C5.24108 3.01562 5.0901 2.7996 5.0901 2.55718V2.4955C5.0901 2.36739 4.98623 2.26367 4.85812 2.26367H4.5103C4.38218 2.26367 4.27847 2.36739 4.27847 2.4955V2.55718C4.27847 2.7996 4.12734 3.01562 3.90026 3.10062C3.85224 3.11857 3.80499 3.13821 3.7585 3.15939C3.53695 3.26019 3.27658 3.2157 3.10458 3.04355L3.06086 2.99982C2.97033 2.9093 2.8235 2.9093 2.73283 2.99982L2.48688 3.24577C2.39636 3.33644 2.39636 3.48327 2.48688 3.5738L2.53061 3.61752C2.70276 3.78952 2.74725 4.04989 2.64645 4.27144C2.62527 4.31792 2.60564 4.36518 2.58768 4.4132C2.50269 4.64028 2.28666 4.7914 2.04424 4.7914H1.98256C1.85445 4.7914 1.75073 4.89512 1.75073 5.02324V5.37106C1.75073 5.49917 1.85445 5.60304 1.98256 5.60304H2.04424C2.28666 5.60304 2.50269 5.75417 2.58768 5.98109C2.60564 6.02911 2.62527 6.07652 2.64645 6.12286C2.74725 6.34441 2.70276 6.60478 2.53061 6.77692L2.48688 6.8205C2.39636 6.91117 2.39636 7.058 2.48688 7.14853L2.73283 7.39447C2.8235 7.48499 2.97033 7.48499 3.06086 7.39447L3.10458 7.35074C3.27658 7.17875 3.53695 7.13426 3.7585 7.23506C3.80499 7.25608 3.85224 7.27572 3.90026 7.29367C4.12734 7.37867 4.27847 7.5947 4.27847 7.83711V7.89879C4.27847 8.0269 4.38218 8.13077 4.5103 8.13077H4.85812C4.98623 8.13077 5.0901 8.0269 5.0901 7.89879V7.83711C5.0901 7.5947 5.24123 7.37867 5.46815 7.29367C5.51617 7.27572 5.56358 7.25608 5.60992 7.23506C5.83147 7.13426 6.09184 7.17875 6.26398 7.35074L6.30756 7.39447C6.39823 7.48499 6.54506 7.48499 6.63559 7.39447L6.88153 7.14853C6.97205 7.058 6.97205 6.91117 6.88153 6.8205L6.8378 6.77692C6.66581 6.60478 6.62132 6.34441 6.72212 6.12286C6.74314 6.07652 6.76278 6.02911 6.78073 5.98109C6.86573 5.75401 7.08176 5.60304 7.32417 5.60304H7.38585C7.51396 5.60304 7.61783 5.49917 7.61783 5.37106Z" fill="#FAFEFF"/>
<path d="M4.68417 6.18963C4.13674 6.18963 3.69287 5.74576 3.69287 5.19833C3.69287 4.65075 4.13674 4.20703 4.68417 4.20703C5.23176 4.20703 5.67563 4.65075 5.67563 5.19833C5.67563 5.74576 5.23176 6.18963 4.68417 6.18963Z" fill="#5E7398"/>
<path d="M14.3146 7.90759H11.4011C11.2336 7.90759 11.0977 7.77181 11.0977 7.60411C11.0977 7.43657 11.2336 7.30078 11.4011 7.30078H14.3146C14.4821 7.30078 14.6179 7.43657 14.6179 7.60411C14.6179 7.77181 14.4821 7.90759 14.3146 7.90759Z" fill="#747A89"/>
<path d="M17.0255 7.90759H15.5283C15.3608 7.90759 15.2249 7.77181 15.2249 7.60411C15.2249 7.43657 15.3608 7.30078 15.5283 7.30078H17.0255C17.1932 7.30078 17.329 7.43657 17.329 7.60411C17.329 7.77181 17.1932 7.90759 17.0255 7.90759Z" fill="#747A89"/>
<path d="M14.3145 9.12259H13.1006C12.9329 9.12259 12.7971 8.9868 12.7971 8.81911C12.7971 8.65156 12.9331 8.51562 13.1006 8.51562H14.3145C14.4821 8.51562 14.6179 8.65156 14.6179 8.81911C14.6179 8.9868 14.4821 9.12259 14.3145 9.12259Z" fill="#F2D67C"/>
<path d="M17.0257 9.12259H15.5286C15.361 9.12259 15.2251 8.9868 15.2251 8.81911C15.2251 8.65156 15.361 8.51562 15.5286 8.51562H17.0257C17.1934 8.51562 17.3292 8.65156 17.3292 8.81911C17.3292 8.9868 17.1934 9.12259 17.0257 9.12259Z" fill="#F2D67C"/>
<path d="M14.3148 10.3374H13.1008C12.9331 10.3374 12.7974 10.2015 12.7974 10.034C12.7974 9.86641 12.9333 9.73047 13.1008 9.73047H14.3148C14.4823 9.73047 14.6181 9.86641 14.6181 10.034C14.6181 10.2015 14.4823 10.3374 14.3148 10.3374Z" fill="#F2D67C"/>
<path d="M17.0257 10.3374H15.5286C15.361 10.3374 15.2251 10.2015 15.2251 10.034C15.2251 9.86641 15.361 9.73047 15.5286 9.73047H17.0257C17.1934 9.73047 17.3292 9.86641 17.3292 10.034C17.3292 10.2015 17.1934 10.3374 17.0257 10.3374Z" fill="#F2D67C"/>
<path d="M14.3146 11.5503H11.4011C11.2336 11.5503 11.0977 11.4144 11.0977 11.2468C11.0977 11.0791 11.2336 10.9434 11.4011 10.9434H14.3146C14.4821 10.9434 14.6179 11.0791 14.6179 11.2468C14.6179 11.4144 14.4821 11.5503 14.3146 11.5503Z" fill="#747A89"/>
<path d="M17.0255 11.5503H15.5283C15.3608 11.5503 15.2249 11.4144 15.2249 11.2468C15.2249 11.0791 15.3608 10.9434 15.5283 10.9434H17.0255C17.1932 10.9434 17.329 11.0791 17.329 11.2468C17.329 11.4144 17.1932 11.5503 17.0255 11.5503Z" fill="#747A89"/>
</svg>
