<svg width="12" height="13" viewBox="0 0 12 13" fill="none" xmlns="http://www.w3.org/2000/svg">
<path d="M1.80216 2.21438V8.97338C1.80206 9.64214 2.05633 10.2859 2.5134 10.7741C2.97047 11.2623 3.59611 11.5583 4.26343 11.6022L4.43622 11.6074H9.08692C8.97799 11.9155 8.77623 12.1823 8.50943 12.371C8.24262 12.5597 7.92388 12.661 7.59709 12.6611H3.90941C3.07109 12.6611 2.26711 12.3281 1.67433 11.7353C1.08156 11.1425 0.748535 10.3385 0.748535 9.5002V3.70526C0.748364 3.3783 0.849607 3.05932 1.03831 2.79231C1.22702 2.52529 1.49389 2.32337 1.80216 2.21438ZM9.70434 0.0175781C10.1235 0.0175781 10.5255 0.184088 10.8219 0.480477C11.1183 0.776867 11.2848 1.17886 11.2848 1.59801V8.97338C11.2848 9.39254 11.1183 9.79453 10.8219 10.0909C10.5255 10.3873 10.1235 10.5538 9.70434 10.5538H4.43622C4.01706 10.5538 3.61507 10.3873 3.31868 10.0909C3.02229 9.79453 2.85578 9.39254 2.85578 8.97338V1.59801C2.85578 1.17886 3.02229 0.776867 3.31868 0.480477C3.61507 0.184088 4.01706 0.0175781 4.43622 0.0175781H9.70434ZM9.70434 1.0712H4.43622C4.2965 1.0712 4.1625 1.12671 4.06371 1.2255C3.96491 1.3243 3.90941 1.4583 3.90941 1.59801V8.97338C3.90941 9.1131 3.96491 9.2471 4.06371 9.3459C4.1625 9.44469 4.2965 9.5002 4.43622 9.5002H9.70434C9.84406 9.5002 9.97806 9.44469 10.0769 9.3459C10.1757 9.2471 10.2312 9.1131 10.2312 8.97338V1.59801C10.2312 1.4583 10.1757 1.3243 10.0769 1.2255C9.97806 1.12671 9.84406 1.0712 9.70434 1.0712Z" fill="white"/>
</svg>
