<svg width="78" height="24" viewBox="0 0 78 24" fill="none" xmlns="http://www.w3.org/2000/svg">
<path d="M18 6L6 18" stroke="#FF4B3E" stroke-width="2" stroke-linecap="round" stroke-linejoin="round"/>
<path d="M6 6L18 18" stroke="#FF4B3E" stroke-width="2" stroke-linecap="round" stroke-linejoin="round"/>
<path d="M34.794 16C34.56 16 34.378 15.9393 34.248 15.818C34.1267 15.688 34.066 15.506 34.066 15.272V7.563C34.066 7.329 34.1267 7.15133 34.248 7.03C34.378 6.9 34.56 6.835 34.794 6.835H37.303C38.811 6.835 39.9723 7.22933 40.787 8.018C41.6103 8.798 42.022 9.929 42.022 11.411C42.022 12.1477 41.918 12.802 41.71 13.374C41.502 13.946 41.1943 14.427 40.787 14.817C40.3883 15.1983 39.8987 15.493 39.318 15.701C38.7373 15.9003 38.0657 16 37.303 16H34.794ZM35.418 14.869H37.225C37.797 14.869 38.291 14.7997 38.707 14.661C39.1317 14.5137 39.487 14.297 39.773 14.011C40.059 13.725 40.2713 13.3653 40.41 12.932C40.5487 12.4987 40.618 11.9917 40.618 11.411C40.618 10.2583 40.332 9.396 39.76 8.824C39.1967 8.252 38.3517 7.966 37.225 7.966H35.418V14.869ZM46.6627 16.117C45.9694 16.117 45.3714 15.987 44.8687 15.727C44.3747 15.4583 43.989 15.0813 43.7117 14.596C43.443 14.102 43.3087 13.517 43.3087 12.841C43.3087 12.1823 43.443 11.606 43.7117 11.112C43.9804 10.618 44.3487 10.2323 44.8167 9.955C45.2847 9.67767 45.8177 9.539 46.4157 9.539C46.8577 9.539 47.252 9.61267 47.5987 9.76C47.9454 9.89867 48.24 10.1067 48.4827 10.384C48.734 10.6527 48.9204 10.982 49.0417 11.372C49.1717 11.762 49.2367 12.1997 49.2367 12.685C49.2367 12.8323 49.1934 12.945 49.1067 13.023C49.02 13.0923 48.89 13.127 48.7167 13.127H44.3487V12.321H48.3527L48.1317 12.503C48.1317 12.0697 48.0667 11.7013 47.9367 11.398C47.8154 11.0947 47.629 10.865 47.3777 10.709C47.135 10.5443 46.8317 10.462 46.4677 10.462C46.0604 10.462 45.7137 10.5573 45.4277 10.748C45.1504 10.9387 44.938 11.203 44.7907 11.541C44.6434 11.879 44.5697 12.2733 44.5697 12.724V12.802C44.5697 13.5647 44.7474 14.141 45.1027 14.531C45.4667 14.9123 45.991 15.103 46.6757 15.103C46.9357 15.103 47.2087 15.0683 47.4947 14.999C47.7894 14.9297 48.0667 14.8127 48.3267 14.648C48.474 14.5613 48.604 14.5223 48.7167 14.531C48.838 14.5397 48.9334 14.5787 49.0027 14.648C49.0807 14.7173 49.1284 14.804 49.1457 14.908C49.163 15.012 49.1457 15.1203 49.0937 15.233C49.0417 15.337 48.9507 15.4323 48.8207 15.519C48.526 15.7183 48.1837 15.87 47.7937 15.974C47.4037 16.0693 47.0267 16.117 46.6627 16.117ZM53.4631 16.117C52.8131 16.117 52.2498 15.9827 51.7731 15.714C51.3051 15.4367 50.9411 15.051 50.6811 14.557C50.4211 14.0543 50.2911 13.465 50.2911 12.789C50.2911 12.2863 50.3648 11.8357 50.5121 11.437C50.6595 11.0297 50.8675 10.6873 51.1361 10.41C51.4135 10.1327 51.7471 9.92033 52.1371 9.773C52.5358 9.617 52.9778 9.539 53.4631 9.539C53.7665 9.539 54.0828 9.58667 54.4121 9.682C54.7501 9.76867 55.0621 9.916 55.3481 10.124C55.4608 10.1933 55.5301 10.28 55.5561 10.384C55.5908 10.4793 55.5951 10.579 55.5691 10.683C55.5518 10.787 55.5041 10.878 55.4261 10.956C55.3568 11.0253 55.2701 11.0687 55.1661 11.086C55.0621 11.0947 54.9495 11.0643 54.8281 10.995C54.6201 10.8477 54.4078 10.7437 54.1911 10.683C53.9745 10.6137 53.7665 10.579 53.5671 10.579C53.2551 10.579 52.9778 10.631 52.7351 10.735C52.5011 10.8303 52.3018 10.9733 52.1371 11.164C51.9725 11.346 51.8468 11.5757 51.7601 11.853C51.6821 12.1303 51.6431 12.4467 51.6431 12.802C51.6431 13.5127 51.8078 14.0717 52.1371 14.479C52.4751 14.8777 52.9518 15.077 53.5671 15.077C53.7665 15.077 53.9745 15.0467 54.1911 14.986C54.4078 14.9253 54.6201 14.8213 54.8281 14.674C54.9495 14.6047 55.0621 14.5787 55.1661 14.596C55.2701 14.6133 55.3525 14.661 55.4131 14.739C55.4825 14.8083 55.5258 14.895 55.5431 14.999C55.5691 15.0943 55.5648 15.194 55.5301 15.298C55.4955 15.402 55.4218 15.4887 55.3091 15.558C55.0318 15.7573 54.7285 15.9003 54.3991 15.987C54.0785 16.0737 53.7665 16.117 53.4631 16.117ZM58.7775 16.117C58.1015 16.117 57.5901 15.922 57.2435 15.532C56.9055 15.1333 56.7365 14.5613 56.7365 13.816V7.407C56.7365 7.19033 56.7928 7.02567 56.9055 6.913C57.0181 6.80033 57.1785 6.744 57.3865 6.744C57.5945 6.744 57.7548 6.80033 57.8675 6.913C57.9888 7.02567 58.0495 7.19033 58.0495 7.407V13.738C58.0495 14.1713 58.1361 14.4963 58.3095 14.713C58.4915 14.921 58.7515 15.025 59.0895 15.025C59.1675 15.025 59.2368 15.025 59.2975 15.025C59.3581 15.0163 59.4188 15.0077 59.4795 14.999C59.5835 14.9903 59.6571 15.0207 59.7005 15.09C59.7438 15.1507 59.7655 15.2807 59.7655 15.48C59.7655 15.662 59.7265 15.805 59.6485 15.909C59.5705 16.0043 59.4448 16.065 59.2715 16.091C59.1935 16.0997 59.1111 16.104 59.0245 16.104C58.9378 16.1127 58.8555 16.117 58.7775 16.117ZM61.3601 16.078C61.1521 16.078 60.9918 16.0173 60.8791 15.896C60.7664 15.766 60.7101 15.5883 60.7101 15.363V10.293C60.7101 10.0677 60.7664 9.89433 60.8791 9.773C60.9918 9.65167 61.1521 9.591 61.3601 9.591C61.5681 9.591 61.7284 9.65167 61.8411 9.773C61.9624 9.89433 62.0231 10.0677 62.0231 10.293V15.363C62.0231 15.5883 61.9668 15.766 61.8541 15.896C61.7414 16.0173 61.5768 16.078 61.3601 16.078ZM61.3601 8.239C61.1001 8.239 60.8964 8.174 60.7491 8.044C60.6104 7.914 60.5411 7.732 60.5411 7.498C60.5411 7.25533 60.6104 7.07333 60.7491 6.952C60.8964 6.822 61.1001 6.757 61.3601 6.757C61.6201 6.757 61.8194 6.822 61.9581 6.952C62.1054 7.07333 62.1791 7.25533 62.1791 7.498C62.1791 7.732 62.1054 7.914 61.9581 8.044C61.8194 8.174 61.6201 8.239 61.3601 8.239ZM64.5212 16.091C64.3132 16.091 64.1529 16.0347 64.0402 15.922C63.9276 15.8007 63.8712 15.636 63.8712 15.428V10.228C63.8712 10.0113 63.9276 9.84667 64.0402 9.734C64.1529 9.62133 64.3089 9.565 64.5082 9.565C64.7162 9.565 64.8722 9.62133 64.9762 9.734C65.0889 9.84667 65.1452 10.0113 65.1452 10.228V11.242L65.0022 11.008C65.1929 10.5227 65.4919 10.1587 65.8992 9.916C66.3066 9.66467 66.7746 9.539 67.3032 9.539C67.8059 9.539 68.2219 9.63433 68.5512 9.825C68.8892 10.007 69.1406 10.2887 69.3052 10.67C69.4699 11.0427 69.5522 11.515 69.5522 12.087V15.428C69.5522 15.636 69.4959 15.8007 69.3832 15.922C69.2706 16.0347 69.1102 16.091 68.9022 16.091C68.6856 16.091 68.5209 16.0347 68.4082 15.922C68.2956 15.8007 68.2392 15.636 68.2392 15.428V12.165C68.2392 11.619 68.1309 11.2203 67.9142 10.969C67.7062 10.7177 67.3769 10.592 66.9262 10.592C66.3976 10.592 65.9729 10.7567 65.6522 11.086C65.3402 11.4153 65.1842 11.8573 65.1842 12.412V15.428C65.1842 15.87 64.9632 16.091 64.5212 16.091ZM74.3385 16.117C73.6451 16.117 73.0471 15.987 72.5445 15.727C72.0505 15.4583 71.6648 15.0813 71.3875 14.596C71.1188 14.102 70.9845 13.517 70.9845 12.841C70.9845 12.1823 71.1188 11.606 71.3875 11.112C71.6561 10.618 72.0245 10.2323 72.4925 9.955C72.9605 9.67767 73.4935 9.539 74.0915 9.539C74.5335 9.539 74.9278 9.61267 75.2745 9.76C75.6211 9.89867 75.9158 10.1067 76.1585 10.384C76.4098 10.6527 76.5961 10.982 76.7175 11.372C76.8475 11.762 76.9125 12.1997 76.9125 12.685C76.9125 12.8323 76.8691 12.945 76.7825 13.023C76.6958 13.0923 76.5658 13.127 76.3925 13.127H72.0245V12.321H76.0285L75.8075 12.503C75.8075 12.0697 75.7425 11.7013 75.6125 11.398C75.4911 11.0947 75.3048 10.865 75.0535 10.709C74.8108 10.5443 74.5075 10.462 74.1435 10.462C73.7361 10.462 73.3895 10.5573 73.1035 10.748C72.8261 10.9387 72.6138 11.203 72.4665 11.541C72.3191 11.879 72.2455 12.2733 72.2455 12.724V12.802C72.2455 13.5647 72.4231 14.141 72.7785 14.531C73.1425 14.9123 73.6668 15.103 74.3515 15.103C74.6115 15.103 74.8845 15.0683 75.1705 14.999C75.4651 14.9297 75.7425 14.8127 76.0025 14.648C76.1498 14.5613 76.2798 14.5223 76.3925 14.531C76.5138 14.5397 76.6091 14.5787 76.6785 14.648C76.7565 14.7173 76.8041 14.804 76.8215 14.908C76.8388 15.012 76.8215 15.1203 76.7695 15.233C76.7175 15.337 76.6265 15.4323 76.4965 15.519C76.2018 15.7183 75.8595 15.87 75.4695 15.974C75.0795 16.0693 74.7025 16.117 74.3385 16.117Z" fill="#FF4B3E"/>
</svg>
