<svg width="15" height="16" viewBox="0 0 15 16" fill="none" xmlns="http://www.w3.org/2000/svg">
<path d="M13.6634 1.9902C12.8567 1.18351 12.1393 1.42142 12.1393 1.42142L5.81532 7.74027L4.75168 10.9019L7.91184 9.83752L14.2322 3.51428C14.2322 3.51428 14.4693 2.7969 13.6634 1.9902ZM8.12266 9.14869L7.77788 9.49274L6.69961 9.85875C6.61606 9.65534 6.49203 9.47104 6.33506 9.31705C6.18093 9.16023 5.99667 9.03623 5.79336 8.9525L6.15937 7.87423L6.50415 7.53018C6.50415 7.53018 7.07221 7.46503 7.62928 8.02283C8.18708 8.5799 8.12266 9.14869 8.12266 9.14869ZM12.0719 13.098H2.55561V3.58163H6.21574L7.67979 2.11758H2.55561C1.75038 2.11758 1.09155 2.7764 1.09155 3.58163V13.098C1.09155 13.9032 1.75038 14.562 2.55561 14.562H12.0719C12.8772 14.562 13.536 13.9032 13.536 13.098V7.97378L12.0719 9.43784V13.098Z" fill="#274B89"/>
</svg>
