<svg width="15" height="16" viewBox="0 0 15 16" fill="none" xmlns="http://www.w3.org/2000/svg">
<path d="M8.05211 2.02141C7.83586 1.61266 7.16336 1.61266 6.94711 2.02141L1.32211 12.6464C1.27147 12.7416 1.24637 12.8484 1.24925 12.9562C1.25212 13.064 1.28288 13.1692 1.33852 13.2616C1.39416 13.354 1.47278 13.4304 1.56673 13.4834C1.66068 13.5364 1.76675 13.5641 1.87461 13.5639H13.1246C13.2324 13.5641 13.3384 13.5364 13.4323 13.4835C13.5262 13.4305 13.6047 13.3542 13.6603 13.2618C13.7159 13.1695 13.7466 13.0643 13.7494 12.9566C13.7523 12.8488 13.7271 12.7422 13.6765 12.647L8.05211 2.02141ZM8.12461 11.6889H6.87461V10.4389H8.12461V11.6889ZM6.87461 9.18891V6.06391H8.12461L8.12523 9.18891H6.87461Z" fill="#274B89"/>
</svg>
