<svg width="15" height="15" viewBox="0 0 15 15" fill="none" xmlns="http://www.w3.org/2000/svg">
<path d="M13.2068 14.5852H2.17228C1.41366 14.5852 0.792969 13.9645 0.792969 13.2059V5.99899C0.792969 5.55071 0.999865 5.13692 1.37918 4.86106L7.68952 0.447266L13.9999 4.86106C14.3792 5.10244 14.5861 5.55071 14.5861 5.99899V13.2059C14.5861 13.9645 13.9654 14.5852 13.2068 14.5852Z" fill="#78909C"/>
<path d="M4.24146 0.792969H11.138V11.4826H4.24146V0.792969Z" fill="#AED581"/>
<path d="M13.2068 14.5845H2.17228C1.41366 14.5845 0.792969 13.9638 0.792969 13.2051V6.30859L7.68952 10.7914L14.5861 6.30859V13.2051C14.5861 13.9638 13.9654 14.5845 13.2068 14.5845Z" fill="#7FBA56"/>
</svg>
