<svg width="15" height="15" viewBox="0 0 15 15" fill="none" xmlns="http://www.w3.org/2000/svg">
<g clip-path="url(#clip0_24619_36633)">
<path d="M3.74047 4.55542L4.11411 6.14686L3.74047 7.73138L5.13125 8.58938L5.98232 9.98016L7.57377 9.60652L9.16521 9.98016L10.0163 8.58938L11.4071 7.73138L11.0334 6.14686L11.4071 4.55542L10.0232 3.69742L9.16521 2.30664L7.57377 2.6872L5.98924 2.31356L5.12433 3.69742L3.74047 4.55542ZM7.58069 8.94226C6.84664 8.94226 6.14266 8.65067 5.62361 8.13162C5.10456 7.61257 4.81296 6.90858 4.81296 6.17454C4.81296 5.44049 5.10456 4.73651 5.62361 4.21746C6.14266 3.69841 6.84664 3.40681 7.58069 3.40681C9.10294 3.40681 10.3415 4.64537 10.3415 6.16762C10.3415 7.70371 9.10294 8.94226 7.58069 8.94226ZM7.56685 8.25033C6.41824 8.25033 5.49797 7.32314 5.49797 6.17454C5.49797 5.03285 6.41824 4.09874 7.56685 4.09874C8.71545 4.09874 9.64956 5.03285 9.64956 6.17454C9.64956 7.32314 8.71545 8.25033 7.56685 8.25033ZM10.2239 9.01146L9.33819 10.5614L7.89897 10.2362L9.64956 14.2701L10.6183 12.7479H12.3481L10.2239 9.01146ZM4.89599 9.05989L5.76091 10.6167L7.23472 10.2639L5.49797 14.2701L4.52927 12.7479H2.79944L4.89599 9.05989Z" fill="#FF4B3E"/>
<path d="M6.46918 6.44531C6.42121 6.44531 6.38338 6.4324 6.3557 6.40656C6.32987 6.37889 6.31695 6.34198 6.31695 6.29586C6.31695 6.24788 6.32987 6.2119 6.3557 6.18791C6.38338 6.16393 6.42121 6.15193 6.46918 6.15193H6.77917V4.79298H6.95076L6.54391 5.03931C6.50885 5.0596 6.47564 5.06791 6.44427 5.06422C6.41475 5.05868 6.38892 5.04577 6.36677 5.02547C6.34648 5.00333 6.33264 4.97749 6.32526 4.94797C6.31788 4.91845 6.31972 4.88893 6.33079 4.85941C6.34371 4.82804 6.3677 4.80221 6.40275 4.78191L6.7847 4.55219C6.8216 4.53005 6.85851 4.51159 6.89541 4.49683C6.93231 4.48023 6.96645 4.47192 6.99782 4.47192C7.03656 4.47192 7.06885 4.48299 7.09469 4.50514C7.12052 4.52543 7.13343 4.55957 7.13343 4.60754V6.15193H7.41574C7.46372 6.15193 7.50062 6.16393 7.52645 6.18791C7.55413 6.2119 7.56797 6.24788 7.56797 6.29586C7.56797 6.34383 7.55413 6.38073 7.52645 6.40656C7.50062 6.4324 7.46372 6.44531 7.41574 6.44531H6.46918ZM8.37229 6.47299C8.29295 6.47299 8.209 6.46469 8.12043 6.44808C8.03186 6.43147 7.95252 6.40287 7.88241 6.36228C7.85288 6.34383 7.83167 6.32261 7.81875 6.29862C7.80768 6.27279 7.80307 6.24788 7.80491 6.22389C7.8086 6.19806 7.81783 6.17592 7.83259 6.15747C7.84919 6.13902 7.86949 6.12702 7.89348 6.12149C7.91931 6.11595 7.94699 6.12057 7.97651 6.13533C8.05032 6.17039 8.11951 6.19529 8.18409 6.21006C8.24867 6.22297 8.31233 6.22943 8.37506 6.22943C8.46363 6.22943 8.52913 6.21467 8.57157 6.18515C8.61585 6.15378 8.638 6.11319 8.638 6.06337C8.638 6.02093 8.62323 5.98864 8.59371 5.9665C8.56604 5.94251 8.5236 5.92498 8.4664 5.91391L8.18962 5.86132C8.07522 5.83918 7.98758 5.79766 7.92669 5.73677C7.86765 5.67404 7.83812 5.59378 7.83812 5.49598C7.83812 5.40742 7.86211 5.33084 7.91008 5.26626C7.9599 5.20168 8.02817 5.15186 8.1149 5.1168C8.20162 5.08175 8.30126 5.06422 8.41381 5.06422C8.495 5.06422 8.57065 5.07344 8.64076 5.09189C8.71272 5.1085 8.78192 5.13526 8.84834 5.17216C8.87602 5.18692 8.89447 5.20629 8.9037 5.23028C8.91477 5.25427 8.91754 5.27918 8.912 5.30501C8.90647 5.329 8.89539 5.35114 8.87879 5.37143C8.86218 5.38989 8.84096 5.40188 8.81513 5.40742C8.79114 5.41111 8.76347 5.40557 8.7321 5.39081C8.6749 5.36129 8.61954 5.34007 8.56604 5.32715C8.51437 5.31424 8.46455 5.30778 8.41658 5.30778C8.32617 5.30778 8.25882 5.32346 8.21453 5.35483C8.1721 5.3862 8.15088 5.42771 8.15088 5.47938C8.15088 5.51812 8.16379 5.55041 8.18962 5.57625C8.21546 5.60208 8.25513 5.61961 8.30864 5.62883L8.58541 5.68142C8.70534 5.70356 8.79576 5.74416 8.85665 5.8032C8.91938 5.86224 8.95075 5.94159 8.95075 6.04122C8.95075 6.17592 8.89816 6.28202 8.79299 6.35951C8.68782 6.43516 8.54758 6.47299 8.37229 6.47299ZM9.83476 6.47299C9.71482 6.47299 9.61426 6.45269 9.53307 6.4121C9.45373 6.37151 9.39469 6.31246 9.35594 6.23497C9.31719 6.15562 9.29782 6.05783 9.29782 5.94159V5.35206H9.1539C9.10961 5.35206 9.07548 5.34099 9.05149 5.31885C9.0275 5.29486 9.01551 5.26257 9.01551 5.22198C9.01551 5.17954 9.0275 5.14725 9.05149 5.12511C9.07548 5.10297 9.10961 5.09189 9.1539 5.09189H9.29782V4.84003C9.29782 4.78283 9.31258 4.73947 9.3421 4.70995C9.37347 4.68043 9.41683 4.66566 9.47218 4.66566C9.52754 4.66566 9.56998 4.68043 9.5995 4.70995C9.62902 4.73947 9.64378 4.78283 9.64378 4.84003V5.09189H9.93716C9.98145 5.09189 10.0156 5.10297 10.0396 5.12511C10.0636 5.14725 10.0755 5.17954 10.0755 5.22198C10.0755 5.26257 10.0636 5.29486 10.0396 5.31885C10.0156 5.34099 9.98145 5.35206 9.93716 5.35206H9.64378V5.92221C9.64378 6.01078 9.66316 6.0772 9.70191 6.12149C9.74065 6.16577 9.80339 6.18791 9.89011 6.18791C9.92148 6.18791 9.94916 6.18515 9.97314 6.17961C9.99713 6.17408 10.0183 6.17039 10.0368 6.16854C10.0589 6.16669 10.0774 6.17408 10.0922 6.19068C10.1069 6.20544 10.1143 6.23681 10.1143 6.28478C10.1143 6.32169 10.1078 6.3549 10.0949 6.38442C10.0839 6.4121 10.0626 6.43147 10.0313 6.44254C10.0073 6.44993 9.97591 6.45638 9.93716 6.46192C9.89841 6.4693 9.86428 6.47299 9.83476 6.47299Z" fill="white"/>
</g>
<defs>
<clipPath id="clip0_24619_36633">
<rect width="13.8386" height="13.8386" fill="white" transform="translate(0.723755 0.984375)"/>
</clipPath>
</defs>
</svg>
