<svg width="24" height="20" viewBox="0 0 24 20" fill="none" xmlns="http://www.w3.org/2000/svg">
<path d="M21.1501 18.6004H2.9501C1.5201 18.6004 0.350098 17.4304 0.350098 16.0004V3.00039C0.350098 1.57039 1.5201 0.400391 2.9501 0.400391H21.1501C22.5801 0.400391 23.7501 1.57039 23.7501 3.00039V16.0004C23.7501 17.4304 22.5801 18.6004 21.1501 18.6004Z" fill="#274B89"/>
<path d="M17.9002 7.5504C18.9772 7.5504 19.8502 6.67735 19.8502 5.60039C19.8502 4.52344 18.9772 3.65039 17.9002 3.65039C16.8232 3.65039 15.9502 4.52344 15.9502 5.60039C15.9502 6.67735 16.8232 7.5504 17.9002 7.5504Z" fill="#C2E0FF"/>
<path d="M9.4501 6.83594L3.6001 15.3509H15.3001L9.4501 6.83594Z" fill="#6E85AE"/>
<path d="M16.6002 10.4746L12.7002 15.3496H20.5002L16.6002 10.4746Z" fill="#6E85AE"/>
</svg>
