<svg width="92" height="92" viewBox="0 0 92 92" fill="none" xmlns="http://www.w3.org/2000/svg">
<path d="M52.8272 17.0234H26.6412C26.7319 17.4428 26.8326 17.9301 26.951 18.4942C27.5504 21.3741 28.7039 27.0256 30.9201 38.112C31.0612 38.8197 31.2224 39.4971 31.3898 40.1469C31.4402 40.3408 31.4956 40.5247 31.5485 40.7148C31.7251 41.3586 31.9251 41.9958 32.1479 42.6251C32.3015 43.0545 32.4627 43.4701 32.6302 43.8718L32.8153 44.3125C33.0457 44.8326 33.2888 45.3325 33.5482 45.8022L33.5608 45.8261C33.8378 46.3273 34.14 46.8134 34.4687 47.283L34.5002 47.3259C34.7911 47.7364 35.1046 48.1318 35.437 48.5083L35.5982 48.6833C35.8954 49.0082 36.209 49.3167 36.5389 49.6089C36.5918 49.6555 36.6447 49.7046 36.6988 49.7499C39.2741 51.8448 42.5295 52.9204 45.8459 52.7721C47.0863 52.7759 48.3241 52.6462 49.5368 52.3842C52.4832 40.8431 53.5936 28.91 52.8272 17.0234V17.0234Z" fill="#FCEA2B"/>
<path d="M52.8267 17.0234C53.5931 28.9087 52.4831 40.8405 49.5376 52.3805C55.4636 51.0872 59.0776 46.4217 60.7726 37.9495C62.6073 28.7797 63.9345 22.2417 64.719 18.5182C64.845 17.9439 64.9457 17.4491 65.0401 17.0234H52.8267Z" fill="#F1B31C"/>
<path d="M40.0279 65.5078H35.1547V74.5328H48.9522V65.5078H40.0279V65.5078Z" fill="#FCEA2B"/>
<path d="M55.7206 65.5078H48.9521V74.5328H55.7206V65.5078Z" fill="#F1B31C"/>
<path d="M45.8409 36.8571C48.6228 36.8571 50.8779 34.602 50.8779 31.8202C50.8779 29.0383 48.6228 26.7832 45.8409 26.7832C43.0591 26.7832 40.804 29.0383 40.804 31.8202C40.804 34.602 43.0591 36.8571 45.8409 36.8571Z" fill="#F1B31C"/>
<path d="M66.6185 15.7675C66.6185 15.7675 66.6185 15.114 62.0008 38.1997C60.0012 48.2006 55.075 54.0309 45.841 54.0309C36.607 54.0309 31.6808 48.3643 29.6811 38.3621C25.0635 15.2764 25.0635 15.7675 25.0635 15.7675H66.6185V15.7675Z" stroke="black" stroke-width="2.51849" stroke-linecap="round" stroke-linejoin="round"/>
<path d="M29.4796 40.5087C29.4796 40.5087 29.5804 40.1801 22.6545 35.5624C19.4699 33.4431 15.7791 30.6514 15.7791 26.8195C15.7791 22.9876 18.9272 20.3848 22.7553 20.3848H24.6592" stroke="black" stroke-width="2.51849" stroke-linecap="round" stroke-linejoin="round"/>
<path d="M61.8005 40.8704C61.8005 40.8704 61.9013 40.5418 68.8271 35.9241C72.0092 33.8048 75.8033 31.0131 75.8033 27.1812C75.7988 26.2997 75.6145 25.4284 75.2616 24.6206C74.9088 23.8129 74.3949 23.0855 73.7513 22.4832C73.1077 21.8809 72.348 21.4162 71.5186 21.1176C70.6893 20.8189 69.8077 20.6927 68.9279 20.7465H66.2142" stroke="black" stroke-width="2.51849" stroke-linecap="round" stroke-linejoin="round"/>
<path d="M33.8942 64.248H56.9799V75.7915H33.8942V64.248Z" stroke="black" stroke-width="2.51849" stroke-linecap="round" stroke-linejoin="round"/>
<path d="M45.841 38.1178C49.3183 38.1178 52.1372 35.2989 52.1372 31.8216C52.1372 28.3443 49.3183 25.5254 45.841 25.5254C42.3637 25.5254 39.5448 28.3443 39.5448 31.8216C39.5448 35.2989 42.3637 38.1178 45.841 38.1178Z" stroke="black" stroke-width="2.51849" stroke-linecap="round" stroke-linejoin="round"/>
<path d="M45.8411 64.2488V54.0312" stroke="black" stroke-width="2.51849" stroke-linecap="round" stroke-linejoin="round"/>
</svg>
