<svg width="17" height="16" viewBox="0 0 17 16" fill="none" xmlns="http://www.w3.org/2000/svg">
<path d="M12.4966 12.2623C11.7128 12.2623 11.0752 11.6246 11.0752 10.8409V8.48038C11.0752 7.69664 11.7128 7.05903 12.4966 7.05903H16.2002C16.2227 7.05903 16.245 7.05971 16.2671 7.06071V4.70925C16.2671 4.10396 15.7765 3.61328 15.1712 3.61328H1.58282C0.977497 3.61325 0.486816 4.10393 0.486816 4.70922V14.612C0.486816 15.2173 0.977497 15.708 1.58282 15.708H15.1712C15.7765 15.708 16.2671 15.2174 16.2671 14.612V12.2606C16.245 12.2616 16.2227 12.2623 16.2002 12.2623H12.4966Z" fill="#C2E0FF"/>
<path d="M16.2002 7.83789H12.4965C12.1417 7.83789 11.854 8.12557 11.854 8.48042V10.8409C11.854 11.1958 12.1417 11.4835 12.4965 11.4835H16.2002C16.555 11.4835 16.8427 11.1958 16.8427 10.8409V8.48042C16.8427 8.12554 16.555 7.83789 16.2002 7.83789ZM13.7727 10.588C13.2606 10.588 12.8454 10.1728 12.8454 9.66064C12.8454 9.14845 13.2606 8.73325 13.7727 8.73325C14.2849 8.73325 14.7001 9.14845 14.7001 9.66064C14.7001 10.1728 14.2849 10.588 13.7727 10.588Z" fill="#C2E0FF"/>
<path d="M13.2628 1.60641C13.0176 0.864254 12.2172 0.461393 11.4751 0.706591L5.90723 2.54607H13.5733L13.2628 1.60641Z" fill="#C2E0FF"/>
</svg>
