<svg width="121" height="49" viewBox="0 0 121 49" fill="none" xmlns="http://www.w3.org/2000/svg">
<path d="M7.33909 36.8936C9.71294 38.1775 12.6071 38.8195 16.0215 38.8195C21.1594 38.8195 25.0779 37.4039 27.777 34.5726C30.1018 32.1629 31.4373 29.0258 31.7834 25.1613H22.631C22.3799 26.4591 21.8514 27.5386 21.0456 28.3997C19.875 29.6179 18.2003 30.2269 16.0215 30.2269C13.8428 30.2269 12.1518 29.6014 10.9486 28.3504C9.77798 27.0993 9.19265 25.4039 9.19265 23.2639V1.78247H0.119995V23.0664C0.119995 26.2928 0.737846 29.0911 1.97355 31.4615C3.20925 33.7989 4.99776 35.6096 7.33909 36.8936Z" fill="white"/>
<path d="M22.8016 13.4654H31.8743V1.78247H22.8016V13.4654Z" fill="white"/>
<path d="M33.5563 25.1613V37.8319H41.9461V25.1613H33.5563Z" fill="white"/>
<path d="M41.9461 13.4654H33.5563V1.78247H48.4335L53.2517 13.4654H44.4818L42.6778 9.09111H41.9461V13.4654Z" fill="white"/>
<path d="M49.3053 25.1613L54.5308 37.8319H69.5055V25.1613H61.0182V30.5232H60.2865L58.0752 25.1613H49.3053Z" fill="white"/>
<path d="M61.0182 13.4654H69.5055V1.78247H61.0182V13.4654Z" fill="white"/>
<path d="M71.933 25.1613V37.8319H81.0056V25.1613H71.933Z" fill="white"/>
<path d="M81.0056 13.4654H71.933V1.78247H81.0056V13.4654Z" fill="white"/>
<path d="M82.3671 25.1613C82.4277 25.3841 82.4924 25.6076 82.5612 25.8318C83.179 27.7084 84.0895 29.5026 85.2927 31.2146C86.5284 32.9265 88.073 34.4244 89.9266 35.7084C91.7802 36.9594 93.9426 37.8483 96.414 38.3751V38.8195C96.414 41.5191 96.8856 43.5767 97.8286 44.9923C98.8041 46.408 100.154 47.3792 101.877 47.9059C103.601 48.4327 105.633 48.696 107.974 48.696H112.852V41.7825H107.779C106.869 41.7825 106.153 41.552 105.633 41.0911C105.145 40.6302 104.901 39.9388 104.901 39.017V38.4738C107.47 37.98 109.698 37.1076 111.584 35.8565C113.502 34.6055 115.08 33.124 116.315 31.4121C117.584 29.6672 118.527 27.8236 119.144 25.8812C119.795 23.9388 120.12 22.0623 120.12 20.2516V19.1652C120.12 16.8936 119.697 14.6714 118.852 12.4985C118.039 10.2928 116.819 8.30098 115.193 6.52321C113.568 4.74543 111.551 3.32979 109.145 2.27629C106.771 1.22279 104.023 0.696045 100.902 0.696045C97.7473 0.696045 94.967 1.22279 92.5606 2.27629C90.1867 3.32979 88.1869 4.74543 86.5609 6.52321C84.935 8.30098 83.7156 10.2928 82.9026 12.4985C82.7824 12.8197 82.6711 13.142 82.5687 13.4654H92.1815V14.0606C92.5545 13.3877 93.006 12.7682 93.5362 12.2022C95.3572 10.2598 97.8123 9.28864 100.902 9.28864C102.95 9.28864 104.722 9.73308 106.218 10.622C107.747 11.4779 108.917 12.696 109.73 14.2763C110.543 15.8236 110.95 17.6508 110.95 19.7578C110.95 21.7331 110.543 23.5109 109.73 25.0911C108.917 26.6714 107.763 27.9224 106.267 28.8442C104.771 29.766 102.983 30.2269 100.902 30.2269C98.8204 30.2269 97.0319 29.766 95.536 28.8442C94.0624 27.9361 92.9201 26.7084 92.1093 25.1613H82.3671Z" fill="white"/>
<rect x="18" y="13" width="79" height="12" fill="url(#paint0_linear_8_738)"/>
<defs>
<linearGradient id="paint0_linear_8_738" x1="18" y1="19" x2="97" y2="19" gradientUnits="userSpaceOnUse">
<stop stop-color="#732982"/>
<stop offset="0.2" stop-color="#24408E"/>
<stop offset="0.4" stop-color="#008026"/>
<stop offset="0.6" stop-color="#FFED00"/>
<stop offset="0.8" stop-color="#FF8C00"/>
<stop offset="1" stop-color="#E40303"/>
</linearGradient>
</defs>
</svg>
