<svg width="20" height="20" viewBox="0 0 20 20" fill="none" xmlns="http://www.w3.org/2000/svg">
<path d="M2.00727 4H0.451172V9H0.458952L0.451172 18C0.452403 18.5299 0.616744 19.0377 0.908303 19.4125C1.19986 19.7872 1.59495 19.9984 2.00727 20H16.0121V18H2.00727V4ZM17.5682 2H11.3439L9.78776 0H5.11946C4.70811 0.00264352 4.31431 0.214524 4.02416 0.58931C3.73402 0.964097 3.57114 1.4713 3.57115 2L3.56337 14C3.5646 14.5299 3.72894 15.0377 4.0205 15.4125C4.31206 15.7872 4.70714 15.9984 5.11946 16H17.5682C17.9806 15.9984 18.3757 15.7872 18.6672 15.4125C18.9588 15.0377 19.1231 14.5299 19.1243 14V4C19.1231 3.47005 18.9588 2.96227 18.6672 2.58753C18.3757 2.2128 17.9806 2.00158 17.5682 2ZM5.89751 13L9.39873 7L12.1219 11.51L14.067 8.5L16.7902 13H5.89751Z" fill="#C4C4C4"/>
</svg>
