<svg width="20" height="20" viewBox="0 0 20 20" fill="none" xmlns="http://www.w3.org/2000/svg">
<path d="M19.0002 9.50003C19.0037 10.8199 18.6953 12.1219 18.1002 13.3C17.3947 14.7118 16.31 15.8992 14.9677 16.7293C13.6254 17.5594 12.0785 17.9994 10.5002 18C9.18036 18.0035 7.87835 17.6951 6.70023 17.1L1.00024 19L2.90024 13.3C2.30517 12.1219 1.9968 10.8199 2.00024 9.50003C2.00085 7.92179 2.44085 6.37488 3.27096 5.03258C4.10107 3.69028 5.28849 2.6056 6.70023 1.90003C7.87835 1.30496 9.18036 0.996587 10.5002 1.00003H11.0002C13.0846 1.11502 15.0533 1.99479 16.5294 3.47089C18.0055 4.94699 18.8852 6.91568 19.0002 9.00003V9.50003Z" stroke="#274B89" stroke-width="2" stroke-linecap="round" stroke-linejoin="round"/>
</svg>
