<svg width="25" height="19" viewBox="0 0 25 19" fill="none" xmlns="http://www.w3.org/2000/svg">
<g clip-path="url(#clip0_2665_32777)">
<path d="M2.77193 0.464844C2.03677 0.464844 1.33172 0.756885 0.811879 1.27672C0.292042 1.79656 0 2.50161 0 3.23677L0 15.7105C0 16.4456 0.292042 17.1507 0.811879 17.6705C1.33172 18.1903 2.03677 18.4824 2.77193 18.4824H8.31579V0.464844H2.77193Z" fill="#009A49"/>
<path d="M8.3158 0.464844H16.6316V18.4824H8.3158V0.464844Z" fill="#EEEEEE"/>
<path d="M22.1755 0.464844H16.6316V18.4824H22.1755C22.9106 18.4824 23.6157 18.1903 24.1355 17.6705C24.6553 17.1507 24.9474 16.4456 24.9474 15.7105V3.23677C24.9474 2.50161 24.6553 1.79656 24.1355 1.27672C23.6157 0.756885 22.9106 0.464844 22.1755 0.464844Z" fill="#009A49"/>
</g>
<defs>
<clipPath id="clip0_2665_32777">
<rect width="25" height="19" fill="white"/>
</clipPath>
</defs>
</svg>
