<svg width="45" height="46" viewBox="0 0 45 46" fill="#FCEA2B" xmlns="http://www.w3.org/2000/svg">
<path d="M34.4123 8.18164C34.7345 8.39349 35.048 8.62225 35.3529 8.86792C41.7464 14.0207 41.7286 24.6505 35.3142 32.6087C28.8998 40.5669 18.5162 42.8426 12.1228 37.6898C11.6303 37.293 11.1697 36.8583 10.7451 36.3896" stroke="black" stroke-width="1.38386" stroke-miterlimit="10"/>
<path d="M33.2305 30.85C39.6128 22.9316 39.8964 12.571 33.864 7.70888C27.8316 2.84675 17.7676 5.32431 11.3854 13.2427C5.00316 21.161 4.71955 31.5216 10.7519 36.3837C16.7843 41.2459 26.8483 38.7683 33.2305 30.85Z" stroke="black" stroke-width="1.38386" stroke-miterlimit="10"/>
<path d="M33.2302 30.8496L35.3144 32.6097" stroke="black" stroke-width="1.38386" stroke-miterlimit="10"/>
<path d="M31.0376 33.2246L32.8744 35.1991" stroke="black" stroke-width="1.38386" stroke-miterlimit="10"/>
<path d="M28.7164 35.1543L30.2247 37.2613" stroke="black" stroke-width="1.38386" stroke-miterlimit="10"/>
<path d="M26.1708 36.8535L27.3581 38.9745" stroke="black" stroke-width="1.38386" stroke-miterlimit="10"/>
<path d="M34.9192 28.4766L37.1322 30.0077" stroke="black" stroke-width="1.38386" stroke-miterlimit="10"/>
<path d="M13.7446 28.4428C13.7909 28.2956 14.1315 27.0385 14.1766 26.8913C17.9302 26.9586 18.1154 26.8336 18.6729 24.9834C19.7258 21.4899 20.0328 20.8645 21.0863 17.3709C21.4561 16.1455 21.3908 15.8779 19.6338 15.543L18.5638 15.3457C18.6038 15.2163 18.8435 14.0296 18.8835 13.9008C21.4739 13.902 24.0617 13.7349 26.6305 13.4004L23.1426 25.4515C22.5984 27.3328 22.6656 27.4837 26.2696 28.1802C26.2277 28.3286 25.889 29.587 25.8478 29.736L13.7446 28.4428Z" stroke="black" stroke-width="1.38386" stroke-linecap="round" stroke-linejoin="round"/>
</svg>
