<svg width="37" height="38" viewBox="0 0 37 38" fill="none" xmlns="http://www.w3.org/2000/svg">
<path d="M30.8309 34.682L27.4729 23.8568L2.34725 13.4778C0.0695004 13.4778 -0.869778 16.4131 0.985297 17.7281L9.53273 23.8334L6.17481 34.6585C5.49383 36.8424 8.02989 38.6035 9.838 37.2181L18.5028 30.6431L27.1677 37.2416C28.9758 38.627 31.5118 36.8658 30.8309 34.682ZM19.8588 2.38678L23.2697 13.6173V14.4406H24.209H34.6584C36.0175 14.4406 36.5915 16.1792 35.4724 16.9887C35.4718 16.9891 35.4713 16.9894 35.4708 16.9898L26.927 23.0925L26.3748 23.487L26.5758 24.1351L29.9338 34.9603L29.9342 34.9616C30.3412 36.2669 28.8227 37.3264 27.739 36.496L27.7367 36.4943L19.0719 29.8959L18.5039 29.4633L17.9351 29.8949L9.27021 36.4698L9.26671 36.4725C8.18295 37.3029 6.66449 36.2434 7.0715 34.9382L7.07192 34.9368L10.4298 24.1116L10.6309 23.4635L10.0787 23.069L1.53124 16.9637L1.52849 16.9618C0.42573 16.1801 0.978326 14.4171 2.34725 14.4171H12.7967H13.4917L13.6949 13.7525L17.1703 2.38721L17.1703 2.38722L17.173 2.37809C17.561 1.06154 19.4429 1.02707 19.8585 2.38594C19.8586 2.38622 19.8587 2.3865 19.8588 2.38678Z" stroke="#BBC4D4" stroke-width="1.87856"/>
</svg>
