<svg width="159" height="159" viewBox="0 0 159 159" fill="none" xmlns="http://www.w3.org/2000/svg">
<path d="M117.336 109.869L14.3281 154.69C7.61357 157.362 0.940743 150.747 3.55458 144.01L48.5681 39.3809" fill="#FFB636"/>
<path d="M3.55482 144.009L7.1322 135.694C7.43897 135.226 7.7448 134.758 8.05188 134.291C25.8452 107.184 43.8992 80.2433 62.5698 53.7324L83.5043 75.1905C67.7088 86.0345 16.4207 139.036 5.67777 153.095C3.33919 150.944 2.20265 147.495 3.55482 144.009Z" fill="#FFD469"/>
<path d="M94.4224 63.1559C113.531 82.2643 123.982 102.794 117.766 109.01C111.55 115.226 91.0208 104.775 71.9121 85.6662C52.8035 66.5578 42.3524 46.0284 48.5684 39.8121C54.7843 33.5959 75.3137 44.0472 94.4224 63.1559Z" fill="#A06C33"/>
<path d="M48.4595 101.197C48.4595 103.054 46.9538 104.559 45.0968 104.559C43.2398 104.559 41.7341 103.054 41.7341 101.197C41.7341 99.3394 43.2395 97.834 45.0968 97.834C46.9541 97.834 48.4595 99.3394 48.4595 101.197Z" fill="#F7F9AA"/>
<path d="M155.467 65.8515C155.467 68.5169 153.307 70.6775 150.641 70.6775C147.976 70.6775 145.815 68.5169 145.815 65.8515C145.815 63.186 147.976 61.0254 150.641 61.0254C153.307 61.0254 155.467 63.186 155.467 65.8515ZM123.239 130.115C120.574 130.115 118.413 132.276 118.413 134.941C118.413 137.607 120.574 139.767 123.239 139.767C125.905 139.767 128.065 137.607 128.065 134.941C128.065 132.276 125.904 130.115 123.239 130.115Z" fill="#FFB636"/>
<path d="M110.353 24.5667C109.939 27.3672 108.129 29.8407 105.388 31.3532C103.496 32.3974 101.27 32.9402 98.9604 32.9402C98.2245 32.9399 97.4897 32.8855 96.7618 32.7777C95.1282 32.5361 93.493 32.7826 92.2761 33.4539C91.7306 33.7548 90.7933 34.4132 90.641 35.4428C90.489 36.4725 91.1958 37.3739 91.6305 37.8197C92.5752 38.7882 94.017 39.482 95.5999 39.7412C95.6435 39.7459 95.6867 39.7474 95.7303 39.7539C102.409 40.7412 107.179 46.0313 106.364 51.5466C105.95 54.3473 104.141 56.8209 101.399 58.3334C99.5066 59.3776 97.2814 59.9204 94.9715 59.9204C94.2357 59.92 93.5008 59.8657 92.7729 59.7579C91.1396 59.516 89.5038 59.7625 88.287 60.4341C87.7414 60.735 86.8041 61.3933 86.6518 62.423C86.4078 64.0754 88.4368 66.2571 91.7399 66.7452C93.5369 67.0109 94.7785 68.6831 94.5128 70.4804C94.2712 72.1146 92.8668 73.2892 91.2629 73.2892C91.1025 73.2892 90.9407 73.2774 90.7775 73.2533C84.0988 72.266 79.3287 66.9756 80.144 61.4607C80.5579 58.6599 82.3673 56.1864 85.1087 54.6738C87.5971 53.301 90.6608 52.795 93.7352 53.2494C95.3688 53.4907 97.0037 53.2444 98.2208 52.5731C98.7664 52.2722 99.7037 51.6139 99.856 50.5843C100.096 48.9587 98.1331 46.8243 94.9246 46.2908C94.8721 46.2855 94.8192 46.2812 94.7664 46.2735C91.6923 45.8188 88.9058 44.4484 86.9212 42.4141C84.7349 40.1731 83.7186 37.2816 84.1328 34.4805C84.5468 31.6801 86.3562 29.2065 89.0973 27.694C91.5857 26.3211 94.6493 25.8151 97.7238 26.2695C99.3568 26.5105 100.993 26.2646 102.209 25.5933C102.755 25.2924 103.692 24.6341 103.845 23.6044C103.997 22.5748 103.29 21.6733 102.855 21.2275C101.884 20.2328 100.391 19.5235 98.7565 19.2822C96.9595 19.0165 95.7179 17.3443 95.9836 15.547C96.249 13.7496 97.9218 12.5096 99.7188 12.7737C102.793 13.2285 105.579 14.5989 107.564 16.6332C109.751 18.8744 110.767 21.766 110.353 24.5667Z" fill="#BEA4FF"/>
<path d="M25.6388 49.3322C25.6388 52.3525 23.1902 54.8011 20.1699 54.8011C17.1495 54.8011 14.7009 52.3525 14.7009 49.3322C14.7009 46.3118 17.1495 43.8632 20.1699 43.8632C23.1902 43.8632 25.6388 46.3115 25.6388 49.3322ZM123.397 43.0137C119.908 43.0137 117.079 45.8425 117.079 49.3319C117.079 52.8212 119.908 55.65 123.397 55.65C126.887 55.65 129.715 52.8212 129.715 49.3319C129.715 45.8425 126.887 43.0137 123.397 43.0137ZM66.9727 122.304C63.483 122.304 60.6545 125.133 60.6545 128.622C60.6545 132.111 63.4833 134.94 66.9727 134.94C70.4623 134.94 73.2908 132.111 73.2908 128.622C73.2908 125.133 70.4623 122.304 66.9727 122.304ZM150.786 93.3741C151.741 91.5239 151.016 89.2493 149.166 88.2938C148.428 87.9132 147.547 87.4077 146.528 86.8229C137.571 81.6846 118.935 70.9929 96.9908 88.7102C95.3705 90.0182 95.1178 92.3923 96.4258 94.0123C97.7335 95.6326 100.107 95.886 101.728 94.5773C119.656 80.1022 134.129 88.4034 142.775 93.3639C143.827 93.9669 144.82 94.5366 145.705 94.9938C146.145 95.221 146.625 95.3594 147.119 95.401C147.612 95.4426 148.109 95.3866 148.581 95.2362C149.052 95.0858 149.49 94.844 149.868 94.5244C150.247 94.2049 150.558 93.814 150.786 93.3741Z" fill="#FF6E83"/>
<path d="M134.722 19.3938C134.722 21.2511 133.216 22.7565 131.359 22.7565C129.502 22.7565 127.997 21.2511 127.997 19.3938C127.997 17.5365 129.502 16.0311 131.359 16.0311C133.217 16.0308 134.722 17.5365 134.722 19.3938ZM14.7008 3.67495C12.8435 3.67495 11.3381 5.18036 11.3381 7.03763C11.3381 8.8949 12.8435 10.4003 14.7008 10.4003C16.5581 10.4003 18.0638 8.8949 18.0638 7.03763C18.0638 5.18036 16.5581 3.67495 14.7008 3.67495ZM67.4288 47.5602C67.8091 46.8145 68.2781 45.9652 68.7745 45.0663C71.2935 40.5031 74.743 34.2541 74.9506 26.9758C75.1999 18.2319 70.646 10.2931 61.4159 3.37993C59.8134 2.17975 57.5422 2.50628 56.343 4.10807C55.1431 5.71017 55.469 7.9814 57.0711 9.18096C64.4081 14.6762 67.8866 20.4293 67.7059 26.7691C67.5484 32.2903 64.7103 37.4321 62.4294 41.5633C61.904 42.5158 61.4072 43.415 60.9735 44.2655C60.0637 46.0483 60.7714 48.2309 62.5539 49.1407C63.0629 49.4015 63.6265 49.5376 64.1984 49.5377C64.8668 49.5381 65.5224 49.3536 66.0925 49.0046C66.6626 48.6556 67.1251 48.1557 67.4288 47.5602Z" fill="#59CAFC"/>
</svg>
