<svg width="14" height="15" viewBox="0 0 14 15" fill="none" xmlns="http://www.w3.org/2000/svg">
<path d="M13.8089 2.41218L12.0271 0.630362C11.7725 0.375817 11.3271 0.375817 11.0089 0.630362L10.1816 1.45763L12.9816 4.25763L13.8089 3.43036C14.0635 3.17581 14.0635 2.73036 13.8089 2.41218Z" fill="#274B89"/>
<path d="M0.933594 10.727L8.76276 2.89844L11.5526 5.68825L3.72277 13.5161L0.933594 10.727Z" fill="#274B89"/>
<path d="M12.9819 4.28234L11.587 5.67725L8.79785 2.88743L10.1928 1.49316L12.9819 4.28234Z" fill="#274B89"/>
<path d="M0.954544 10.749L0 14.4399L3.6909 13.4854L0.954544 10.749Z" fill="#274B89"/>
<path d="M0.445454 12.5322L0 14.4413L1.90909 13.9959L0.445454 12.5322Z" fill="#274B89"/>
</svg>
