<svg width="11" height="10" viewBox="0 0 11 10" fill="none" xmlns="http://www.w3.org/2000/svg">
<path d="M4.05263 4.96474C5.17 4.96474 6.07895 4.05579 6.07895 2.93842C6.07895 1.82106 5.17 0.912109 4.05263 0.912109C2.93526 0.912109 2.02632 1.82106 2.02632 2.93842C2.02632 4.05579 2.93526 4.96474 4.05263 4.96474ZM4.05263 2.07C4.53316 2.07 4.92105 2.4579 4.92105 2.93842C4.92105 3.41895 4.53316 3.80684 4.05263 3.80684C3.57211 3.80684 3.18421 3.41895 3.18421 2.93842C3.18421 2.4579 3.57211 2.07 4.05263 2.07ZM4.05263 5.9779C2.69789 5.9779 0 6.65526 0 8.00421V9.01737H8.10526V8.00421C8.10526 6.65526 5.40737 5.9779 4.05263 5.9779ZM1.35474 7.85947C1.84105 7.52368 3.01632 7.13579 4.05263 7.13579C5.08895 7.13579 6.26421 7.52368 6.75053 7.85947H1.35474ZM6.94737 4.96474C8.06474 4.96474 8.97368 4.05579 8.97368 2.93842C8.97368 1.82106 8.06474 0.912109 6.94737 0.912109C6.80842 0.912109 6.66947 0.923688 6.53632 0.952636C6.99167 1.51376 7.23923 2.21495 7.23712 2.93759C7.23501 3.66023 6.98336 4.35996 6.52474 4.91842C6.66368 4.94737 6.80263 4.96474 6.94737 4.96474ZM8.29053 6.13421C8.86947 6.60316 9.26316 7.21684 9.26316 8.00421V9.01737H11V8.00421C11 7.02579 9.58737 6.40632 8.29053 6.13421Z" fill="#C4C4C4"/>
</svg>
