<svg width="16" height="26" viewBox="0 0 16 26" fill="none" xmlns="http://www.w3.org/2000/svg">
<path d="M14.0552 25.6686H2.32406C1.55361 25.6686 0.929199 25.0442 0.929199 24.2738V22.252H15.45V24.2738C15.45 25.0442 14.8256 25.6686 14.0552 25.6686Z" fill="#EDF0F3"/>
<path d="M9.47077 24.3873H6.90827C6.67254 24.3873 6.4812 24.196 6.4812 23.9603C6.4812 23.7245 6.67254 23.5332 6.90827 23.5332H9.47077C9.70649 23.5332 9.89783 23.7245 9.89783 23.9603C9.89783 24.196 9.70649 24.3873 9.47077 24.3873Z" fill="#B8BEC3"/>
<path d="M13.3146 24.3873H11.6063C11.3705 24.3873 11.1792 24.196 11.1792 23.9603C11.1792 23.7245 11.3705 23.5332 11.6063 23.5332H13.3146C13.5503 23.5332 13.7416 23.7245 13.7416 23.9603C13.7416 24.196 13.5503 24.3873 13.3146 24.3873Z" fill="#B8BEC3"/>
<path d="M4.77283 24.3873H3.06452C2.82879 24.3873 2.63745 24.196 2.63745 23.9603C2.63745 23.7245 2.82879 23.5332 3.06452 23.5332H4.77283C5.00856 23.5332 5.1999 23.7245 5.1999 23.9603C5.19995 24.196 5.00861 24.3873 4.77283 24.3873Z" fill="#B8BEC3"/>
<path d="M2.32381 0.898438H14.0553C14.8254 0.898438 15.4498 1.52285 15.4498 2.2933V4.31512H0.928955V2.2933C0.928955 1.52285 1.55336 0.898438 2.32381 0.898438Z" fill="#EDF0F3"/>
<path d="M10.3251 3.03382H6.05426C5.81853 3.03382 5.6272 2.84248 5.6272 2.60675C5.6272 2.37102 5.81853 2.17969 6.05426 2.17969H10.3251C10.5608 2.17969 10.7521 2.37102 10.7521 2.60675C10.7521 2.84248 10.5608 3.03382 10.3251 3.03382Z" fill="#B8BEC3"/>
<path d="M15.45 4.31445H0.929199V22.2519H15.45V4.31445Z" fill="#5E7398"/>
<path d="M7.33538 6.02344H2.63745V10.2943H7.33538V6.02344Z" fill="#93A7CA"/>
<path d="M13.7419 6.02344H9.04395V10.2943H13.7419V6.02344Z" fill="#97B0DD"/>
<path d="M7.33538 12.002H2.63745V16.2728H7.33538V12.002Z" fill="#97B0DD"/>
<path d="M13.7419 12.002H9.04395V16.2728H13.7419V12.002Z" fill="#97B0DD"/>
<path d="M7.33538 17.9824H2.63745V22.2532H7.33538V17.9824Z" fill="#97B0DD"/>
<path d="M13.7419 17.9824H9.04395V22.2532H13.7419V17.9824Z" fill="#97B0DD"/>
</svg>
