<svg width="21" height="23" viewBox="0 0 21 23" fill="none" xmlns="http://www.w3.org/2000/svg">
<path d="M12.0456 9.52527C11.8804 9.69961 11.6469 9.79147 11.4067 9.77659C11.3236 9.77133 9.34856 9.63556 7.32846 8.547C5.4195 7.5183 3.11589 5.43098 2.98213 1.32852C2.97477 1.10479 3.06042 0.888067 3.21865 0.729761C3.46 0.488281 3.74326 0.488281 3.86423 0.488281C3.86427 0.488281 3.86427 0.488281 3.86427 0.488281C3.94984 0.488281 5.96156 0.502735 8.03439 1.74563C9.11042 2.39087 10.005 3.24864 10.6934 4.29521C11.525 5.55952 12.0526 7.09996 12.2618 8.87362C12.29 9.11223 12.2107 9.35089 12.0456 9.52527Z" fill="#B5C4DD"/>
<path d="M10.7188 4.33594C10.3794 4.96241 10.0931 5.66799 9.88767 6.46286C9.70293 7.01458 9.42083 7.98392 9.18799 9.32508C10.4161 9.70943 11.3502 9.77366 11.4068 9.77721C11.647 9.79213 11.8805 9.70028 12.0457 9.52589C12.2108 9.35151 12.2901 9.11285 12.2619 8.87432C12.0549 7.11913 11.5354 5.59277 10.7188 4.33594Z" fill="#6E85AE"/>
<path d="M11.351 8.13648L9.60677 6.4356L9.14682 4.14362C9.11043 3.96196 8.93369 3.84441 8.752 3.88076C8.57034 3.91719 8.45274 4.09401 8.48913 4.27558L8.75619 5.60618L7.79424 4.66814L7.32796 2.34464C7.29157 2.16299 7.11475 2.04556 6.93314 2.08178C6.75148 2.11822 6.63389 2.295 6.67028 2.47661L6.94361 3.83868L4.69893 1.64993C4.56619 1.52061 4.354 1.52335 4.22465 1.65591C4.09533 1.78856 4.09803 2.00088 4.23063 2.13015L6.69884 4.53699L4.97705 4.50757C4.79202 4.50252 4.63919 4.65198 4.63598 4.83718C4.63286 5.02239 4.78039 5.17505 4.96559 5.17826L7.39908 5.21986L8.54404 6.33639L6.79591 6.30659C6.61238 6.30248 6.45805 6.45099 6.45484 6.6362C6.45172 6.8214 6.59925 6.97407 6.78445 6.97727L9.24423 7.01927L10.8825 8.61679C10.9478 8.68037 11.0322 8.71202 11.1166 8.71202C11.2038 8.71202 11.291 8.67815 11.3568 8.61076C11.4862 8.47806 11.4836 8.26575 11.351 8.13648Z" fill="#5E7398"/>
<path d="M19.9529 0.741161C19.7877 0.566818 19.5541 0.474964 19.314 0.489846C19.2309 0.495105 17.2558 0.630876 15.2357 1.71944C13.6834 2.55591 11.8703 4.09246 11.175 6.84319C10.7952 7.96156 9.95856 10.9945 10.1542 15.5611C10.1712 15.9562 10.4968 16.2651 10.8885 16.265C10.8991 16.265 10.9098 16.2648 10.9205 16.2644C11.3263 16.247 11.6411 15.904 11.6238 15.4981C11.5224 13.1324 11.7172 11.1983 11.9682 9.77122C12.533 9.73885 14.216 9.55549 15.9417 8.52081C17.0177 7.87556 17.9123 7.01779 18.6007 5.97122C19.4322 4.70691 19.9599 3.16648 20.1691 1.39282C20.1973 1.1542 20.118 0.915546 19.9529 0.741161Z" fill="#B5C4DD"/>
<path d="M18.8967 1.65593C18.7673 1.52332 18.555 1.52063 18.4224 1.64994L16.1779 3.83865L16.4512 2.47663C16.4876 2.29501 16.37 2.11828 16.1883 2.0818C16.0069 2.04554 15.83 2.16301 15.7935 2.34466L15.3272 4.66816L14.3653 5.6062L14.6323 4.2756C14.6688 4.09399 14.5511 3.91725 14.3695 3.88077C14.1879 3.84442 14.0111 3.96198 13.9747 4.14363L13.5147 6.43566L11.7704 8.13654C11.6378 8.26585 11.6352 8.47817 11.7644 8.61077C11.8302 8.67817 11.9173 8.71199 12.0046 8.71199C12.0891 8.71199 12.1736 8.68035 12.2387 8.61676L13.877 7.01924L16.3369 6.97725C16.5221 6.97408 16.6696 6.82142 16.6665 6.63617C16.6634 6.45289 16.5138 6.30652 16.3313 6.30652C16.3293 6.30652 16.3273 6.30652 16.3254 6.30656L14.5772 6.33637L15.7222 5.21984L18.1557 5.17823C18.3409 5.17507 18.4884 5.0224 18.4853 4.83716C18.4822 4.65388 18.3326 4.5075 18.1501 4.5075C18.1481 4.5075 18.1461 4.5075 18.1442 4.50754L16.4224 4.53696L18.8906 2.13012C19.0233 2.00085 19.026 1.78853 18.8967 1.65593Z" fill="#5E7398"/>
<path d="M19.156 18.0261C18.8177 18.0261 18.5018 18.1214 18.2333 18.2864C17.8367 16.9889 16.6301 16.045 15.2028 16.045C15.0444 16.045 14.8889 16.057 14.7367 16.0794C14.0897 14.5993 12.6134 13.5645 10.8947 13.5645C9.17604 13.5645 7.69967 14.5993 7.05267 16.0794C6.90052 16.057 6.74495 16.045 6.58665 16.045C5.15932 16.045 3.95274 16.9889 3.55611 18.2864C3.28761 18.1214 2.97172 18.0261 2.63343 18.0261C1.65866 18.0261 0.868408 18.8163 0.868408 19.7911C0.868408 20.7659 1.65866 21.5561 2.63343 21.5561C3.15582 21.5561 3.625 21.3291 3.94812 20.9684C4.51609 21.8207 5.4856 22.3825 6.5866 22.3825C7.47824 22.3825 8.28342 22.0137 8.85917 21.421C9.462 21.7566 10.1558 21.9484 10.8947 21.9484C11.6336 21.9484 12.3274 21.7565 12.9302 21.421C13.5061 22.0137 14.3112 22.3825 15.2028 22.3825C16.3038 22.3825 17.2734 21.8208 17.8413 20.9684C18.1645 21.3291 18.6336 21.5561 19.156 21.5561C20.1308 21.5561 20.921 20.7659 20.921 19.7911C20.921 18.8163 20.1308 18.0261 19.156 18.0261Z" fill="#6E85AE"/>
<path d="M13.199 15.2805C13.6159 15.2805 14.0181 15.3422 14.3982 15.4555C13.6487 14.3167 12.3598 13.5645 10.8947 13.5645C9.176 13.5645 7.69967 14.5993 7.05267 16.0794C6.90053 16.057 6.74495 16.045 6.58665 16.045C5.15932 16.045 3.95274 16.9889 3.55611 18.2864C3.28761 18.1213 2.97172 18.0261 2.63343 18.0261C1.65866 18.0261 0.868408 18.8163 0.868408 19.7911C0.868408 20.7659 1.65866 21.5561 2.63343 21.5561C3.15582 21.5561 3.62501 21.329 3.94812 20.9684C4.51609 21.8207 5.4856 22.3825 6.58661 22.3825C7.47825 22.3825 8.28342 22.0137 8.85917 21.4209C9.12208 21.5673 9.40226 21.6862 9.69591 21.7739C9.26093 21.1132 9.00709 20.3226 9.00709 19.4724C9.00709 17.1573 10.8839 15.2805 13.199 15.2805Z" fill="#5E7398"/>
<path d="M12.5617 19.2523C12.9814 19.2523 13.3216 18.9121 13.3216 18.4924C13.3216 18.0727 12.9814 17.7324 12.5617 17.7324C12.142 17.7324 11.8018 18.0727 11.8018 18.4924C11.8018 18.9121 12.142 19.2523 12.5617 19.2523Z" fill="#5E7398"/>
<path d="M15.6259 21.0413C16.0456 21.0413 16.3858 20.7011 16.3858 20.2814C16.3858 19.8617 16.0456 19.5215 15.6259 19.5215C15.2062 19.5215 14.866 19.8617 14.866 20.2814C14.866 20.7011 15.2062 21.0413 15.6259 21.0413Z" fill="#5E7398"/>
<path d="M15.1584 17.9735C15.3199 17.9735 15.4508 17.8426 15.4508 17.6811C15.4508 17.5196 15.3199 17.3887 15.1584 17.3887C14.9969 17.3887 14.866 17.5196 14.866 17.6811C14.866 17.8426 14.9969 17.9735 15.1584 17.9735Z" fill="#5E7398"/>
<path d="M10.8947 20.8661C11.0562 20.8661 11.1871 20.7352 11.1871 20.5737C11.1871 20.4122 11.0562 20.2812 10.8947 20.2812C10.7332 20.2812 10.6023 20.4122 10.6023 20.5737C10.6023 20.7352 10.7332 20.8661 10.8947 20.8661Z" fill="#5E7398"/>
<path d="M11.8017 16.8797C11.9632 16.8797 12.0941 16.7488 12.0941 16.5873C12.0941 16.4258 11.9632 16.2949 11.8017 16.2949C11.6402 16.2949 11.5093 16.4258 11.5093 16.5873C11.5093 16.7488 11.6402 16.8797 11.8017 16.8797Z" fill="#5E7398"/>
<path d="M18.0937 19.5438C18.2552 19.5438 18.3861 19.4129 18.3861 19.2514C18.3861 19.0899 18.2552 18.959 18.0937 18.959C17.9322 18.959 17.8013 19.0899 17.8013 19.2514C17.8013 19.4129 17.9322 19.5438 18.0937 19.5438Z" fill="#5E7398"/>
<path d="M16.3859 14.8128C16.8056 14.8128 17.1458 14.4726 17.1458 14.0529C17.1458 13.6332 16.8056 13.293 16.3859 13.293C15.9662 13.293 15.626 13.6332 15.626 14.0529C15.626 14.4726 15.9662 14.8128 16.3859 14.8128Z" fill="#5E7398"/>
<path d="M18.0939 16.0438C18.2554 16.0438 18.3863 15.9129 18.3863 15.7514C18.3863 15.5899 18.2554 15.459 18.0939 15.459C17.9324 15.459 17.8015 15.5899 17.8015 15.7514C17.8015 15.9129 17.9324 16.0438 18.0939 16.0438Z" fill="#5E7398"/>
<path d="M18.0939 14.6376C18.2554 14.6376 18.3863 14.5066 18.3863 14.3451C18.3863 14.1836 18.2554 14.0527 18.0939 14.0527C17.9324 14.0527 17.8015 14.1836 17.8015 14.3451C17.8015 14.5066 17.9324 14.6376 18.0939 14.6376Z" fill="#5E7398"/>
<path d="M4.75969 14.5453C5.17939 14.5453 5.51962 14.205 5.51962 13.7853C5.51962 13.3656 5.17939 13.0254 4.75969 13.0254C4.33999 13.0254 3.99976 13.3656 3.99976 13.7853C3.99976 14.205 4.33999 14.5453 4.75969 14.5453Z" fill="#5E7398"/>
<path d="M3.49773 15.7528C3.65923 15.7528 3.79014 15.6219 3.79014 15.4604C3.79014 15.2989 3.65923 15.168 3.49773 15.168C3.33624 15.168 3.20532 15.2989 3.20532 15.4604C3.20532 15.6219 3.33624 15.7528 3.49773 15.7528Z" fill="#5E7398"/>
</svg>
