<svg width="21" height="19" viewBox="0 0 21 19" fill="none" xmlns="http://www.w3.org/2000/svg">
<path d="M0 3C0 1.34314 1.34315 0 3 0H18C19.6569 0 21 1.34315 21 3V15.9C21 17.5569 19.6569 18.9 18 18.9H3C1.34315 18.9 0 17.5569 0 15.9V3Z" fill="#39B54A"/>
<path d="M15 15H13V13H9V15H7V13C7.00053 12.4697 7.21141 11.9613 7.58637 11.5864C7.96133 11.2114 8.46973 11.0005 9 11H13C13.5303 11.0005 14.0387 11.2114 14.4136 11.5864C14.7886 11.9613 14.9995 12.4697 15 13V15Z" fill="white"/>
<path d="M11 10C10.4067 10 9.82664 9.82405 9.33329 9.49441C8.83994 9.16477 8.45543 8.69623 8.22836 8.14805C8.0013 7.59987 7.94189 6.99667 8.05765 6.41473C8.1734 5.83279 8.45912 5.29824 8.87868 4.87868C9.29824 4.45912 9.83279 4.1734 10.4147 4.05765C10.9967 3.94189 11.5999 4.0013 12.1481 4.22836C12.6962 4.45543 13.1648 4.83994 13.4944 5.33329C13.8241 5.82664 14 6.40666 14 7C13.9992 7.79541 13.6829 8.55801 13.1204 9.12044C12.558 9.68288 11.7954 9.99921 11 10ZM11 6C10.8022 6 10.6089 6.05865 10.4444 6.16853C10.28 6.27841 10.1518 6.43459 10.0761 6.61732C10.0004 6.80004 9.98063 7.00111 10.0192 7.19509C10.0578 7.38907 10.153 7.56726 10.2929 7.70711C10.4327 7.84696 10.6109 7.9422 10.8049 7.98079C10.9989 8.01937 11.2 7.99957 11.3827 7.92388C11.5654 7.84819 11.7216 7.72002 11.8315 7.55557C11.9414 7.39112 12 7.19778 12 7C11.9997 6.73487 11.8943 6.48067 11.7068 6.29319C11.5193 6.10571 11.2651 6.00027 11 6Z" fill="white"/>
</svg>
