<svg width="13" height="10" viewBox="0 0 13 10" fill="none" xmlns="http://www.w3.org/2000/svg">
<path fill-rule="evenodd" clip-rule="evenodd" d="M5.72475 9.6189C5.72475 9.6189 4.97035 9.6189 4.97035 8.86029C4.97035 8.10168 5.72475 5.82587 8.74234 5.82587C11.7599 5.82587 12.5143 8.10168 12.5143 8.86029C12.5143 9.6189 11.7599 9.6189 11.7599 9.6189H5.72475ZM8.74234 5.06726C9.34257 5.06726 9.91822 4.82749 10.3427 4.40069C10.7671 3.97389 11.0055 3.39503 11.0055 2.79144C11.0055 2.18786 10.7671 1.609 10.3427 1.1822C9.91822 0.755398 9.34257 0.515625 8.74234 0.515625C8.1421 0.515625 7.56645 0.755398 7.14202 1.1822C6.71759 1.609 6.47915 2.18786 6.47915 2.79144C6.47915 3.39503 6.71759 3.97389 7.14202 4.40069C7.56645 4.82749 8.1421 5.06726 8.74234 5.06726ZM4.3789 9.6189C4.26707 9.38207 4.21129 9.12242 4.21595 8.86029C4.21595 7.83238 4.72894 6.77412 5.67647 6.03828C5.20353 5.89174 4.7108 5.82008 4.21595 5.82587C1.19837 5.82587 0.44397 8.10168 0.44397 8.86029C0.44397 9.6189 1.19837 9.6189 1.19837 9.6189H4.3789ZM3.83876 5.06726C4.33895 5.06726 4.81866 4.86745 5.17235 4.51178C5.52605 4.15612 5.72475 3.67373 5.72475 3.17075C5.72475 2.66776 5.52605 2.18537 5.17235 1.82971C4.81866 1.47404 4.33895 1.27423 3.83876 1.27423C3.33856 1.27423 2.85885 1.47404 2.50516 1.82971C2.15147 2.18537 1.95276 2.66776 1.95276 3.17075C1.95276 3.67373 2.15147 4.15612 2.50516 4.51178C2.85885 4.86745 3.33856 5.06726 3.83876 5.06726Z" fill="#C2E0FF"/>
</svg>
