<svg width="15" height="15" viewBox="0 0 15 15" fill="none" xmlns="http://www.w3.org/2000/svg">
<path fill-rule="evenodd" clip-rule="evenodd" d="M9.62308 8.69133H9.13019L8.95886 8.52124C9.5641 7.81544 9.93222 6.90043 9.93222 5.8979C9.93222 3.66936 8.1258 1.86295 5.89726 1.86295C3.66872 1.86295 1.8623 3.66936 1.8623 5.8979C1.8623 8.12644 3.66872 9.93286 5.89726 9.93286C6.89979 9.93286 7.81418 9.56537 8.51998 8.96074L8.69131 9.13083V9.62248L11.7939 12.7207L12.7194 11.7951L9.62308 8.69133ZM5.89689 8.69126C4.35367 8.69126 3.10345 7.44105 3.10345 5.89783C3.10345 4.35524 4.35367 3.1044 5.89689 3.1044C7.43948 3.1044 8.69032 4.35524 8.69032 5.89783C8.69032 7.44105 7.43948 8.69126 5.89689 8.69126Z" fill="#274B89"/>
<circle cx="9.31111" cy="3.10414" r="2.06921" fill="#39B54A" stroke="white" stroke-width="0.827683"/>
</svg>
