<svg width="14" height="15" viewBox="0 0 14 15" fill="none" xmlns="http://www.w3.org/2000/svg">
<g clip-path="url(#clip0_24619_17119)">
<path d="M3.09496 4.55542L3.4686 6.14686L3.09496 7.73138L4.48574 8.58938L5.33682 9.98016L6.92826 9.60652L8.5197 9.98016L9.37078 8.58938L10.7616 7.73138L10.3879 6.14686L10.7616 4.55542L9.3777 3.69742L8.5197 2.30664L6.92826 2.6872L5.34374 2.31356L4.47882 3.69742L3.09496 4.55542ZM6.93518 8.94226C6.20113 8.94226 5.49715 8.65067 4.9781 8.13162C4.45905 7.61257 4.16745 6.90858 4.16745 6.17454C4.16745 5.44049 4.45905 4.73651 4.9781 4.21746C5.49715 3.69841 6.20113 3.40681 6.93518 3.40681C8.45743 3.40681 9.69598 4.64537 9.69598 6.16762C9.69598 7.70371 8.45743 8.94226 6.93518 8.94226ZM6.92134 8.25033C5.77273 8.25033 4.85246 7.32314 4.85246 6.17454C4.85246 5.03285 5.77273 4.09874 6.92134 4.09874C8.06995 4.09874 9.00405 5.03285 9.00405 6.17454C9.00405 7.32314 8.06995 8.25033 6.92134 8.25033ZM9.57836 9.01146L8.69268 10.5614L7.25347 10.2362L9.00405 14.2701L9.97276 12.7479H11.7026L9.57836 9.01146ZM4.25048 9.05989L5.1154 10.6167L6.58921 10.2639L4.85246 14.2701L3.88376 12.7479H2.15393L4.25048 9.05989Z" fill="#39B54A"/>
<path d="M5.3208 6.44531C5.26176 6.44531 5.21839 6.4324 5.19072 6.40656C5.16488 6.37889 5.15197 6.33922 5.15197 6.28755C5.15197 6.25618 5.16027 6.22574 5.17688 6.19622C5.19348 6.16669 5.21747 6.13533 5.24884 6.10211L5.80515 5.50982C5.89003 5.42125 5.95092 5.34099 5.98782 5.26903C6.02473 5.19522 6.04318 5.12142 6.04318 5.04761C6.04318 4.95535 6.01365 4.88524 5.95461 4.83726C5.89741 4.78929 5.81346 4.7653 5.70275 4.7653C5.64001 4.7653 5.57728 4.77453 5.51454 4.79298C5.45181 4.80959 5.38815 4.83911 5.32357 4.88155C5.29036 4.90369 5.25899 4.91291 5.22947 4.90922C5.20179 4.90553 5.17688 4.89354 5.15474 4.87324C5.13444 4.85295 5.1206 4.82804 5.11322 4.79852C5.10584 4.76899 5.10676 4.73947 5.11599 4.70995C5.12706 4.67858 5.1492 4.65183 5.18241 4.62968C5.26176 4.57617 5.35032 4.53558 5.44812 4.5079C5.54775 4.48023 5.64739 4.46639 5.74703 4.46639C5.88726 4.46639 6.00535 4.48761 6.1013 4.53005C6.19725 4.57248 6.27013 4.6343 6.31995 4.71548C6.36977 4.79667 6.39468 4.89539 6.39468 5.01163C6.39468 5.08913 6.38176 5.16478 6.35593 5.23858C6.33194 5.31239 6.29412 5.38712 6.24245 5.46277C6.19263 5.53842 6.12713 5.61868 6.04594 5.70356L5.52561 6.24604V6.15193H6.33932C6.38914 6.15193 6.42697 6.16393 6.4528 6.18791C6.47863 6.2119 6.49155 6.24788 6.49155 6.29586C6.49155 6.34383 6.47863 6.38073 6.4528 6.40656C6.42697 6.4324 6.38914 6.44531 6.33932 6.44531H5.3208ZM6.96375 6.46745C6.90839 6.46745 6.86596 6.45269 6.83643 6.42317C6.80691 6.3918 6.79215 6.34752 6.79215 6.29032V5.24412C6.79215 5.18692 6.80691 5.14356 6.83643 5.11404C6.86596 5.08451 6.90747 5.06975 6.96098 5.06975C7.01449 5.06975 7.05601 5.08451 7.08553 5.11404C7.11505 5.14356 7.12981 5.18692 7.12981 5.24412V5.43232L7.09937 5.36313C7.13996 5.26534 7.2027 5.19153 7.28757 5.14171C7.37429 5.09005 7.47209 5.06422 7.58095 5.06422C7.68982 5.06422 7.77931 5.08451 7.84942 5.12511C7.91954 5.1657 7.97212 5.22751 8.00718 5.31054C8.04224 5.39173 8.05977 5.49506 8.05977 5.62053V6.29032C8.05977 6.34752 8.04501 6.3918 8.01548 6.42317C7.98596 6.45269 7.94352 6.46745 7.88817 6.46745C7.83281 6.46745 7.78945 6.45269 7.75809 6.42317C7.72856 6.3918 7.7138 6.34752 7.7138 6.29032V5.63714C7.7138 5.53196 7.69351 5.45539 7.65291 5.40742C7.61416 5.35944 7.55327 5.33545 7.47024 5.33545C7.36876 5.33545 7.28757 5.36774 7.22668 5.43232C7.16764 5.49506 7.13812 5.57901 7.13812 5.68419V6.29032C7.13812 6.40841 7.07999 6.46745 6.96375 6.46745ZM8.93149 6.47299C8.8134 6.47299 8.70915 6.44439 8.61874 6.38719C8.53017 6.32999 8.46098 6.2488 8.41116 6.14363C8.36134 6.03661 8.33643 5.91114 8.33643 5.76722C8.33643 5.62145 8.36134 5.4969 8.41116 5.39358C8.46098 5.2884 8.53017 5.20722 8.61874 5.15002C8.70915 5.09282 8.8134 5.06422 8.93149 5.06422C9.04405 5.06422 9.14184 5.09189 9.22487 5.14725C9.30975 5.2026 9.36695 5.27549 9.39647 5.3659H9.36603V4.64629C9.36603 4.58909 9.38079 4.54573 9.41031 4.51621C9.43983 4.48668 9.48227 4.47192 9.53763 4.47192C9.59298 4.47192 9.63542 4.48668 9.66494 4.51621C9.69631 4.54573 9.71199 4.58909 9.71199 4.64629V6.29032C9.71199 6.34752 9.69723 6.3918 9.66771 6.42317C9.63819 6.45269 9.59575 6.46745 9.54039 6.46745C9.48504 6.46745 9.4426 6.45269 9.41308 6.42317C9.38356 6.3918 9.36879 6.34752 9.36879 6.29032V6.07444L9.39924 6.15747C9.37156 6.25342 9.31528 6.32999 9.23041 6.38719C9.14553 6.44439 9.04589 6.47299 8.93149 6.47299ZM9.02836 6.21006C9.09663 6.21006 9.1566 6.19345 9.20827 6.16024C9.25993 6.12702 9.2996 6.07813 9.32728 6.01355C9.3568 5.94712 9.37156 5.86501 9.37156 5.76722C9.37156 5.61961 9.34019 5.50982 9.27746 5.43786C9.21472 5.36405 9.13169 5.32715 9.02836 5.32715C8.96009 5.32715 8.90013 5.34376 8.84846 5.37697C8.7968 5.40834 8.7562 5.45723 8.72668 5.52366C8.699 5.58824 8.68517 5.66943 8.68517 5.76722C8.68517 5.91299 8.71653 6.0237 8.77927 6.09935C8.842 6.17315 8.92504 6.21006 9.02836 6.21006Z" fill="white"/>
</g>
<defs>
<clipPath id="clip0_24619_17119">
<rect width="13.8386" height="13.8386" fill="white" transform="translate(0.0782471 0.984375)"/>
</clipPath>
</defs>
</svg>
