<svg width="12" height="13" viewBox="0 0 12 13" fill="none" xmlns="http://www.w3.org/2000/svg">
<path d="M10.4333 6.75327C10.4576 6.57039 10.4697 6.38142 10.4697 6.18025C10.4697 5.98518 10.4576 5.79011 10.4273 5.60723L11.6579 4.64407C11.7109 4.60012 11.7471 4.53903 11.7604 4.47123C11.7737 4.40342 11.7631 4.33309 11.7306 4.27222L10.5667 2.24836C10.5324 2.18713 10.4777 2.14008 10.4123 2.11553C10.3468 2.09098 10.2748 2.09053 10.209 2.11424L8.76019 2.69946C8.45708 2.46781 8.13579 2.27274 7.77812 2.12644L7.55989 0.578061C7.54915 0.508281 7.51389 0.444686 7.46049 0.398825C7.4071 0.352965 7.33912 0.32788 7.26891 0.328127H4.94105C4.79556 0.328127 4.68038 0.431758 4.65613 0.578061L4.4379 2.12644C4.08023 2.27274 3.75288 2.47391 3.45584 2.69946L2.00699 2.11424C1.87362 2.06548 1.72207 2.11424 1.64933 2.24836L0.491462 4.27222C0.418717 4.40023 0.442965 4.55873 0.564207 4.64407L1.79482 5.60723C1.76451 5.79011 1.74026 5.99128 1.74026 6.18025C1.74026 6.36923 1.75238 6.57039 1.78269 6.75327L0.552083 7.71644C0.499054 7.76039 0.462821 7.82147 0.449556 7.88928C0.436292 7.95708 0.446817 8.02741 0.479338 8.08829L1.64326 10.1122C1.71601 10.2463 1.86756 10.2889 2.00093 10.2463L3.44977 9.66105C3.75288 9.8927 4.07417 10.0878 4.43184 10.2341L4.65007 11.7824C4.68038 11.9287 4.79556 12.0324 4.94105 12.0324H7.26891C7.4144 12.0324 7.53564 11.9287 7.55383 11.7824L7.77206 10.2341C8.12973 10.0878 8.45708 9.8927 8.75412 9.66105L10.203 10.2463C10.3363 10.295 10.4879 10.2463 10.5606 10.1122L11.7246 8.08829C11.7973 7.95418 11.767 7.80178 11.6518 7.71644L10.4333 6.75327ZM6.10498 8.3748C4.90468 8.3748 3.92262 7.38725 3.92262 6.18025C3.92262 4.97325 4.90468 3.98571 6.10498 3.98571C7.30528 3.98571 8.28734 4.97325 8.28734 6.18025C8.28734 7.38725 7.30528 8.3748 6.10498 8.3748Z" fill="#C2E0FF"/>
</svg>
