<svg width="9" height="7" viewBox="0 0 9 7" fill="none" xmlns="http://www.w3.org/2000/svg">
<path d="M3.22468 3.27289C3.99782 3.27289 4.62675 2.64396 4.62675 1.87082C4.62675 1.09768 3.99782 0.46875 3.22468 0.46875C2.45153 0.46875 1.8226 1.09768 1.8226 1.87082C1.8226 2.64396 2.45153 3.27289 3.22468 3.27289ZM3.22468 1.26993C3.55717 1.26993 3.82556 1.53833 3.82556 1.87082C3.82556 2.20331 3.55717 2.47171 3.22468 2.47171C2.89218 2.47171 2.62379 2.20331 2.62379 1.87082C2.62379 1.53833 2.89218 1.26993 3.22468 1.26993ZM3.22468 3.97393C2.28729 3.97393 0.420532 4.44262 0.420532 5.376V6.07703H6.02882V5.376C6.02882 4.44262 4.16206 3.97393 3.22468 3.97393ZM1.35792 5.27585C1.69441 5.04351 2.50762 4.77511 3.22468 4.77511C3.94174 4.77511 4.75494 5.04351 5.09143 5.27585H1.35792ZM5.22764 3.27289C6.00078 3.27289 6.62971 2.64396 6.62971 1.87082C6.62971 1.09768 6.00078 0.46875 5.22764 0.46875C5.13149 0.46875 5.03535 0.476762 4.94322 0.496791C5.25829 0.885054 5.42958 1.37023 5.42812 1.87025C5.42666 2.37026 5.25254 2.85443 4.9352 3.24085C5.03135 3.26087 5.12749 3.27289 5.22764 3.27289ZM6.15701 4.08209C6.5576 4.40657 6.83 4.83119 6.83 5.376V6.07703H8.03178V5.376C8.03178 4.699 7.05433 4.27037 6.15701 4.08209Z" fill="#C4C4C4"/>
</svg>
