<svg width="10" height="9" viewBox="0 0 10 9" fill="none" xmlns="http://www.w3.org/2000/svg">
<path d="M8.75844 3.35382L6.24405 3.00305L5.12005 0.815696C5.08935 0.755808 5.03885 0.707327 4.97646 0.677858C4.81999 0.603711 4.62985 0.6655 4.55161 0.815696L3.42761 3.00305L0.913221 3.35382C0.843899 3.36333 0.780519 3.3947 0.731994 3.44223C0.67333 3.50011 0.641004 3.57798 0.642118 3.65872C0.643232 3.73947 0.677696 3.81649 0.737936 3.87285L2.55713 5.57539L2.12734 7.97948C2.11726 8.03541 2.12371 8.09292 2.14595 8.14551C2.16819 8.1981 2.20534 8.24365 2.25318 8.277C2.30102 8.31035 2.35763 8.33017 2.41661 8.33421C2.47558 8.33824 2.53456 8.32634 2.58684 8.29984L4.83583 7.16481L7.08482 8.29984C7.14622 8.33121 7.21753 8.34166 7.28586 8.33026C7.45817 8.30174 7.57404 8.14489 7.54433 7.97948L7.11453 5.57539L8.93373 3.87285C8.98324 3.82627 9.01592 3.76543 9.02583 3.69889C9.05257 3.53254 8.93175 3.37854 8.75844 3.35382Z" fill="#FFB211"/>
</svg>
