<svg width="22" height="22" viewBox="0 0 22 22" fill="none" xmlns="http://www.w3.org/2000/svg">
<path d="M0.856445 5.94141H2.96576V12.2694H0.856445V5.94141Z" fill="#4B699C"/>
<path d="M2.96582 6.64453H4.37203V11.5663H2.96582V6.64453Z" fill="#7D96C4"/>
<path d="M12.8093 12.6211H17.028V14.0273H12.8093V12.6211Z" fill="#4B699C"/>
<path d="M12.8093 7.69918H11.7547L11.0516 6.29297H6.83294L6.12983 7.69918H4.37207V10.5116H12.1062C12.8828 10.5116 13.5124 11.1412 13.5124 11.9178V12.6209H16.3249V11.2147C16.3249 9.2731 14.7508 7.69918 12.8093 7.69918Z" fill="#6E85AE"/>
<path d="M6.06055 8.04306L6.19839 7.35352L7.95615 7.70507L7.81831 8.39461L6.06055 8.04306Z" fill="#86A0CC"/>
<path d="M9.92993 7.71254L11.6886 7.36133L11.8264 8.05105L10.0678 8.40243L9.92993 7.71254Z" fill="#86A0CC"/>
<path d="M7.53589 4.88672H10.3483V6.29293H7.53589V4.88672Z" fill="#4B699C"/>
<path d="M8.23901 3.48047H9.64522V4.88668H8.23901V3.48047Z" fill="#6E85AE"/>
<path d="M5.07495 2.07422H12.8091V3.48043H5.07495V2.07422Z" fill="#6E85AE"/>
<path d="M8.94212 0.667969C9.3304 0.667969 9.64522 0.982787 9.64522 1.37107V2.07418H8.23901V1.37107C8.23901 0.982787 8.55383 0.667969 8.94212 0.667969Z" fill="#AFC7F2"/>
<path d="M6.4812 2.07422H7.18431V3.48043H6.4812V2.07422Z" fill="#5E7398"/>
<path d="M8.59082 2.07422H9.29393V3.48043H8.59082V2.07422Z" fill="#5E7398"/>
<path d="M10.7 2.07422H11.4031V3.48043H10.7V2.07422Z" fill="#5E7398"/>
<path d="M17.3795 21.0584H12.4578L13.5124 14.0273H16.3248L17.3795 21.0584Z" fill="#B2C9F2"/>
<path d="M13.5168 20.9999L14.2206 16.7812L14.9143 16.8969L14.2103 21.1156L13.5168 20.9999Z" fill="#86A0CC"/>
<path d="M15.2722 17.9331L15.971 17.8555L16.3226 21.0193L15.6238 21.097L15.2722 17.9331Z" fill="#86A0CC"/>
<path d="M18.7857 19.651C18.7857 19.651 18.5933 17.9382 19.4888 16.8386C20.3842 15.739 22.0551 17.283 20.5435 18.2448C19.0317 19.2066 18.7857 19.651 18.7857 19.651Z" fill="#B2C9F2"/>
<path d="M11.0515 20.355C11.0515 20.355 11.131 18.0415 9.99688 17.1911C8.59067 16.1364 7.3556 18.1136 8.94222 18.9488C10.5287 19.7841 11.0515 20.355 11.0515 20.355Z" fill="#B2C9F2"/>
<path d="M11.4031 16.4883H12.1062V17.1914H11.4031V16.4883Z" fill="#2D75BB"/>
<path d="M17.7312 15.4336H18.4343V16.1367H17.7312V15.4336Z" fill="#2D75BB"/>
<path d="M9.99683 14.3789H10.6999V15.082H9.99683V14.3789Z" fill="#2D75BB"/>
<path d="M19.1375 12.6211H19.8406V13.3242H19.1375V12.6211Z" fill="#2D75BB"/>
</svg>
