<svg width="15" height="15" viewBox="0 0 15 15" fill="none" xmlns="http://www.w3.org/2000/svg">
<g clip-path="url(#clip0_24619_26331)">
<path d="M3.44945 4.55542L3.82309 6.14686L3.44945 7.73138L4.84023 8.58938L5.69131 9.98016L7.28275 9.60652L8.87419 9.98016L9.72527 8.58938L11.1161 7.73138L10.7424 6.14686L11.1161 4.55542L9.73219 3.69742L8.87419 2.30664L7.28275 2.6872L5.69823 2.31356L4.83331 3.69742L3.44945 4.55542ZM7.28967 8.94226C6.55562 8.94226 5.85164 8.65067 5.33259 8.13162C4.81354 7.61257 4.52194 6.90858 4.52194 6.17454C4.52194 5.44049 4.81354 4.73651 5.33259 4.21746C5.85164 3.69841 6.55562 3.40681 7.28967 3.40681C8.81192 3.40681 10.0505 4.64537 10.0505 6.16762C10.0505 7.70371 8.81192 8.94226 7.28967 8.94226ZM7.27583 8.25033C6.12722 8.25033 5.20696 7.32314 5.20696 6.17454C5.20696 5.03285 6.12722 4.09874 7.27583 4.09874C8.42444 4.09874 9.35854 5.03285 9.35854 6.17454C9.35854 7.32314 8.42444 8.25033 7.27583 8.25033ZM9.93285 9.01146L9.04718 10.5614L7.60796 10.2362L9.35854 14.2701L10.3272 12.7479H12.0571L9.93285 9.01146ZM4.60498 9.05989L5.46989 10.6167L6.9437 10.2639L5.20696 14.2701L4.23825 12.7479H2.50842L4.60498 9.05989Z" fill="#FFB211"/>
<path d="M6.37715 6.47299C6.27751 6.47299 6.17418 6.46007 6.06716 6.43424C5.96014 6.40841 5.86696 6.36966 5.78762 6.318C5.75072 6.29401 5.72581 6.26633 5.71289 6.23497C5.69998 6.2036 5.69629 6.17408 5.70182 6.1464C5.7092 6.11688 5.72304 6.09197 5.74334 6.07167C5.76548 6.05137 5.79224 6.03938 5.8236 6.03569C5.85682 6.032 5.8928 6.0403 5.93154 6.0606C6.0072 6.10119 6.08008 6.13071 6.1502 6.14917C6.22031 6.16577 6.29227 6.17408 6.36608 6.17408C6.44726 6.17408 6.51553 6.163 6.57089 6.14086C6.62624 6.11872 6.66776 6.08551 6.69544 6.04122C6.72496 5.99694 6.73972 5.94343 6.73972 5.8807C6.73972 5.78844 6.70835 5.72017 6.64562 5.67588C6.58473 5.62976 6.49524 5.60669 6.37715 5.60669H6.20001C6.14835 5.60669 6.10868 5.59378 6.081 5.56794C6.05517 5.54211 6.04225 5.50613 6.04225 5.46C6.04225 5.41387 6.05517 5.37789 6.081 5.35206C6.10868 5.32623 6.14835 5.31331 6.20001 5.31331H6.34394C6.41405 5.31331 6.47402 5.30224 6.52384 5.2801C6.57366 5.25611 6.61241 5.2229 6.64008 5.18046C6.66776 5.13802 6.6816 5.08636 6.6816 5.02547C6.6816 4.94059 6.653 4.87601 6.5958 4.83173C6.54044 4.78744 6.45926 4.7653 6.35224 4.7653C6.28397 4.7653 6.21939 4.77361 6.1585 4.79021C6.09945 4.80497 6.03395 4.83357 5.96199 4.87601C5.92878 4.89631 5.89649 4.90461 5.86512 4.90092C5.8356 4.89723 5.81069 4.88524 5.79039 4.86494C5.77009 4.84464 5.75626 4.82066 5.74887 4.79298C5.74149 4.76346 5.74334 4.73394 5.75441 4.70441C5.76548 4.67305 5.78855 4.64629 5.8236 4.62415C5.90294 4.57248 5.99059 4.53374 6.08654 4.5079C6.18249 4.48023 6.2812 4.46639 6.38268 4.46639C6.51738 4.46639 6.6327 4.48761 6.72865 4.53005C6.8246 4.57064 6.89748 4.62968 6.9473 4.70718C6.99896 4.78283 7.0248 4.87509 7.0248 4.98395C7.0248 5.06145 7.01004 5.13249 6.98051 5.19707C6.95099 5.2598 6.90947 5.31331 6.85597 5.3576C6.80246 5.40188 6.73788 5.43325 6.66222 5.4517V5.41849C6.79508 5.44063 6.8984 5.49598 6.97221 5.58455C7.04602 5.67127 7.08292 5.78014 7.08292 5.91114C7.08292 6.02554 7.05432 6.12518 6.99712 6.21006C6.93992 6.29493 6.85873 6.36044 6.75356 6.40656C6.64839 6.45085 6.52292 6.47299 6.37715 6.47299ZM7.60217 6.46745C7.54497 6.46745 7.50069 6.45269 7.46932 6.42317C7.4398 6.3918 7.42504 6.34752 7.42504 6.29032V5.24412C7.42504 5.18692 7.4398 5.14356 7.46932 5.11404C7.49884 5.08451 7.54036 5.06975 7.59387 5.06975C7.64738 5.06975 7.68889 5.08451 7.71841 5.11404C7.74794 5.14356 7.7627 5.18692 7.7627 5.24412V5.41849H7.73502C7.76085 5.30778 7.81159 5.22382 7.88725 5.16662C7.9629 5.10942 8.06346 5.07529 8.18893 5.06422C8.22768 5.06053 8.25812 5.07068 8.28026 5.09466C8.30425 5.1168 8.31809 5.15186 8.32178 5.19984C8.32547 5.24596 8.3144 5.28379 8.28857 5.31331C8.26458 5.34099 8.22768 5.3576 8.17786 5.36313L8.11697 5.36867C8.00441 5.37974 7.91954 5.4148 7.86234 5.47384C7.80514 5.53104 7.77654 5.61223 7.77654 5.7174V6.29032C7.77654 6.34752 7.76178 6.3918 7.73225 6.42317C7.70273 6.45269 7.65937 6.46745 7.60217 6.46745ZM9.00759 6.47299C8.8895 6.47299 8.78525 6.44439 8.69484 6.38719C8.60627 6.32999 8.53708 6.2488 8.48726 6.14363C8.43744 6.03661 8.41253 5.91114 8.41253 5.76722C8.41253 5.62145 8.43744 5.4969 8.48726 5.39358C8.53708 5.2884 8.60627 5.20722 8.69484 5.15002C8.78525 5.09282 8.8895 5.06422 9.00759 5.06422C9.12015 5.06422 9.21794 5.09189 9.30097 5.14725C9.38585 5.2026 9.44305 5.27549 9.47257 5.3659H9.44212V4.64629C9.44212 4.58909 9.45689 4.54573 9.48641 4.51621C9.51593 4.48668 9.55837 4.47192 9.61372 4.47192C9.66908 4.47192 9.71152 4.48668 9.74104 4.51621C9.77241 4.54573 9.78809 4.58909 9.78809 4.64629V6.29032C9.78809 6.34752 9.77333 6.3918 9.74381 6.42317C9.71428 6.45269 9.67185 6.46745 9.61649 6.46745C9.56114 6.46745 9.5187 6.45269 9.48918 6.42317C9.45965 6.3918 9.44489 6.34752 9.44489 6.29032V6.07444L9.47534 6.15747C9.44766 6.25342 9.39138 6.32999 9.30651 6.38719C9.22163 6.44439 9.12199 6.47299 9.00759 6.47299ZM9.10446 6.21006C9.17273 6.21006 9.2327 6.19345 9.28436 6.16024C9.33603 6.12702 9.3757 6.07813 9.40338 6.01355C9.4329 5.94712 9.44766 5.86501 9.44766 5.76722C9.44766 5.61961 9.41629 5.50982 9.35356 5.43786C9.29082 5.36405 9.20779 5.32715 9.10446 5.32715C9.03619 5.32715 8.97622 5.34376 8.92456 5.37697C8.8729 5.40834 8.8323 5.45723 8.80278 5.52366C8.7751 5.58824 8.76126 5.66943 8.76126 5.76722C8.76126 5.91299 8.79263 6.0237 8.85537 6.09935C8.9181 6.17315 9.00113 6.21006 9.10446 6.21006Z" fill="white"/>
</g>
<defs>
<clipPath id="clip0_24619_26331">
<rect width="13.8386" height="13.8386" fill="white" transform="translate(0.432739 0.984375)"/>
</clipPath>
</defs>
</svg>
