<svg width="24" height="25" viewBox="0 0 24 25" fill="none" xmlns="http://www.w3.org/2000/svg">
<circle cx="12" cy="12.9121" r="12" fill="#C2E0FF"/>
<g clip-path="url(#clip0_26527_19578)">
<path d="M14.295 15.9121L11.5 13.1171V8.41211H12.5V12.7021L15 15.2071L14.295 15.9121Z" fill="white"/>
<path d="M12 5.91211C11.0675 5.91224 10.1445 6.0995 9.28561 6.46279C8.42677 6.82608 7.64955 7.35802 7 8.02711V5.91211H6V9.91211H10V8.91211H7.54C8.47801 7.86976 9.75149 7.18887 11.1393 6.98771C12.527 6.78655 13.9414 7.07782 15.1368 7.81093C16.3322 8.54404 17.233 9.67268 17.6829 11.0008C18.1327 12.329 18.1032 13.7728 17.5993 15.0814C17.0955 16.39 16.1492 17.4809 14.9249 18.1645C13.7005 18.848 12.2754 19.0812 10.897 18.8234C9.51862 18.5656 8.27407 17.8332 7.3795 16.7533C6.48492 15.6735 5.99683 14.3144 6 12.9121H5C5 14.2966 5.41054 15.65 6.17971 16.8011C6.94888 17.9522 8.04213 18.8495 9.32122 19.3793C10.6003 19.9091 12.0078 20.0477 13.3656 19.7776C14.7235 19.5075 15.9708 18.8408 16.9497 17.8619C17.9287 16.8829 18.5954 15.6356 18.8655 14.2777C19.1356 12.9199 18.997 11.5124 18.4672 10.2333C17.9373 8.95424 17.0401 7.86099 15.889 7.09182C14.7378 6.32265 13.3845 5.91211 12 5.91211Z" fill="white"/>
</g>
<defs>
<clipPath id="clip0_26527_19578">
<rect width="14" height="14" fill="white" transform="translate(5 5.91211)"/>
</clipPath>
</defs>
</svg>
