<svg width="19" height="20" viewBox="0 0 19 20" fill="none" xmlns="http://www.w3.org/2000/svg">
<path d="M2.99115 5.44653H4.50901H16.6519" stroke="white" stroke-width="2" stroke-linecap="round" stroke-linejoin="round"/>
<path d="M6.78576 5.44636V3.9285C6.78576 3.52594 6.94568 3.13987 7.23033 2.85521C7.51498 2.57056 7.90106 2.41064 8.30362 2.41064H11.3393C11.7419 2.41064 12.128 2.57056 12.4126 2.85521C12.6973 3.13987 12.8572 3.52594 12.8572 3.9285V5.44636M15.134 5.44636V16.0714C15.134 16.4739 14.9741 16.86 14.6894 17.1446C14.4048 17.4293 14.0187 17.5892 13.6161 17.5892H6.02683C5.62427 17.5892 5.2382 17.4293 4.95354 17.1446C4.66889 16.86 4.50897 16.4739 4.50897 16.0714V5.44636H15.134Z" stroke="white" stroke-width="2" stroke-linecap="round" stroke-linejoin="round"/>
<path d="M8.30365 9.24097V13.7945" stroke="white" stroke-width="2" stroke-linecap="round" stroke-linejoin="round"/>
<path d="M11.3394 9.24097V13.7945" stroke="white" stroke-width="2" stroke-linecap="round" stroke-linejoin="round"/>
</svg>
