<svg width="41" height="41" viewBox="0 0 41 41" fill="none" xmlns="http://www.w3.org/2000/svg">
<path d="M4.80494 5.94141H21.7033C24.098 5.94141 26.0397 8.45138 26.0397 11.5469V16.8673L27.0628 17.1677L27.813 22.4766L27.2947 27.8354L21.9468 27.8027C21.8629 27.8104 21.7873 27.8354 21.704 27.8354H4.80558C2.409 27.8354 0.467909 25.3267 0.467909 22.2299V11.5475C0.466627 8.45202 2.409 5.94141 4.80494 5.94141Z" fill="#F48020"/>
<path d="M4.80494 5.95312H21.7033C24.098 5.95312 26.0397 8.46245 26.0397 11.5586V16.8796L27.0628 17.1801L27.813 22.4883L27.453 26.218L27.0628 23.4652L26.0397 23.1648V17.8444C26.0397 14.7489 24.0986 12.2389 21.7033 12.2389H4.80494C2.40836 12.2389 0.46727 14.7495 0.46727 17.8444V11.558C0.46727 8.46245 2.40836 5.95312 4.80494 5.95312Z" fill="#F9A425"/>
<path d="M28.3384 12.2422H31.7798C34.6549 12.4299 40.3731 13.7476 40.2636 21.2557V24.0194C40.2636 26.384 39.2347 28.3001 37.9682 28.3001H28.3396C27.0718 28.3001 26.0423 26.3846 26.0423 24.0194V16.5215C26.0423 14.1576 27.0712 12.2402 28.3396 12.2402" fill="#E3E4E3"/>
<path d="M27.4189 9.60059H29.4817C31.2018 9.69924 34.6259 10.3834 34.5606 14.2829V15.716C34.5606 16.9447 33.9424 17.9396 33.1858 17.9396H27.4202C26.6623 17.9396 26.0454 16.9447 26.0454 15.716V11.8255C26.0441 10.5968 26.6617 9.60059 27.4196 9.60059" fill="#E3E4E3"/>
<path d="M32.7269 14.3301H34.4528C35.8936 14.4377 38.761 15.1917 38.7053 19.4871V21.0682C38.7053 22.4218 38.1908 23.5192 37.5547 23.5192H32.7269C32.0908 23.5192 31.5738 22.4218 31.5738 21.0682V16.7792C31.5738 15.4268 32.0908 14.3307 32.7269 14.3307" fill="#A2C2CA"/>
<path d="M35.2087 19.7006C35.2926 17.8902 35.169 16.0286 34.6353 14.3232C36.0851 14.4386 38.916 15.2092 38.8615 19.4803V21.0613C38.8615 22.415 38.3458 23.5124 37.7097 23.5124H34.5725C34.9428 22.3663 35.144 21.0985 35.2087 19.7032" fill="#83AFB7"/>
<path d="M27.361 29.4307C27.362 30.6092 27.8309 31.739 28.6645 32.5719C29.4982 33.4049 30.6285 33.8728 31.8069 33.8728C32.9847 33.8718 34.114 33.4034 34.9468 32.5706C35.7797 31.7378 36.248 30.6085 36.249 29.4307C36.2487 28.2526 35.7806 27.1228 34.9477 26.2896C34.1147 25.4564 32.9851 24.988 31.8069 24.9873C31.2232 24.9871 30.6453 25.1019 30.1059 25.3251C29.5666 25.5484 29.0766 25.8756 28.6637 26.2882C28.2509 26.7008 27.9233 27.1907 27.6998 27.7299C27.4763 28.2691 27.3612 28.847 27.361 29.4307Z" fill="white"/>
<path d="M28.1488 29.4312C28.1497 30.4005 28.5353 31.3298 29.221 32.0148C29.9066 32.6999 30.8362 33.0847 31.8055 33.0847C32.7741 33.0835 33.7027 32.6982 34.3876 32.0133C35.0725 31.3284 35.4578 30.3998 35.459 29.4312C35.4463 28.4702 35.0556 27.5529 34.3715 26.8778C33.6874 26.2027 32.765 25.8242 31.8039 25.8242C30.8428 25.8242 29.9204 26.2027 29.2363 26.8778C28.5522 27.5529 28.1615 28.4702 28.1488 29.4312Z" fill="#243438"/>
<path d="M29.4366 29.38C29.4366 30.0084 29.6862 30.611 30.1306 31.0554C30.5749 31.4997 31.1776 31.7493 31.8059 31.7493C32.4343 31.7493 33.037 31.4997 33.4813 31.0554C33.9257 30.611 34.1753 30.0084 34.1753 29.38C34.1577 28.7633 33.9004 28.1777 33.458 27.7477C33.0155 27.3177 32.4229 27.0771 31.8059 27.0771C31.189 27.0771 30.5963 27.3177 30.1539 27.7477C29.7115 28.1777 29.4542 28.7633 29.4366 29.38Z" fill="#969796"/>
<path d="M9.07375 30.0051C9.07409 31.0312 9.48186 32.0152 10.2074 32.7408C10.933 33.4664 11.917 33.8742 12.9431 33.8745C13.9691 33.8738 14.9529 33.4659 15.6784 32.7404C16.4039 32.0149 16.8118 31.0311 16.8125 30.0051C16.8122 28.979 16.4044 27.995 15.6788 27.2694C14.9532 26.5439 13.9692 26.1361 12.9431 26.1357C12.435 26.1357 11.9318 26.2358 11.4624 26.4303C10.9929 26.6247 10.5664 26.9098 10.2071 27.2691C9.84776 27.6284 9.56274 28.0549 9.36829 28.5244C9.17383 28.9938 9.07375 29.497 9.07375 30.0051Z" fill="white"/>
<path d="M9.7592 30.0059C9.7592 30.8495 10.0943 31.6585 10.6908 32.255C11.2873 32.8515 12.0963 33.1866 12.9399 33.1866C13.7835 33.1866 14.5925 32.8515 15.189 32.255C15.7855 31.6585 16.1206 30.8495 16.1206 30.0059C16.1209 29.5884 16.039 29.1749 15.8795 28.789C15.72 28.4032 15.486 28.0526 15.1909 27.7572C14.8958 27.4618 14.5454 27.2275 14.1597 27.0675C13.774 26.9076 13.3606 26.8253 12.9431 26.8252C12.5251 26.8247 12.1111 26.9066 11.7248 27.0662C11.3385 27.2258 10.9875 27.4601 10.6917 27.7555C10.396 28.0509 10.1615 28.4017 10.0014 28.7879C9.84143 29.174 9.75911 29.5879 9.7592 30.0059Z" fill="#243438"/>
<path d="M10.8776 29.9623C10.8776 30.2333 10.931 30.5017 11.0347 30.7521C11.1385 31.0024 11.2905 31.2299 11.4822 31.4216C11.6739 31.6132 11.9014 31.7652 12.1519 31.8688C12.4023 31.9725 12.6707 32.0258 12.9417 32.0257C13.3494 32.0253 13.7479 31.9041 14.0867 31.6773C14.4256 31.4506 14.6896 31.1284 14.8454 30.7517C15.0012 30.3749 15.0419 29.9604 14.9622 29.5605C14.8825 29.1607 14.6861 28.7934 14.3977 28.5051C14.1094 28.2169 13.7421 28.0206 13.3422 27.941C12.9423 27.8614 12.5278 27.9022 12.1511 28.0582C11.7743 28.2141 11.4523 28.4782 11.2256 28.8171C10.999 29.156 10.8779 29.5545 10.8776 29.9623Z" fill="#969796"/>
<path d="M1.15926 29.9631C1.15968 30.4708 1.2601 30.9735 1.45478 31.4424C1.64946 31.9113 1.93459 32.3373 2.2939 32.696C2.6532 33.0547 3.07964 33.3391 3.54887 33.533C4.01809 33.7269 4.52092 33.8265 5.02863 33.8261C5.53634 33.8257 6.039 33.7253 6.50791 33.5306C6.97681 33.3359 7.40278 33.0508 7.76149 32.6915C8.1202 32.3322 8.40463 31.9057 8.59853 31.4365C8.79244 30.9673 8.89202 30.4644 8.8916 29.9567C8.89075 28.9313 8.48261 27.9483 7.75696 27.2239C7.03131 26.4994 6.0476 26.0929 5.02222 26.0938C3.99685 26.0946 3.01381 26.5027 2.28937 27.2284C1.56492 27.954 1.15841 28.9378 1.15926 29.9631Z" fill="white"/>
<path d="M1.84535 29.9629C1.84637 30.8067 2.18225 31.6157 2.77922 32.212C3.37619 32.8084 4.18544 33.1435 5.02926 33.1436C5.87283 33.1436 6.68186 32.8085 7.27836 32.212C7.87485 31.6155 8.20996 30.8065 8.20996 29.9629C8.20996 29.1194 7.87485 28.3103 7.27836 27.7138C6.68186 27.1173 5.87283 26.7822 5.02926 26.7822C4.61134 26.782 4.19747 26.864 3.81127 27.0238C3.42508 27.1835 3.07413 27.4177 2.77847 27.7131C2.4828 28.0084 2.24822 28.3592 2.08812 28.7452C1.92801 29.1312 1.84552 29.545 1.84535 29.9629Z" fill="#243438"/>
<path d="M2.966 29.919C2.96118 30.1929 3.01096 30.4651 3.11244 30.7195C3.21392 30.974 3.36507 31.2057 3.55707 31.4011C3.74907 31.5965 3.97807 31.7517 4.2307 31.8577C4.48334 31.9636 4.75454 32.0182 5.0285 32.0182C5.30245 32.0182 5.57365 31.9636 5.82629 31.8577C6.07892 31.7517 6.30792 31.5965 6.49992 31.4011C6.69192 31.2057 6.84307 30.974 6.94455 30.7195C7.04604 30.4651 7.09582 30.1929 7.09099 29.919C7.08146 29.3783 6.85997 28.863 6.47421 28.484C6.08846 28.105 5.56929 27.8926 5.0285 27.8926C4.4877 27.8926 3.96853 28.105 3.58278 28.484C3.19702 28.863 2.97553 29.3783 2.966 29.919Z" fill="#969796"/>
<path d="M38.8647 25.7983C38.8647 26.8759 39.3003 27.7503 39.8391 27.7503C40.3772 27.7503 40.8135 26.8759 40.8135 25.7983V25.7548C40.8135 24.6785 40.3772 23.8066 39.8391 23.8066C39.3003 23.8066 38.8647 24.6785 38.8647 25.7548V25.7983Z" fill="#F1F1F1"/>
<path d="M0.186321 23.5399C0.186321 24.6174 0.621945 25.4893 1.16135 25.4893C1.69884 25.4893 2.13574 24.6174 2.13574 23.5399V23.4976C2.13574 22.4188 1.69884 21.5469 1.16135 21.5469C0.621305 21.5469 0.186321 22.4188 0.186321 23.4976V23.5399Z" fill="#DF394C"/>
</svg>
