<svg width="50" height="50" viewBox="0 0 50 50" fill="none" xmlns="http://www.w3.org/2000/svg">
<rect x="0.5" y="0.5" width="49" height="49" rx="5.5" stroke="#274B89"/>
<g clip-path="url(#clip0_6120_0)">
<path d="M31.8625 31.5626H18.2125C17.14 31.5626 16.2625 30.7095 16.2625 29.6667V20.1876C16.2625 19.1449 17.14 18.2917 18.2125 18.2917H31.8625C32.9349 18.2917 33.8125 19.1449 33.8125 20.1876V29.6667C33.8125 30.7095 32.9349 31.5626 31.8625 31.5626Z" fill="#274B89"/>
<path d="M29.4249 23.5051C30.2326 23.5051 30.8874 22.8685 30.8874 22.0833C30.8874 21.298 30.2326 20.6614 29.4249 20.6614C28.6172 20.6614 27.9624 21.298 27.9624 22.0833C27.9624 22.8685 28.6172 23.5051 29.4249 23.5051Z" fill="#C2E0FF"/>
<path d="M23.0875 22.9839L18.7 29.1927H27.475L23.0875 22.9839Z" fill="#6E85AE"/>
<path d="M28.4499 25.6379L25.5249 29.1926H31.3749L28.4499 25.6379Z" fill="#6E85AE"/>
</g>
<defs>
<clipPath id="clip0_6120_0">
<rect width="18" height="14" fill="white" transform="translate(16 18)"/>
</clipPath>
</defs>
</svg>
