<svg width="36" height="26" viewBox="0 0 36 26" fill="none" xmlns="http://www.w3.org/2000/svg">
<rect width="35.5644" height="26.0094" rx="2.5865" fill="#FFEFCD"/>
<path d="M11.2502 20.0362C11.1743 20.0362 11.1105 20.019 11.0588 19.9845C11.0105 19.9465 10.9709 19.8914 10.9398 19.8189L9.5483 16.6686C9.52071 16.5962 9.51381 16.5341 9.5276 16.4824C9.5414 16.4306 9.56899 16.391 9.61037 16.3634C9.6552 16.3323 9.70866 16.3168 9.77073 16.3168C9.85005 16.3168 9.91041 16.3341 9.95179 16.3685C9.99317 16.403 10.0277 16.4548 10.0552 16.5237L11.3588 19.5448H11.1674L12.4607 16.5186C12.4917 16.453 12.5279 16.403 12.5693 16.3685C12.6142 16.3341 12.6745 16.3168 12.7504 16.3168C12.8125 16.3168 12.8625 16.3323 12.9004 16.3634C12.9418 16.391 12.9677 16.4306 12.978 16.4824C12.9883 16.5341 12.978 16.5962 12.947 16.6686L11.5606 19.8189C11.5296 19.8914 11.4899 19.9465 11.4416 19.9845C11.3933 20.019 11.3295 20.0362 11.2502 20.0362ZM14.3005 20.0466C14.0246 20.0466 13.7866 19.9948 13.5866 19.8914C13.39 19.7845 13.2366 19.6344 13.1262 19.4413C13.0193 19.2447 12.9658 19.012 12.9658 18.743C12.9658 18.4809 13.0193 18.2515 13.1262 18.0549C13.2331 17.8584 13.3797 17.7049 13.5659 17.5946C13.7521 17.4842 13.9642 17.429 14.2022 17.429C14.3781 17.429 14.535 17.4583 14.6729 17.517C14.8109 17.5721 14.9281 17.6549 15.0247 17.7653C15.1247 17.8722 15.1988 18.0032 15.2471 18.1584C15.2989 18.3136 15.3247 18.4878 15.3247 18.6809C15.3247 18.7395 15.3075 18.7843 15.273 18.8154C15.2385 18.843 15.1868 18.8568 15.1178 18.8568H13.3797V18.536H14.973L14.885 18.6085C14.885 18.436 14.8592 18.2895 14.8074 18.1688C14.7591 18.0481 14.685 17.9567 14.585 17.8946C14.4884 17.8291 14.3677 17.7963 14.2229 17.7963C14.0608 17.7963 13.9228 17.8342 13.809 17.9101C13.6987 17.986 13.6142 18.0912 13.5556 18.2257C13.4969 18.3602 13.4676 18.5171 13.4676 18.6964V18.7274C13.4676 19.0309 13.5383 19.2603 13.6797 19.4155C13.8246 19.5672 14.0332 19.6431 14.3056 19.6431C14.4091 19.6431 14.5177 19.6293 14.6315 19.6017C14.7488 19.5741 14.8592 19.5275 14.9626 19.462C15.0212 19.4275 15.073 19.412 15.1178 19.4155C15.1661 19.4189 15.204 19.4344 15.2316 19.462C15.2626 19.4896 15.2816 19.5241 15.2885 19.5655C15.2954 19.6069 15.2885 19.65 15.2678 19.6948C15.2471 19.7362 15.2109 19.7741 15.1592 19.8086C15.0419 19.8879 14.9057 19.9483 14.7505 19.9897C14.5953 20.0276 14.4453 20.0466 14.3005 20.0466ZM16.1581 20.0362C16.0719 20.0362 16.0064 20.0138 15.9616 19.969C15.9167 19.9207 15.8943 19.8552 15.8943 19.7724V17.7032C15.8943 17.617 15.9167 17.5514 15.9616 17.5066C16.0064 17.4618 16.0685 17.4394 16.1478 17.4394C16.2306 17.4394 16.2926 17.4618 16.334 17.5066C16.3789 17.5514 16.4013 17.617 16.4013 17.7032V18.0808H16.3495C16.4047 17.8739 16.5065 17.717 16.6548 17.6101C16.803 17.5032 16.9927 17.4411 17.2238 17.4238C17.2859 17.4204 17.3341 17.4359 17.3686 17.4704C17.4066 17.5049 17.4273 17.5583 17.4307 17.6308C17.4376 17.7032 17.4221 17.7618 17.3841 17.8066C17.3462 17.848 17.2876 17.8722 17.2083 17.8791L17.11 17.8894C16.8858 17.9101 16.7151 17.9808 16.5978 18.1015C16.4806 18.2222 16.422 18.3877 16.422 18.5981V19.7724C16.422 19.8552 16.3996 19.9207 16.3547 19.969C16.3133 20.0138 16.2478 20.0362 16.1581 20.0362ZM18.0827 20.031C18 20.031 17.9362 20.0069 17.8913 19.9586C17.8465 19.9069 17.8241 19.8362 17.8241 19.7465V17.7291C17.8241 17.6394 17.8465 17.5704 17.8913 17.5221C17.9362 17.4738 18 17.4497 18.0827 17.4497C18.1655 17.4497 18.2293 17.4738 18.2741 17.5221C18.3224 17.5704 18.3466 17.6394 18.3466 17.7291V19.7465C18.3466 19.8362 18.3242 19.9069 18.2793 19.9586C18.2345 20.0069 18.169 20.031 18.0827 20.031ZM18.0827 16.9117C17.9793 16.9117 17.8982 16.8859 17.8396 16.8341C17.7844 16.7824 17.7568 16.71 17.7568 16.6169C17.7568 16.5203 17.7844 16.4479 17.8396 16.3996C17.8982 16.3479 17.9793 16.322 18.0827 16.322C18.1862 16.322 18.2655 16.3479 18.3207 16.3996C18.3793 16.4479 18.4086 16.5203 18.4086 16.6169C18.4086 16.71 18.3793 16.7824 18.3207 16.8341C18.2655 16.8859 18.1862 16.9117 18.0827 16.9117ZM19.4958 20.0362C19.4131 20.0362 19.3475 20.0138 19.2992 19.969C19.2544 19.9207 19.232 19.8552 19.232 19.7724V17.8791H18.9423C18.8768 17.8791 18.8251 17.8618 18.7871 17.8273C18.7492 17.7894 18.7302 17.7394 18.7302 17.6773C18.7302 17.6118 18.7492 17.5618 18.7871 17.5273C18.8251 17.4928 18.8768 17.4756 18.9423 17.4756H19.382L19.232 17.6152V17.429C19.232 17.0945 19.3148 16.8393 19.4803 16.6634C19.6458 16.4875 19.889 16.3841 20.2097 16.353L20.3649 16.3427C20.427 16.3358 20.477 16.3444 20.5149 16.3685C20.5528 16.3892 20.5787 16.4203 20.5925 16.4617C20.6063 16.4996 20.608 16.5393 20.5977 16.5806C20.5873 16.622 20.5684 16.6582 20.5408 16.6893C20.5166 16.7169 20.4856 16.7324 20.4477 16.7358L20.308 16.7462C20.1149 16.76 19.9735 16.8169 19.8838 16.9169C19.7976 17.0169 19.7545 17.1635 19.7545 17.3566V17.5583L19.6821 17.4756H21.0995C21.1857 17.4756 21.2512 17.5014 21.296 17.5532C21.3409 17.6014 21.3633 17.6687 21.3633 17.7549V19.7465C21.3633 19.8362 21.3409 19.9069 21.296 19.9586C21.2546 20.0069 21.1891 20.031 21.0995 20.031C21.0167 20.031 20.9529 20.0069 20.9081 19.9586C20.8632 19.9069 20.8408 19.8362 20.8408 19.7465V17.8791H19.7545V19.7724C19.7545 19.9483 19.6683 20.0362 19.4958 20.0362ZM21.1098 16.9117C21.0098 16.9117 20.9322 16.8859 20.877 16.8341C20.8218 16.7824 20.7942 16.71 20.7942 16.6169C20.7942 16.5203 20.8218 16.4479 20.877 16.3996C20.9322 16.3479 21.0098 16.322 21.1098 16.322C21.2133 16.322 21.2909 16.3479 21.3426 16.3996C21.3978 16.4479 21.4254 16.5203 21.4254 16.6169C21.4254 16.71 21.3978 16.7824 21.3426 16.8341C21.2909 16.8859 21.2133 16.9117 21.1098 16.9117ZM23.2775 20.0466C23.0016 20.0466 22.7636 19.9948 22.5636 19.8914C22.367 19.7845 22.2135 19.6344 22.1032 19.4413C21.9963 19.2447 21.9428 19.012 21.9428 18.743C21.9428 18.4809 21.9963 18.2515 22.1032 18.0549C22.2101 17.8584 22.3567 17.7049 22.5429 17.5946C22.7291 17.4842 22.9412 17.429 23.1792 17.429C23.355 17.429 23.512 17.4583 23.6499 17.517C23.7879 17.5721 23.9051 17.6549 24.0017 17.7653C24.1017 17.8722 24.1758 18.0032 24.2241 18.1584C24.2758 18.3136 24.3017 18.4878 24.3017 18.6809C24.3017 18.7395 24.2845 18.7843 24.25 18.8154C24.2155 18.843 24.1638 18.8568 24.0948 18.8568H22.3567V18.536H23.9499L23.862 18.6085C23.862 18.436 23.8361 18.2895 23.7844 18.1688C23.7361 18.0481 23.662 17.9567 23.562 17.8946C23.4654 17.8291 23.3447 17.7963 23.1999 17.7963C23.0378 17.7963 22.8998 17.8342 22.786 17.9101C22.6757 17.986 22.5912 18.0912 22.5325 18.2257C22.4739 18.3602 22.4446 18.5171 22.4446 18.6964V18.7274C22.4446 19.0309 22.5153 19.2603 22.6567 19.4155C22.8015 19.5672 23.0102 19.6431 23.2826 19.6431C23.3861 19.6431 23.4947 19.6293 23.6085 19.6017C23.7258 19.5741 23.8361 19.5275 23.9396 19.462C23.9982 19.4275 24.05 19.412 24.0948 19.4155C24.1431 19.4189 24.181 19.4344 24.2086 19.462C24.2396 19.4896 24.2586 19.5241 24.2655 19.5655C24.2724 19.6069 24.2655 19.65 24.2448 19.6948C24.2241 19.7362 24.1879 19.7741 24.1362 19.8086C24.0189 19.8879 23.8827 19.9483 23.7275 19.9897C23.5723 20.0276 23.4223 20.0466 23.2775 20.0466ZM25.8335 20.0466C25.6128 20.0466 25.4179 19.9948 25.2489 19.8914C25.0834 19.7845 24.9541 19.6327 24.861 19.4361C24.7678 19.2361 24.7213 19.0033 24.7213 18.7378C24.7213 18.4653 24.7678 18.2326 24.861 18.0394C24.9541 17.8463 25.0834 17.6963 25.2489 17.5894C25.4179 17.4825 25.6128 17.429 25.8335 17.429C26.0542 17.429 26.2439 17.4842 26.4025 17.5946C26.5646 17.7015 26.6732 17.8463 26.7284 18.0291H26.6715V16.5806C26.6715 16.4944 26.6939 16.4289 26.7388 16.3841C26.7836 16.3392 26.8474 16.3168 26.9302 16.3168C27.0129 16.3168 27.0767 16.3392 27.1216 16.3841C27.1698 16.4289 27.194 16.4944 27.194 16.5806V19.7724C27.194 19.8552 27.1716 19.9207 27.1267 19.969C27.0819 20.0138 27.0181 20.0362 26.9353 20.0362C26.8526 20.0362 26.7888 20.0138 26.7439 19.969C26.6991 19.9207 26.6767 19.8552 26.6767 19.7724V19.3172L26.7336 19.431C26.6784 19.6172 26.5698 19.7672 26.4077 19.881C26.249 19.9914 26.0576 20.0466 25.8335 20.0466ZM25.968 19.6431C26.1094 19.6431 26.2335 19.6086 26.3404 19.5396C26.4473 19.4706 26.5301 19.3689 26.5887 19.2344C26.6508 19.0999 26.6819 18.9344 26.6819 18.7378C26.6819 18.4412 26.6163 18.217 26.4853 18.0653C26.3542 17.9136 26.1818 17.8377 25.968 17.8377C25.8231 17.8377 25.6973 17.8722 25.5904 17.9411C25.4834 18.0067 25.399 18.1067 25.3369 18.2412C25.2782 18.3757 25.2489 18.5412 25.2489 18.7378C25.2489 19.0309 25.3145 19.2551 25.4455 19.4103C25.5766 19.5655 25.7507 19.6431 25.968 19.6431Z" fill="#FFB211"/>
<path d="M18.0176 12.5861C18.0176 12.5861 21.0352 11.0689 21.0352 8.79304V6.13791L18.0176 5L15 6.13791V8.79304C15 11.0689 18.0176 12.5861 18.0176 12.5861Z" fill="#FFB211"/>
<path d="M16.3877 7.81309L17.6934 8.76625L19.3851 6.55863" stroke="white" stroke-width="0.646626"/>
</svg>
