<svg width="16" height="15" viewBox="0 0 16 15" fill="none" xmlns="http://www.w3.org/2000/svg">
<g clip-path="url(#clip0_24619_17067)">
<path d="M8.03439 14.8266C11.8115 14.8266 14.8735 11.7646 14.8735 7.98752C14.8735 4.2104 11.8115 1.14844 8.03439 1.14844C4.25727 1.14844 1.19531 4.2104 1.19531 7.98752C1.19531 11.7646 4.25727 14.8266 8.03439 14.8266Z" fill="#F4900C"/>
<path d="M8.03439 14.0239C11.8115 14.0239 14.8735 10.9619 14.8735 7.18478C14.8735 3.40766 11.8115 0.345703 8.03439 0.345703C4.25727 0.345703 1.19531 3.40766 1.19531 7.18478C1.19531 10.9619 4.25727 14.0239 8.03439 14.0239Z" fill="#FFCC4D"/>
<path d="M8.03453 13.2194C11.1451 13.2194 13.6667 10.6978 13.6667 7.58726C13.6667 4.47669 11.1451 1.95508 8.03453 1.95508C4.92396 1.95508 2.40234 4.47669 2.40234 7.58726C2.40234 10.6978 4.92396 13.2194 8.03453 13.2194Z" fill="#FFE8B6"/>
<path d="M8.03453 12.8152C11.1451 12.8152 13.6667 10.2935 13.6667 7.18297C13.6667 4.0724 11.1451 1.55078 8.03453 1.55078C4.92396 1.55078 2.40234 4.0724 2.40234 7.18297C2.40234 10.2935 4.92396 12.8152 8.03453 12.8152Z" fill="#FFAC33"/>
<path d="M7.68977 9.18441C9.21332 9.18441 10.4484 8.28618 10.4484 7.17814C10.4484 6.07011 9.21332 5.17188 7.68977 5.17188C6.16623 5.17188 4.93115 6.07011 4.93115 7.17814C4.93115 8.28618 6.16623 9.18441 7.68977 9.18441Z" fill="#FFCB5F"/>
</g>
<defs>
<clipPath id="clip0_24619_17067">
<rect width="14.4828" height="14.4828" fill="white" transform="translate(0.793213 0.345703)"/>
</clipPath>
</defs>
</svg>
